<?xml version="1.0" encoding="UTF-8" standalone="no"?>
<!DOCTYPE svg PUBLIC "-//W3C//DTD SVG 1.1//EN"
 "http://www.w3.org/Graphics/SVG/1.1/DTD/svg11.dtd">
<!-- Generated by graphviz version 2.40.1 (20161225.0304)
 -->
<!-- Title: Affiliation Pages: 1 -->
<svg width="475pt" height="832pt"
 viewBox="0.00 0.00 474.50 832.00" xmlns="http://www.w3.org/2000/svg" xmlns:xlink="http://www.w3.org/1999/xlink">
<g id="graph0" class="graph" transform="scale(1 1) rotate(0) translate(4 828)">
<title>Affiliation</title>
<polygon fill="#ffffff" stroke="transparent" points="-4,4 -4,-828 470.5,-828 470.5,4 -4,4"/>
<!-- Affiliation -->
<g id="node1" class="node">
<title>Affiliation</title>
<polygon fill="#efefef" stroke="transparent" points="83.5,-165.5 83.5,-200.5 297.5,-200.5 297.5,-165.5 83.5,-165.5"/>
<polygon fill="none" stroke="#000000" points="83.5,-165.5 83.5,-200.5 297.5,-200.5 297.5,-165.5 83.5,-165.5"/>
<text text-anchor="start" x="90.2129" y="-178.3" font-family="Arial Bold" font-size="18.00" fill="#000000">Affiliation</text>
<text text-anchor="start" x="163.2191" y="-178.3" font-family="Arial" font-size="14.00" fill="#000000">    </text>
<text text-anchor="start" x="197.4239" y="-178.3" font-family="Arial" font-size="14.00" fill="#666666">[BASE TABLE]</text>
<polygon fill="none" stroke="#000000" points="83.5,-135.5 83.5,-165.5 297.5,-165.5 297.5,-135.5 83.5,-135.5"/>
<text text-anchor="start" x="90.5" y="-146.9" font-family="Arial" font-size="14.00" fill="#000000">id </text>
<text text-anchor="start" x="105.2798" y="-146.9" font-family="Arial" font-size="14.00" fill="#666666">[int unsigned]</text>
<polygon fill="none" stroke="#000000" points="83.5,-105.5 83.5,-135.5 297.5,-135.5 297.5,-105.5 83.5,-105.5"/>
<text text-anchor="start" x="90.5" y="-116.9" font-family="Arial" font-size="14.00" fill="#000000">name </text>
<text text-anchor="start" x="129.399" y="-116.9" font-family="Arial" font-size="14.00" fill="#666666">[varchar(30)]</text>
<polygon fill="none" stroke="#000000" points="83.5,-75.5 83.5,-105.5 297.5,-105.5 297.5,-75.5 83.5,-75.5"/>
<text text-anchor="start" x="90.5" y="-86.9" font-family="Arial" font-size="14.00" fill="#000000">created_at </text>
<text text-anchor="start" x="160.528" y="-86.9" font-family="Arial" font-size="14.00" fill="#666666">[datetime]</text>
<polygon fill="none" stroke="#000000" points="83.5,-45.5 83.5,-75.5 297.5,-75.5 297.5,-45.5 83.5,-45.5"/>
<text text-anchor="start" x="90.5" y="-56.9" font-family="Arial" font-size="14.00" fill="#000000">updated_at </text>
<text text-anchor="start" x="164.4326" y="-56.9" font-family="Arial" font-size="14.00" fill="#666666">[datetime]</text>
<polygon fill="none" stroke="#000000" stroke-width="3" points="82,-44.5 82,-202.5 299,-202.5 299,-44.5 82,-44.5"/>
</g>
<!-- User -->
<g id="node2" class="node">
<title>User</title>
<polygon fill="#efefef" stroke="transparent" points="43.5,-745.5 43.5,-780.5 336.5,-780.5 336.5,-745.5 43.5,-745.5"/>
<polygon fill="none" stroke="#000000" points="43.5,-745.5 43.5,-780.5 336.5,-780.5 336.5,-745.5 43.5,-745.5"/>
<text text-anchor="start" x="107.2197" y="-758.3" font-family="Arial Bold" font-size="18.00" fill="#000000">User</text>
<text text-anchor="start" x="145.2123" y="-758.3" font-family="Arial" font-size="14.00" fill="#000000">    </text>
<text text-anchor="start" x="179.4171" y="-758.3" font-family="Arial" font-size="14.00" fill="#666666">[BASE TABLE]</text>
<polygon fill="none" stroke="#000000" points="43.5,-715.5 43.5,-745.5 336.5,-745.5 336.5,-715.5 43.5,-715.5"/>
<text text-anchor="start" x="50.5" y="-726.9" font-family="Arial" font-size="14.00" fill="#000000">id    </text>
<text text-anchor="start" x="95.594" y="-726.9" font-family="Arial" font-size="14.00" fill="#666666">[int unsigned]</text>
<polygon fill="none" stroke="#000000" points="43.5,-685.5 43.5,-715.5 336.5,-715.5 336.5,-685.5 43.5,-685.5"/>
<text text-anchor="start" x="50.5" y="-696.9" font-family="Arial" font-size="14.00" fill="#000000">email    </text>
<text text-anchor="start" x="118.1438" y="-696.9" font-family="Arial" font-size="14.00" fill="#666666">[varchar(255)]</text>
<polygon fill="none" stroke="#000000" points="43.5,-655.5 43.5,-685.5 336.5,-685.5 336.5,-655.5 43.5,-655.5"/>
<text text-anchor="start" x="50.5" y="-666.9" font-family="Arial" font-size="14.00" fill="#000000">password    </text>
<text text-anchor="start" x="144.6024" y="-666.9" font-family="Arial" font-size="14.00" fill="#666666">[varchar(255)]</text>
<polygon fill="none" stroke="#000000" points="43.5,-625.5 43.5,-655.5 336.5,-655.5 336.5,-625.5 43.5,-625.5"/>
<text text-anchor="start" x="50.5" y="-636.9" font-family="Arial" font-size="14.00" fill="#000000">username    </text>
<text text-anchor="start" x="146.939" y="-636.9" font-family="Arial" font-size="14.00" fill="#666666">[varchar(50)]</text>
<polygon fill="none" stroke="#000000" points="43.5,-595.5 43.5,-625.5 336.5,-625.5 336.5,-595.5 43.5,-595.5"/>
<text text-anchor="start" x="50.5" y="-606.9" font-family="Arial" font-size="14.00" fill="#000000">enrollment_year    </text>
<text text-anchor="start" x="185.0512" y="-606.9" font-family="Arial" font-size="14.00" fill="#666666">[int]</text>
<polygon fill="none" stroke="#000000" points="43.5,-565.5 43.5,-595.5 336.5,-595.5 336.5,-565.5 43.5,-565.5"/>
<text text-anchor="start" x="50.5" y="-576.9" font-family="Arial" font-size="14.00" fill="#000000">graduation_year    </text>
<text text-anchor="start" x="185.8492" y="-576.9" font-family="Arial" font-size="14.00" fill="#666666">[int]</text>
<polygon fill="none" stroke="#000000" points="43.5,-535.5 43.5,-565.5 336.5,-565.5 336.5,-535.5 43.5,-535.5"/>
<text text-anchor="start" x="50.5" y="-546.9" font-family="Arial" font-size="14.00" fill="#000000">is_job_hunt_completed    </text>
<text text-anchor="start" x="228.6402" y="-546.9" font-family="Arial" font-size="14.00" fill="#666666">[tinyint(1)]</text>
<polygon fill="none" stroke="#000000" points="43.5,-505.5 43.5,-535.5 336.5,-535.5 336.5,-505.5 43.5,-505.5"/>
<text text-anchor="start" x="50.5" y="-516.9" font-family="Arial" font-size="14.00" fill="#000000">self_introduction    </text>
<text text-anchor="start" x="186.6178" y="-516.9" font-family="Arial" font-size="14.00" fill="#666666">[text]</text>
<polygon fill="none" stroke="#000000" points="43.5,-475.5 43.5,-505.5 336.5,-505.5 336.5,-475.5 43.5,-475.5"/>
<text text-anchor="start" x="50.5" y="-486.9" font-family="Arial" font-size="14.00" fill="#000000">icon_url    </text>
<text text-anchor="start" x="133.709" y="-486.9" font-family="Arial" font-size="14.00" fill="#666666">[varchar(255)]</text>
<polygon fill="none" stroke="#000000" points="43.5,-445.5 43.5,-475.5 336.5,-475.5 336.5,-445.5 43.5,-445.5"/>
<text text-anchor="start" x="50.5" y="-456.9" font-family="Arial" font-size="14.00" fill="#000000">created_at    </text>
<text text-anchor="start" x="150.8422" y="-456.9" font-family="Arial" font-size="14.00" fill="#666666">[datetime]</text>
<polygon fill="none" stroke="#000000" points="43.5,-415.5 43.5,-445.5 336.5,-445.5 336.5,-415.5 43.5,-415.5"/>
<text text-anchor="start" x="50.5" y="-426.9" font-family="Arial" font-size="14.00" fill="#000000">updated_at    </text>
<text text-anchor="start" x="154.7468" y="-426.9" font-family="Arial" font-size="14.00" fill="#666666">[datetime]</text>
<polygon fill="none" stroke="#000000" points="43.5,-385.5 43.5,-415.5 336.5,-415.5 336.5,-385.5 43.5,-385.5"/>
<text text-anchor="start" x="50.3738" y="-396.9" font-family="Arial" font-size="14.00" fill="#000000">show_profile_in_public_event    </text>
<text text-anchor="start" x="268.1816" y="-396.9" font-family="Arial" font-size="14.00" fill="#666666">[tinyint(1)]</text>
<polygon fill="none" stroke="#000000" points="43.5,-355.5 43.5,-385.5 336.5,-385.5 336.5,-355.5 43.5,-355.5"/>
<text text-anchor="start" x="50.5" y="-366.9" font-family="Arial" font-size="14.00" fill="#000000">show_profile_in_shared_url    </text>
<text text-anchor="start" x="255.8492" y="-366.9" font-family="Arial" font-size="14.00" fill="#666666">[tinyint(1)]</text>
<polygon fill="none" stroke="#000000" points="43.5,-325.5 43.5,-355.5 336.5,-355.5 336.5,-325.5 43.5,-325.5"/>
<text text-anchor="start" x="50.5" y="-336.9" font-family="Arial" font-size="14.00" fill="#000000">affiliation_id    </text>
<text text-anchor="start" x="158.6052" y="-336.9" font-family="Arial" font-size="14.00" fill="#666666">[int unsigned]</text>
</g>
<!-- User&#45;&gt;Affiliation -->
<g id="edge1" class="edge">
<title>User:affiliation_id&#45;&gt;Affiliation:id</title>
<path fill="none" stroke="#000000" d="M189.5912,-315.4767C180.6666,-270.3211 108.4891,-296.326 83.5,-247 64.1174,-208.7407 40.6111,-150.5 83.5,-150.5"/>
<polygon fill="#000000" stroke="#000000" points="189.5969,-315.5409 186.0184,-325.9064 190.0485,-320.5204 190.5,-325.5 190.5,-325.5 190.5,-325.5 190.0485,-320.5204 194.9816,-325.0936 189.5969,-315.5409 189.5969,-315.5409"/>
<text text-anchor="start" x="197.388" y="-335.5" font-family="Arial" font-size="10.00" fill="#000000">FOREIGN KEY (affiliation_id) REFERENCES Affiliation (id)</text>
</g>
</g>
</svg>
