<?xml version="1.0" encoding="UTF-8" standalone="no"?>
<!DOCTYPE svg PUBLIC "-//W3C//DTD SVG 1.1//EN"
 "http://www.w3.org/Graphics/SVG/1.1/DTD/svg11.dtd">
<!-- Generated by graphviz version 2.40.1 (20161225.0304)
 -->
<!-- Title: Authority Pages: 1 -->
<svg width="637pt" height="562pt"
 viewBox="0.00 0.00 636.50 562.00" xmlns="http://www.w3.org/2000/svg" xmlns:xlink="http://www.w3.org/1999/xlink">
<g id="graph0" class="graph" transform="scale(1 1) rotate(0) translate(4 558)">
<title>Authority</title>
<polygon fill="#ffffff" stroke="transparent" points="-4,4 -4,-558 632.5,-558 632.5,4 -4,4"/>
<!-- Authority -->
<g id="node1" class="node">
<title>Authority</title>
<polygon fill="#efefef" stroke="transparent" points="93.5,-165.5 93.5,-200.5 305.5,-200.5 305.5,-165.5 93.5,-165.5"/>
<polygon fill="none" stroke="#000000" points="93.5,-165.5 93.5,-200.5 305.5,-200.5 305.5,-165.5 93.5,-165.5"/>
<text text-anchor="start" x="100.2092" y="-178.3" font-family="Arial Bold" font-size="18.00" fill="#000000">Authority</text>
<text text-anchor="start" x="171.2228" y="-178.3" font-family="Arial" font-size="14.00" fill="#000000">    </text>
<text text-anchor="start" x="205.4276" y="-178.3" font-family="Arial" font-size="14.00" fill="#666666">[BASE TABLE]</text>
<polygon fill="none" stroke="#000000" points="93.5,-135.5 93.5,-165.5 305.5,-165.5 305.5,-135.5 93.5,-135.5"/>
<text text-anchor="start" x="100.5" y="-146.9" font-family="Arial" font-size="14.00" fill="#000000">id </text>
<text text-anchor="start" x="115.2798" y="-146.9" font-family="Arial" font-size="14.00" fill="#666666">[int unsigned]</text>
<polygon fill="none" stroke="#000000" points="93.5,-105.5 93.5,-135.5 305.5,-135.5 305.5,-105.5 93.5,-105.5"/>
<text text-anchor="start" x="100.5" y="-116.9" font-family="Arial" font-size="14.00" fill="#000000">name </text>
<text text-anchor="start" x="139.399" y="-116.9" font-family="Arial" font-size="14.00" fill="#666666">[varchar(30)]</text>
<polygon fill="none" stroke="#000000" points="93.5,-75.5 93.5,-105.5 305.5,-105.5 305.5,-75.5 93.5,-75.5"/>
<text text-anchor="start" x="100.5" y="-86.9" font-family="Arial" font-size="14.00" fill="#000000">created_at </text>
<text text-anchor="start" x="170.528" y="-86.9" font-family="Arial" font-size="14.00" fill="#666666">[datetime]</text>
<polygon fill="none" stroke="#000000" points="93.5,-45.5 93.5,-75.5 305.5,-75.5 305.5,-45.5 93.5,-45.5"/>
<text text-anchor="start" x="100.5" y="-56.9" font-family="Arial" font-size="14.00" fill="#000000">updated_at </text>
<text text-anchor="start" x="174.4326" y="-56.9" font-family="Arial" font-size="14.00" fill="#666666">[datetime]</text>
<polygon fill="none" stroke="#000000" stroke-width="3" points="92,-44.5 92,-202.5 307,-202.5 307,-44.5 92,-44.5"/>
</g>
<!-- Event_user_authority -->
<g id="node2" class="node">
<title>Event_user_authority</title>
<polygon fill="#efefef" stroke="transparent" points="43.5,-475.5 43.5,-510.5 354.5,-510.5 354.5,-475.5 43.5,-475.5"/>
<polygon fill="none" stroke="#000000" points="43.5,-475.5 43.5,-510.5 354.5,-510.5 354.5,-475.5 43.5,-475.5"/>
<text text-anchor="start" x="50.1903" y="-488.3" font-family="Arial Bold" font-size="18.00" fill="#000000">Event_user_authority</text>
<text text-anchor="start" x="220.2417" y="-488.3" font-family="Arial" font-size="14.00" fill="#000000">    </text>
<text text-anchor="start" x="254.4465" y="-488.3" font-family="Arial" font-size="14.00" fill="#666666">[BASE TABLE]</text>
<polygon fill="none" stroke="#000000" points="43.5,-445.5 43.5,-475.5 354.5,-475.5 354.5,-445.5 43.5,-445.5"/>
<text text-anchor="start" x="50.5" y="-456.9" font-family="Arial" font-size="14.00" fill="#000000">event_id    </text>
<text text-anchor="start" x="137.615" y="-456.9" font-family="Arial" font-size="14.00" fill="#666666">[int unsigned]</text>
<polygon fill="none" stroke="#000000" points="43.5,-415.5 43.5,-445.5 354.5,-445.5 354.5,-415.5 43.5,-415.5"/>
<text text-anchor="start" x="50.5" y="-426.9" font-family="Arial" font-size="14.00" fill="#000000">user_id    </text>
<text text-anchor="start" x="130.6024" y="-426.9" font-family="Arial" font-size="14.00" fill="#666666">[int unsigned]</text>
<polygon fill="none" stroke="#000000" points="43.5,-385.5 43.5,-415.5 354.5,-415.5 354.5,-385.5 43.5,-385.5"/>
<text text-anchor="start" x="50.5" y="-396.9" font-family="Arial" font-size="14.00" fill="#000000">authority_id    </text>
<text text-anchor="start" x="157.0554" y="-396.9" font-family="Arial" font-size="14.00" fill="#666666">[int unsigned]</text>
<polygon fill="none" stroke="#000000" points="43.5,-355.5 43.5,-385.5 354.5,-385.5 354.5,-355.5 43.5,-355.5"/>
<text text-anchor="start" x="50.5" y="-366.9" font-family="Arial" font-size="14.00" fill="#000000">created_at    </text>
<text text-anchor="start" x="150.8422" y="-366.9" font-family="Arial" font-size="14.00" fill="#666666">[datetime]</text>
<polygon fill="none" stroke="#000000" points="43.5,-325.5 43.5,-355.5 354.5,-355.5 354.5,-325.5 43.5,-325.5"/>
<text text-anchor="start" x="50.5" y="-336.9" font-family="Arial" font-size="14.00" fill="#000000">updated_at    </text>
<text text-anchor="start" x="154.7468" y="-336.9" font-family="Arial" font-size="14.00" fill="#666666">[datetime]</text>
</g>
<!-- Event_user_authority&#45;&gt;Authority -->
<g id="edge1" class="edge">
<title>Event_user_authority:authority_id&#45;&gt;Authority:id</title>
<path fill="none" stroke="#000000" d="M364.4941,-399.3818C404.1224,-389.7044 386.3988,-319.6006 354.5,-283 277.5636,-194.7232 170.4364,-335.2768 93.5,-247 65.3209,-214.6674 50.6111,-150.5 93.5,-150.5"/>
<polygon fill="#000000" stroke="#000000" points="364.438,-399.388 353.9996,-396.0279 359.469,-399.944 354.5,-400.5 354.5,-400.5 354.5,-400.5 359.469,-399.944 355.0004,-404.9721 364.438,-399.388 364.438,-399.388"/>
<text text-anchor="start" x="361.495" y="-410.5" font-family="Arial" font-size="10.00" fill="#000000">FOREIGN KEY (authority_id) REFERENCES Authority (id)</text>
</g>
</g>
</svg>
