<?xml version="1.0" encoding="UTF-8" standalone="no"?>
<!DOCTYPE svg PUBLIC "-//W3C//DTD SVG 1.1//EN"
 "http://www.w3.org/Graphics/SVG/1.1/DTD/svg11.dtd">
<!-- Generated by graphviz version 2.40.1 (20161225.0304)
 -->
<!-- Title: Bookmark Pages: 1 -->
<svg width="720pt" height="832pt"
 viewBox="0.00 0.00 719.50 832.00" xmlns="http://www.w3.org/2000/svg" xmlns:xlink="http://www.w3.org/1999/xlink">
<g id="graph0" class="graph" transform="scale(1 1) rotate(0) translate(4 828)">
<title>Bookmark</title>
<polygon fill="#ffffff" stroke="transparent" points="-4,4 -4,-828 715.5,-828 715.5,4 -4,4"/>
<!-- Bookmark -->
<g id="node1" class="node">
<title>Bookmark</title>
<polygon fill="#efefef" stroke="transparent" points="240,-742.5 240,-777.5 462,-777.5 462,-742.5 240,-742.5"/>
<polygon fill="none" stroke="#000000" points="240,-742.5 240,-777.5 462,-777.5 462,-742.5 240,-742.5"/>
<text text-anchor="start" x="246.7124" y="-755.3" font-family="Arial Bold" font-size="18.00" fill="#000000">Bookmark</text>
<text text-anchor="start" x="327.7196" y="-755.3" font-family="Arial" font-size="14.00" fill="#000000">    </text>
<text text-anchor="start" x="361.9244" y="-755.3" font-family="Arial" font-size="14.00" fill="#666666">[BASE TABLE]</text>
<polygon fill="none" stroke="#000000" points="240,-712.5 240,-742.5 462,-742.5 462,-712.5 240,-712.5"/>
<text text-anchor="start" x="247" y="-723.9" font-family="Arial" font-size="14.00" fill="#000000">work_id </text>
<text text-anchor="start" x="299.1122" y="-723.9" font-family="Arial" font-size="14.00" fill="#666666">[int unsigned]</text>
<polygon fill="none" stroke="#000000" points="240,-682.5 240,-712.5 462,-712.5 462,-682.5 240,-682.5"/>
<text text-anchor="start" x="247" y="-693.9" font-family="Arial" font-size="14.00" fill="#000000">user_id </text>
<text text-anchor="start" x="296.7882" y="-693.9" font-family="Arial" font-size="14.00" fill="#666666">[int unsigned]</text>
<polygon fill="none" stroke="#000000" points="240,-652.5 240,-682.5 462,-682.5 462,-652.5 240,-652.5"/>
<text text-anchor="start" x="247" y="-663.9" font-family="Arial" font-size="14.00" fill="#000000">created_at </text>
<text text-anchor="start" x="317.028" y="-663.9" font-family="Arial" font-size="14.00" fill="#666666">[datetime]</text>
<polygon fill="none" stroke="#000000" points="240,-622.5 240,-652.5 462,-652.5 462,-622.5 240,-622.5"/>
<text text-anchor="start" x="247" y="-633.9" font-family="Arial" font-size="14.00" fill="#000000">updated_at </text>
<text text-anchor="start" x="320.9326" y="-633.9" font-family="Arial" font-size="14.00" fill="#666666">[datetime]</text>
<polygon fill="none" stroke="#000000" stroke-width="3" points="238.5,-621.5 238.5,-779.5 463.5,-779.5 463.5,-621.5 238.5,-621.5"/>
</g>
<!-- Work -->
<g id="node2" class="node">
<title>Work</title>
<polygon fill="#efefef" stroke="transparent" points="87,-312.5 87,-347.5 271,-347.5 271,-312.5 87,-312.5"/>
<polygon fill="none" stroke="#000000" points="87,-312.5 87,-347.5 271,-347.5 271,-312.5 87,-312.5"/>
<text text-anchor="start" x="94.2217" y="-325.3" font-family="Arial Bold" font-size="18.00" fill="#000000">Work</text>
<text text-anchor="start" x="136.2103" y="-325.3" font-family="Arial" font-size="14.00" fill="#000000">    </text>
<text text-anchor="start" x="170.4151" y="-325.3" font-family="Arial" font-size="14.00" fill="#666666">[BASE TABLE]</text>
<polygon fill="none" stroke="#000000" points="87,-282.5 87,-312.5 271,-312.5 271,-282.5 87,-282.5"/>
<text text-anchor="start" x="94" y="-293.9" font-family="Arial" font-size="14.00" fill="#000000">id    </text>
<text text-anchor="start" x="139.094" y="-293.9" font-family="Arial" font-size="14.00" fill="#666666">[int unsigned]</text>
<polygon fill="none" stroke="#000000" points="87,-252.5 87,-282.5 271,-282.5 271,-252.5 87,-252.5"/>
<text text-anchor="start" x="93.8156" y="-263.9" font-family="Arial" font-size="14.00" fill="#000000">event_id    </text>
<text text-anchor="start" x="180.9306" y="-263.9" font-family="Arial" font-size="14.00" fill="#666666">[int unsigned]</text>
<polygon fill="none" stroke="#000000" points="87,-222.5 87,-252.5 271,-252.5 271,-222.5 87,-222.5"/>
<text text-anchor="start" x="94" y="-233.9" font-family="Arial" font-size="14.00" fill="#000000">created_at    </text>
<text text-anchor="start" x="194.3422" y="-233.9" font-family="Arial" font-size="14.00" fill="#666666">[datetime]</text>
<polygon fill="none" stroke="#000000" points="87,-192.5 87,-222.5 271,-222.5 271,-192.5 87,-192.5"/>
<text text-anchor="start" x="94" y="-203.9" font-family="Arial" font-size="14.00" fill="#000000">updated_at    </text>
<text text-anchor="start" x="198.2468" y="-203.9" font-family="Arial" font-size="14.00" fill="#666666">[datetime]</text>
</g>
<!-- Bookmark&#45;&gt;Work -->
<g id="edge1" class="edge">
<title>Bookmark:work_id&#45;&gt;Work:id</title>
<path fill="none" stroke="#000000" d="M229.9523,-727.0614C63.5556,-711.691 459.0519,-297.5 271,-297.5"/>
<polygon fill="#000000" stroke="#000000" points="230.0095,-727.0638 239.8037,-731.9957 235.0048,-727.2819 240,-727.5 240,-727.5 240,-727.5 235.0048,-727.2819 240.1963,-723.0043 230.0095,-727.0638 230.0095,-727.0638"/>
<text text-anchor="start" x="6.675" y="-737.5" font-family="Arial" font-size="10.00" fill="#000000">FOREIGN KEY (work_id) REFERENCES Work (id)</text>
</g>
<!-- User -->
<g id="node3" class="node">
<title>User</title>
<polygon fill="#efefef" stroke="transparent" points="376,-462.5 376,-497.5 669,-497.5 669,-462.5 376,-462.5"/>
<polygon fill="none" stroke="#000000" points="376,-462.5 376,-497.5 669,-497.5 669,-462.5 376,-462.5"/>
<text text-anchor="start" x="439.7197" y="-475.3" font-family="Arial Bold" font-size="18.00" fill="#000000">User</text>
<text text-anchor="start" x="477.7123" y="-475.3" font-family="Arial" font-size="14.00" fill="#000000">    </text>
<text text-anchor="start" x="511.9171" y="-475.3" font-family="Arial" font-size="14.00" fill="#666666">[BASE TABLE]</text>
<polygon fill="none" stroke="#000000" points="376,-432.5 376,-462.5 669,-462.5 669,-432.5 376,-432.5"/>
<text text-anchor="start" x="383" y="-443.9" font-family="Arial" font-size="14.00" fill="#000000">id    </text>
<text text-anchor="start" x="428.094" y="-443.9" font-family="Arial" font-size="14.00" fill="#666666">[int unsigned]</text>
<polygon fill="none" stroke="#000000" points="376,-402.5 376,-432.5 669,-432.5 669,-402.5 376,-402.5"/>
<text text-anchor="start" x="383" y="-413.9" font-family="Arial" font-size="14.00" fill="#000000">email    </text>
<text text-anchor="start" x="450.6438" y="-413.9" font-family="Arial" font-size="14.00" fill="#666666">[varchar(255)]</text>
<polygon fill="none" stroke="#000000" points="376,-372.5 376,-402.5 669,-402.5 669,-372.5 376,-372.5"/>
<text text-anchor="start" x="383" y="-383.9" font-family="Arial" font-size="14.00" fill="#000000">password    </text>
<text text-anchor="start" x="477.1024" y="-383.9" font-family="Arial" font-size="14.00" fill="#666666">[varchar(255)]</text>
<polygon fill="none" stroke="#000000" points="376,-342.5 376,-372.5 669,-372.5 669,-342.5 376,-342.5"/>
<text text-anchor="start" x="383" y="-353.9" font-family="Arial" font-size="14.00" fill="#000000">username    </text>
<text text-anchor="start" x="479.439" y="-353.9" font-family="Arial" font-size="14.00" fill="#666666">[varchar(50)]</text>
<polygon fill="none" stroke="#000000" points="376,-312.5 376,-342.5 669,-342.5 669,-312.5 376,-312.5"/>
<text text-anchor="start" x="383" y="-323.9" font-family="Arial" font-size="14.00" fill="#000000">enrollment_year    </text>
<text text-anchor="start" x="517.5512" y="-323.9" font-family="Arial" font-size="14.00" fill="#666666">[int]</text>
<polygon fill="none" stroke="#000000" points="376,-282.5 376,-312.5 669,-312.5 669,-282.5 376,-282.5"/>
<text text-anchor="start" x="383" y="-293.9" font-family="Arial" font-size="14.00" fill="#000000">graduation_year    </text>
<text text-anchor="start" x="518.3492" y="-293.9" font-family="Arial" font-size="14.00" fill="#666666">[int]</text>
<polygon fill="none" stroke="#000000" points="376,-252.5 376,-282.5 669,-282.5 669,-252.5 376,-252.5"/>
<text text-anchor="start" x="383" y="-263.9" font-family="Arial" font-size="14.00" fill="#000000">is_job_hunt_completed    </text>
<text text-anchor="start" x="561.1402" y="-263.9" font-family="Arial" font-size="14.00" fill="#666666">[tinyint(1)]</text>
<polygon fill="none" stroke="#000000" points="376,-222.5 376,-252.5 669,-252.5 669,-222.5 376,-222.5"/>
<text text-anchor="start" x="383" y="-233.9" font-family="Arial" font-size="14.00" fill="#000000">self_introduction    </text>
<text text-anchor="start" x="519.1178" y="-233.9" font-family="Arial" font-size="14.00" fill="#666666">[text]</text>
<polygon fill="none" stroke="#000000" points="376,-192.5 376,-222.5 669,-222.5 669,-192.5 376,-192.5"/>
<text text-anchor="start" x="383" y="-203.9" font-family="Arial" font-size="14.00" fill="#000000">icon_url    </text>
<text text-anchor="start" x="466.209" y="-203.9" font-family="Arial" font-size="14.00" fill="#666666">[varchar(255)]</text>
<polygon fill="none" stroke="#000000" points="376,-162.5 376,-192.5 669,-192.5 669,-162.5 376,-162.5"/>
<text text-anchor="start" x="383" y="-173.9" font-family="Arial" font-size="14.00" fill="#000000">created_at    </text>
<text text-anchor="start" x="483.3422" y="-173.9" font-family="Arial" font-size="14.00" fill="#666666">[datetime]</text>
<polygon fill="none" stroke="#000000" points="376,-132.5 376,-162.5 669,-162.5 669,-132.5 376,-132.5"/>
<text text-anchor="start" x="383" y="-143.9" font-family="Arial" font-size="14.00" fill="#000000">updated_at    </text>
<text text-anchor="start" x="487.2468" y="-143.9" font-family="Arial" font-size="14.00" fill="#666666">[datetime]</text>
<polygon fill="none" stroke="#000000" points="376,-102.5 376,-132.5 669,-132.5 669,-102.5 376,-102.5"/>
<text text-anchor="start" x="382.8738" y="-113.9" font-family="Arial" font-size="14.00" fill="#000000">show_profile_in_public_event    </text>
<text text-anchor="start" x="600.6816" y="-113.9" font-family="Arial" font-size="14.00" fill="#666666">[tinyint(1)]</text>
<polygon fill="none" stroke="#000000" points="376,-72.5 376,-102.5 669,-102.5 669,-72.5 376,-72.5"/>
<text text-anchor="start" x="383" y="-83.9" font-family="Arial" font-size="14.00" fill="#000000">show_profile_in_shared_url    </text>
<text text-anchor="start" x="588.3492" y="-83.9" font-family="Arial" font-size="14.00" fill="#666666">[tinyint(1)]</text>
<polygon fill="none" stroke="#000000" points="376,-42.5 376,-72.5 669,-72.5 669,-42.5 376,-42.5"/>
<text text-anchor="start" x="383" y="-53.9" font-family="Arial" font-size="14.00" fill="#000000">affiliation_id    </text>
<text text-anchor="start" x="491.1052" y="-53.9" font-family="Arial" font-size="14.00" fill="#666666">[int unsigned]</text>
</g>
<!-- Bookmark&#45;&gt;User -->
<g id="edge2" class="edge">
<title>Bookmark:user_id&#45;&gt;User:id</title>
<path fill="none" stroke="#000000" d="M472.1732,-696.4113C512.1681,-686.9794 489.5843,-618.4505 462,-577 439.0439,-542.5043 398.9561,-575.4957 376,-541 352.9777,-506.4047 334.4444,-447.5 376,-447.5"/>
<polygon fill="#000000" stroke="#000000" points="471.9432,-696.4359 461.5211,-693.0255 466.9716,-696.9679 462,-697.5 462,-697.5 462,-697.5 466.9716,-696.9679 462.4789,-701.9745 471.9432,-696.4359 471.9432,-696.4359"/>
<text text-anchor="start" x="468.615" y="-707.5" font-family="Arial" font-size="10.00" fill="#000000">FOREIGN KEY (user_id) REFERENCES User (id)</text>
</g>
</g>
</svg>
