<?xml version="1.0" encoding="UTF-8" standalone="no"?>
<!DOCTYPE svg PUBLIC "-//W3C//DTD SVG 1.1//EN"
 "http://www.w3.org/Graphics/SVG/1.1/DTD/svg11.dtd">
<!-- Generated by graphviz version 2.40.1 (20161225.0304)
 -->
<!-- Title: Email_change_verification Pages: 1 -->
<svg width="641pt" height="922pt"
 viewBox="0.00 0.00 640.50 922.00" xmlns="http://www.w3.org/2000/svg" xmlns:xlink="http://www.w3.org/1999/xlink">
<g id="graph0" class="graph" transform="scale(1 1) rotate(0) translate(4 918)">
<title>Email_change_verification</title>
<polygon fill="#ffffff" stroke="transparent" points="-4,4 -4,-918 636.5,-918 636.5,4 -4,4"/>
<!-- Email_change_verification -->
<g id="node1" class="node">
<title>Email_change_verification</title>
<polygon fill="#efefef" stroke="transparent" points="236,-832.5 236,-867.5 587,-867.5 587,-832.5 236,-832.5"/>
<polygon fill="none" stroke="#000000" points="236,-832.5 236,-867.5 587,-867.5 587,-832.5 236,-832.5"/>
<text text-anchor="start" x="242.6968" y="-845.3" font-family="Arial Bold" font-size="18.00" fill="#000000">Email_change_verification</text>
<text text-anchor="start" x="452.7352" y="-845.3" font-family="Arial" font-size="14.00" fill="#000000">    </text>
<text text-anchor="start" x="486.94" y="-845.3" font-family="Arial" font-size="14.00" fill="#666666">[BASE TABLE]</text>
<polygon fill="none" stroke="#000000" points="236,-802.5 236,-832.5 587,-832.5 587,-802.5 236,-802.5"/>
<text text-anchor="start" x="243" y="-813.9" font-family="Arial" font-size="14.00" fill="#000000">id </text>
<text text-anchor="start" x="257.7798" y="-813.9" font-family="Arial" font-size="14.00" fill="#666666">[int unsigned]</text>
<polygon fill="none" stroke="#000000" points="236,-772.5 236,-802.5 587,-802.5 587,-772.5 236,-772.5"/>
<text text-anchor="start" x="243" y="-783.9" font-family="Arial" font-size="14.00" fill="#000000">user_id </text>
<text text-anchor="start" x="292.7882" y="-783.9" font-family="Arial" font-size="14.00" fill="#666666">[int unsigned]</text>
<polygon fill="none" stroke="#000000" points="236,-742.5 236,-772.5 587,-772.5 587,-742.5 236,-742.5"/>
<text text-anchor="start" x="243" y="-753.9" font-family="Arial" font-size="14.00" fill="#000000">email </text>
<text text-anchor="start" x="280.3296" y="-753.9" font-family="Arial" font-size="14.00" fill="#666666">[varchar(255)]</text>
<polygon fill="none" stroke="#000000" points="236,-712.5 236,-742.5 587,-742.5 587,-712.5 236,-712.5"/>
<text text-anchor="start" x="243" y="-723.9" font-family="Arial" font-size="14.00" fill="#000000">token </text>
<text text-anchor="start" x="281.129" y="-723.9" font-family="Arial" font-size="14.00" fill="#666666">[varchar(255)]</text>
<polygon fill="none" stroke="#000000" points="236,-682.5 236,-712.5 587,-712.5 587,-682.5 236,-682.5"/>
<text text-anchor="start" x="243" y="-693.9" font-family="Arial" font-size="14.00" fill="#000000">expired_at </text>
<text text-anchor="start" x="312.244" y="-693.9" font-family="Arial" font-size="14.00" fill="#666666">[datetime]</text>
<polygon fill="none" stroke="#000000" points="236,-652.5 236,-682.5 587,-682.5 587,-652.5 236,-652.5"/>
<text text-anchor="start" x="243" y="-663.9" font-family="Arial" font-size="14.00" fill="#000000">created_at </text>
<text text-anchor="start" x="313.028" y="-663.9" font-family="Arial" font-size="14.00" fill="#666666">[datetime]</text>
<polygon fill="none" stroke="#000000" points="236,-622.5 236,-652.5 587,-652.5 587,-622.5 236,-622.5"/>
<text text-anchor="start" x="243" y="-633.9" font-family="Arial" font-size="14.00" fill="#000000">updated_at </text>
<text text-anchor="start" x="316.9326" y="-633.9" font-family="Arial" font-size="14.00" fill="#666666">[datetime]</text>
<polygon fill="none" stroke="#000000" stroke-width="3" points="234,-621.5 234,-869.5 588,-869.5 588,-621.5 234,-621.5"/>
</g>
<!-- User -->
<g id="node2" class="node">
<title>User</title>
<polygon fill="#efefef" stroke="transparent" points="265,-462.5 265,-497.5 558,-497.5 558,-462.5 265,-462.5"/>
<polygon fill="none" stroke="#000000" points="265,-462.5 265,-497.5 558,-497.5 558,-462.5 265,-462.5"/>
<text text-anchor="start" x="328.7197" y="-475.3" font-family="Arial Bold" font-size="18.00" fill="#000000">User</text>
<text text-anchor="start" x="366.7123" y="-475.3" font-family="Arial" font-size="14.00" fill="#000000">    </text>
<text text-anchor="start" x="400.9171" y="-475.3" font-family="Arial" font-size="14.00" fill="#666666">[BASE TABLE]</text>
<polygon fill="none" stroke="#000000" points="265,-432.5 265,-462.5 558,-462.5 558,-432.5 265,-432.5"/>
<text text-anchor="start" x="272" y="-443.9" font-family="Arial" font-size="14.00" fill="#000000">id    </text>
<text text-anchor="start" x="317.094" y="-443.9" font-family="Arial" font-size="14.00" fill="#666666">[int unsigned]</text>
<polygon fill="none" stroke="#000000" points="265,-402.5 265,-432.5 558,-432.5 558,-402.5 265,-402.5"/>
<text text-anchor="start" x="272" y="-413.9" font-family="Arial" font-size="14.00" fill="#000000">email    </text>
<text text-anchor="start" x="339.6438" y="-413.9" font-family="Arial" font-size="14.00" fill="#666666">[varchar(255)]</text>
<polygon fill="none" stroke="#000000" points="265,-372.5 265,-402.5 558,-402.5 558,-372.5 265,-372.5"/>
<text text-anchor="start" x="272" y="-383.9" font-family="Arial" font-size="14.00" fill="#000000">password    </text>
<text text-anchor="start" x="366.1024" y="-383.9" font-family="Arial" font-size="14.00" fill="#666666">[varchar(255)]</text>
<polygon fill="none" stroke="#000000" points="265,-342.5 265,-372.5 558,-372.5 558,-342.5 265,-342.5"/>
<text text-anchor="start" x="272" y="-353.9" font-family="Arial" font-size="14.00" fill="#000000">username    </text>
<text text-anchor="start" x="368.439" y="-353.9" font-family="Arial" font-size="14.00" fill="#666666">[varchar(50)]</text>
<polygon fill="none" stroke="#000000" points="265,-312.5 265,-342.5 558,-342.5 558,-312.5 265,-312.5"/>
<text text-anchor="start" x="272" y="-323.9" font-family="Arial" font-size="14.00" fill="#000000">enrollment_year    </text>
<text text-anchor="start" x="406.5512" y="-323.9" font-family="Arial" font-size="14.00" fill="#666666">[int]</text>
<polygon fill="none" stroke="#000000" points="265,-282.5 265,-312.5 558,-312.5 558,-282.5 265,-282.5"/>
<text text-anchor="start" x="272" y="-293.9" font-family="Arial" font-size="14.00" fill="#000000">graduation_year    </text>
<text text-anchor="start" x="407.3492" y="-293.9" font-family="Arial" font-size="14.00" fill="#666666">[int]</text>
<polygon fill="none" stroke="#000000" points="265,-252.5 265,-282.5 558,-282.5 558,-252.5 265,-252.5"/>
<text text-anchor="start" x="272" y="-263.9" font-family="Arial" font-size="14.00" fill="#000000">is_job_hunt_completed    </text>
<text text-anchor="start" x="450.1402" y="-263.9" font-family="Arial" font-size="14.00" fill="#666666">[tinyint(1)]</text>
<polygon fill="none" stroke="#000000" points="265,-222.5 265,-252.5 558,-252.5 558,-222.5 265,-222.5"/>
<text text-anchor="start" x="272" y="-233.9" font-family="Arial" font-size="14.00" fill="#000000">self_introduction    </text>
<text text-anchor="start" x="408.1178" y="-233.9" font-family="Arial" font-size="14.00" fill="#666666">[text]</text>
<polygon fill="none" stroke="#000000" points="265,-192.5 265,-222.5 558,-222.5 558,-192.5 265,-192.5"/>
<text text-anchor="start" x="272" y="-203.9" font-family="Arial" font-size="14.00" fill="#000000">icon_url    </text>
<text text-anchor="start" x="355.209" y="-203.9" font-family="Arial" font-size="14.00" fill="#666666">[varchar(255)]</text>
<polygon fill="none" stroke="#000000" points="265,-162.5 265,-192.5 558,-192.5 558,-162.5 265,-162.5"/>
<text text-anchor="start" x="272" y="-173.9" font-family="Arial" font-size="14.00" fill="#000000">created_at    </text>
<text text-anchor="start" x="372.3422" y="-173.9" font-family="Arial" font-size="14.00" fill="#666666">[datetime]</text>
<polygon fill="none" stroke="#000000" points="265,-132.5 265,-162.5 558,-162.5 558,-132.5 265,-132.5"/>
<text text-anchor="start" x="272" y="-143.9" font-family="Arial" font-size="14.00" fill="#000000">updated_at    </text>
<text text-anchor="start" x="376.2468" y="-143.9" font-family="Arial" font-size="14.00" fill="#666666">[datetime]</text>
<polygon fill="none" stroke="#000000" points="265,-102.5 265,-132.5 558,-132.5 558,-102.5 265,-102.5"/>
<text text-anchor="start" x="271.8738" y="-113.9" font-family="Arial" font-size="14.00" fill="#000000">show_profile_in_public_event    </text>
<text text-anchor="start" x="489.6816" y="-113.9" font-family="Arial" font-size="14.00" fill="#666666">[tinyint(1)]</text>
<polygon fill="none" stroke="#000000" points="265,-72.5 265,-102.5 558,-102.5 558,-72.5 265,-72.5"/>
<text text-anchor="start" x="272" y="-83.9" font-family="Arial" font-size="14.00" fill="#000000">show_profile_in_shared_url    </text>
<text text-anchor="start" x="477.3492" y="-83.9" font-family="Arial" font-size="14.00" fill="#666666">[tinyint(1)]</text>
<polygon fill="none" stroke="#000000" points="265,-42.5 265,-72.5 558,-72.5 558,-42.5 265,-42.5"/>
<text text-anchor="start" x="272" y="-53.9" font-family="Arial" font-size="14.00" fill="#000000">affiliation_id    </text>
<text text-anchor="start" x="380.1052" y="-53.9" font-family="Arial" font-size="14.00" fill="#666666">[int unsigned]</text>
</g>
<!-- Email_change_verification&#45;&gt;User -->
<g id="edge1" class="edge">
<title>Email_change_verification:user_id&#45;&gt;User:id</title>
<path fill="none" stroke="#000000" d="M226.0215,-785.3288C162.9918,-756.3721 192.7246,-447.5 265,-447.5"/>
<polygon fill="#000000" stroke="#000000" points="226.2286,-785.3738 235.0432,-791.8971 231.1143,-786.4369 236,-787.5 236,-787.5 236,-787.5 231.1143,-786.4369 236.9568,-783.1029 226.2286,-785.3738 226.2286,-785.3738"/>
<text text-anchor="start" x="6.615" y="-797.5" font-family="Arial" font-size="10.00" fill="#000000">FOREIGN KEY (user_id) REFERENCES User (id)</text>
</g>
</g>
</svg>
