<?xml version="1.0" encoding="UTF-8" standalone="no"?>
<!DOCTYPE svg PUBLIC "-//W3C//DTD SVG 1.1//EN"
 "http://www.w3.org/Graphics/SVG/1.1/DTD/svg11.dtd">
<!-- Generated by graphviz version 2.40.1 (20161225.0304)
 -->
<!-- Title: Event Pages: 1 -->
<svg width="713pt" height="802pt"
 viewBox="0.00 0.00 712.50 802.00" xmlns="http://www.w3.org/2000/svg" xmlns:xlink="http://www.w3.org/1999/xlink">
<g id="graph0" class="graph" transform="scale(1 1) rotate(0) translate(4 798)">
<title>Event</title>
<polygon fill="#ffffff" stroke="transparent" points="-4,4 -4,-798 708.5,-798 708.5,4 -4,4"/>
<!-- Event -->
<g id="node1" class="node">
<title>Event</title>
<polygon fill="#efefef" stroke="transparent" points="266.5,-405.5 266.5,-440.5 481.5,-440.5 481.5,-405.5 266.5,-405.5"/>
<polygon fill="none" stroke="#000000" points="266.5,-405.5 266.5,-440.5 481.5,-440.5 481.5,-405.5 266.5,-405.5"/>
<text text-anchor="start" x="287.2066" y="-418.3" font-family="Arial Bold" font-size="18.00" fill="#000000">Event</text>
<text text-anchor="start" x="333.2254" y="-418.3" font-family="Arial" font-size="14.00" fill="#000000">    </text>
<text text-anchor="start" x="367.4302" y="-418.3" font-family="Arial" font-size="14.00" fill="#666666">[BASE TABLE]</text>
<polygon fill="none" stroke="#000000" points="266.5,-375.5 266.5,-405.5 481.5,-405.5 481.5,-375.5 266.5,-375.5"/>
<text text-anchor="start" x="273.5" y="-386.9" font-family="Arial" font-size="14.00" fill="#000000">id </text>
<text text-anchor="start" x="288.2798" y="-386.9" font-family="Arial" font-size="14.00" fill="#666666">[int unsigned]</text>
<polygon fill="none" stroke="#000000" points="266.5,-345.5 266.5,-375.5 481.5,-375.5 481.5,-345.5 266.5,-345.5"/>
<text text-anchor="start" x="273.5" y="-356.9" font-family="Arial" font-size="14.00" fill="#000000">name </text>
<text text-anchor="start" x="312.399" y="-356.9" font-family="Arial" font-size="14.00" fill="#666666">[varchar(50)]</text>
<polygon fill="none" stroke="#000000" points="266.5,-315.5 266.5,-345.5 481.5,-345.5 481.5,-315.5 266.5,-315.5"/>
<text text-anchor="start" x="273.5" y="-326.9" font-family="Arial" font-size="14.00" fill="#000000">start_at </text>
<text text-anchor="start" x="324.0708" y="-326.9" font-family="Arial" font-size="14.00" fill="#666666">[datetime]</text>
<polygon fill="none" stroke="#000000" points="266.5,-285.5 266.5,-315.5 481.5,-315.5 481.5,-285.5 266.5,-285.5"/>
<text text-anchor="start" x="273.5" y="-296.9" font-family="Arial" font-size="14.00" fill="#000000">end_at </text>
<text text-anchor="start" x="320.1942" y="-296.9" font-family="Arial" font-size="14.00" fill="#666666">[datetime]</text>
<polygon fill="none" stroke="#000000" points="266.5,-255.5 266.5,-285.5 481.5,-285.5 481.5,-255.5 266.5,-255.5"/>
<text text-anchor="start" x="273.5" y="-266.9" font-family="Arial" font-size="14.00" fill="#000000">icon_url </text>
<text text-anchor="start" x="326.3948" y="-266.9" font-family="Arial" font-size="14.00" fill="#666666">[varchar(255)]</text>
<polygon fill="none" stroke="#000000" points="266.5,-225.5 266.5,-255.5 481.5,-255.5 481.5,-225.5 266.5,-225.5"/>
<text text-anchor="start" x="273.5" y="-236.9" font-family="Arial" font-size="14.00" fill="#000000">description </text>
<text text-anchor="start" x="345.068" y="-236.9" font-family="Arial" font-size="14.00" fill="#666666">[text]</text>
<polygon fill="none" stroke="#000000" points="266.5,-195.5 266.5,-225.5 481.5,-225.5 481.5,-195.5 266.5,-195.5"/>
<text text-anchor="start" x="273.5" y="-206.9" font-family="Arial" font-size="14.00" fill="#000000">created_at </text>
<text text-anchor="start" x="343.528" y="-206.9" font-family="Arial" font-size="14.00" fill="#666666">[datetime]</text>
<polygon fill="none" stroke="#000000" points="266.5,-165.5 266.5,-195.5 481.5,-195.5 481.5,-165.5 266.5,-165.5"/>
<text text-anchor="start" x="273.5" y="-176.9" font-family="Arial" font-size="14.00" fill="#000000">updated_at </text>
<text text-anchor="start" x="347.4326" y="-176.9" font-family="Arial" font-size="14.00" fill="#666666">[datetime]</text>
<polygon fill="none" stroke="#000000" points="266.5,-135.5 266.5,-165.5 481.5,-165.5 481.5,-135.5 266.5,-135.5"/>
<text text-anchor="start" x="273.5" y="-146.9" font-family="Arial" font-size="14.00" fill="#000000">password </text>
<text text-anchor="start" x="337.2882" y="-146.9" font-family="Arial" font-size="14.00" fill="#666666">[varchar(255)]</text>
<polygon fill="none" stroke="#000000" points="266.5,-105.5 266.5,-135.5 481.5,-135.5 481.5,-105.5 266.5,-105.5"/>
<text text-anchor="start" x="273.2686" y="-116.9" font-family="Arial" font-size="14.00" fill="#000000">is_requires_password </text>
<text text-anchor="start" x="413.2868" y="-116.9" font-family="Arial" font-size="14.00" fill="#666666">[tinyint(1)]</text>
<polygon fill="none" stroke="#000000" points="266.5,-75.5 266.5,-105.5 481.5,-105.5 481.5,-75.5 266.5,-75.5"/>
<text text-anchor="start" x="273.5" y="-86.9" font-family="Arial" font-size="14.00" fill="#000000">need_proofreading </text>
<text text-anchor="start" x="394.8828" y="-86.9" font-family="Arial" font-size="14.00" fill="#666666">[tinyint(1)]</text>
<polygon fill="none" stroke="#000000" points="266.5,-45.5 266.5,-75.5 481.5,-75.5 481.5,-45.5 266.5,-45.5"/>
<text text-anchor="start" x="273.5" y="-56.9" font-family="Arial" font-size="14.00" fill="#000000">detail </text>
<text text-anchor="start" x="310.8422" y="-56.9" font-family="Arial" font-size="14.00" fill="#666666">[text]</text>
<polygon fill="none" stroke="#000000" stroke-width="3" points="264.5,-44.5 264.5,-442.5 482.5,-442.5 482.5,-44.5 264.5,-44.5"/>
</g>
<!-- Event_user_authority -->
<g id="node2" class="node">
<title>Event_user_authority</title>
<polygon fill="#efefef" stroke="transparent" points="43.5,-715.5 43.5,-750.5 354.5,-750.5 354.5,-715.5 43.5,-715.5"/>
<polygon fill="none" stroke="#000000" points="43.5,-715.5 43.5,-750.5 354.5,-750.5 354.5,-715.5 43.5,-715.5"/>
<text text-anchor="start" x="50.1903" y="-728.3" font-family="Arial Bold" font-size="18.00" fill="#000000">Event_user_authority</text>
<text text-anchor="start" x="220.2417" y="-728.3" font-family="Arial" font-size="14.00" fill="#000000">    </text>
<text text-anchor="start" x="254.4465" y="-728.3" font-family="Arial" font-size="14.00" fill="#666666">[BASE TABLE]</text>
<polygon fill="none" stroke="#000000" points="43.5,-685.5 43.5,-715.5 354.5,-715.5 354.5,-685.5 43.5,-685.5"/>
<text text-anchor="start" x="50.5" y="-696.9" font-family="Arial" font-size="14.00" fill="#000000">event_id    </text>
<text text-anchor="start" x="137.615" y="-696.9" font-family="Arial" font-size="14.00" fill="#666666">[int unsigned]</text>
<polygon fill="none" stroke="#000000" points="43.5,-655.5 43.5,-685.5 354.5,-685.5 354.5,-655.5 43.5,-655.5"/>
<text text-anchor="start" x="50.5" y="-666.9" font-family="Arial" font-size="14.00" fill="#000000">user_id    </text>
<text text-anchor="start" x="130.6024" y="-666.9" font-family="Arial" font-size="14.00" fill="#666666">[int unsigned]</text>
<polygon fill="none" stroke="#000000" points="43.5,-625.5 43.5,-655.5 354.5,-655.5 354.5,-625.5 43.5,-625.5"/>
<text text-anchor="start" x="50.5" y="-636.9" font-family="Arial" font-size="14.00" fill="#000000">authority_id    </text>
<text text-anchor="start" x="157.0554" y="-636.9" font-family="Arial" font-size="14.00" fill="#666666">[int unsigned]</text>
<polygon fill="none" stroke="#000000" points="43.5,-595.5 43.5,-625.5 354.5,-625.5 354.5,-595.5 43.5,-595.5"/>
<text text-anchor="start" x="50.5" y="-606.9" font-family="Arial" font-size="14.00" fill="#000000">created_at    </text>
<text text-anchor="start" x="150.8422" y="-606.9" font-family="Arial" font-size="14.00" fill="#666666">[datetime]</text>
<polygon fill="none" stroke="#000000" points="43.5,-565.5 43.5,-595.5 354.5,-595.5 354.5,-565.5 43.5,-565.5"/>
<text text-anchor="start" x="50.5" y="-576.9" font-family="Arial" font-size="14.00" fill="#000000">updated_at    </text>
<text text-anchor="start" x="154.7468" y="-576.9" font-family="Arial" font-size="14.00" fill="#666666">[datetime]</text>
</g>
<!-- Event_user_authority&#45;&gt;Event -->
<g id="edge1" class="edge">
<title>Event_user_authority:event_id&#45;&gt;Event:id</title>
<path fill="none" stroke="#000000" d="M364.8544,-699.778C430.0955,-690.102 396.4107,-585.4274 354.5,-523 330.9462,-487.9158 290.0538,-522.0842 266.5,-487 242.5942,-451.3915 223.6111,-390.5 266.5,-390.5"/>
<polygon fill="#000000" stroke="#000000" points="364.4758,-699.8043 354.187,-696.0109 359.4879,-700.1522 354.5,-700.5 354.5,-700.5 354.5,-700.5 359.4879,-700.1522 354.813,-704.9891 364.4758,-699.8043 364.4758,-699.8043"/>
<text text-anchor="start" x="176.881" y="-684.5" font-family="Arial" font-size="10.00" fill="#000000">FOREIGN KEY (event_id) REFERENCES Event (id)</text>
</g>
<!-- Work -->
<g id="node3" class="node">
<title>Work</title>
<polygon fill="#efefef" stroke="transparent" points="458.5,-700.5 458.5,-735.5 642.5,-735.5 642.5,-700.5 458.5,-700.5"/>
<polygon fill="none" stroke="#000000" points="458.5,-700.5 458.5,-735.5 642.5,-735.5 642.5,-700.5 458.5,-700.5"/>
<text text-anchor="start" x="465.7217" y="-713.3" font-family="Arial Bold" font-size="18.00" fill="#000000">Work</text>
<text text-anchor="start" x="507.7103" y="-713.3" font-family="Arial" font-size="14.00" fill="#000000">    </text>
<text text-anchor="start" x="541.9151" y="-713.3" font-family="Arial" font-size="14.00" fill="#666666">[BASE TABLE]</text>
<polygon fill="none" stroke="#000000" points="458.5,-670.5 458.5,-700.5 642.5,-700.5 642.5,-670.5 458.5,-670.5"/>
<text text-anchor="start" x="465.5" y="-681.9" font-family="Arial" font-size="14.00" fill="#000000">id    </text>
<text text-anchor="start" x="510.594" y="-681.9" font-family="Arial" font-size="14.00" fill="#666666">[int unsigned]</text>
<polygon fill="none" stroke="#000000" points="458.5,-640.5 458.5,-670.5 642.5,-670.5 642.5,-640.5 458.5,-640.5"/>
<text text-anchor="start" x="465.3156" y="-651.9" font-family="Arial" font-size="14.00" fill="#000000">event_id    </text>
<text text-anchor="start" x="552.4306" y="-651.9" font-family="Arial" font-size="14.00" fill="#666666">[int unsigned]</text>
<polygon fill="none" stroke="#000000" points="458.5,-610.5 458.5,-640.5 642.5,-640.5 642.5,-610.5 458.5,-610.5"/>
<text text-anchor="start" x="465.5" y="-621.9" font-family="Arial" font-size="14.00" fill="#000000">created_at    </text>
<text text-anchor="start" x="565.8422" y="-621.9" font-family="Arial" font-size="14.00" fill="#666666">[datetime]</text>
<polygon fill="none" stroke="#000000" points="458.5,-580.5 458.5,-610.5 642.5,-610.5 642.5,-580.5 458.5,-580.5"/>
<text text-anchor="start" x="465.5" y="-591.9" font-family="Arial" font-size="14.00" fill="#000000">updated_at    </text>
<text text-anchor="start" x="569.7468" y="-591.9" font-family="Arial" font-size="14.00" fill="#666666">[datetime]</text>
</g>
<!-- Work&#45;&gt;Event -->
<g id="edge2" class="edge">
<title>Work:event_id&#45;&gt;Event:id</title>
<path fill="none" stroke="#000000" d="M448.3663,-654.4354C412.233,-645.7218 448.335,-585.2657 458.5,-538 463.728,-513.6907 476.272,-511.3093 481.5,-487 490.5175,-445.0698 524.3889,-390.5 481.5,-390.5"/>
<polygon fill="#000000" stroke="#000000" points="448.5547,-654.4551 458.0298,-659.9754 453.5274,-654.9776 458.5,-655.5 458.5,-655.5 458.5,-655.5 453.5274,-654.9776 458.9702,-651.0246 448.5547,-654.4551 448.5547,-654.4551"/>
<text text-anchor="start" x="465.381" y="-665.5" font-family="Arial" font-size="10.00" fill="#000000">FOREIGN KEY (event_id) REFERENCES Event (id)</text>
</g>
</g>
</svg>
