<?xml version="1.0" encoding="UTF-8" standalone="no"?>
<!DOCTYPE svg PUBLIC "-//W3C//DTD SVG 1.1//EN"
 "http://www.w3.org/Graphics/SVG/1.1/DTD/svg11.dtd">
<!-- Generated by graphviz version 2.40.1 (20161225.0304)
 -->
<!-- Title: Event_user_authority Pages: 1 -->
<svg width="1053pt" height="862pt"
 viewBox="0.00 0.00 1052.50 862.00" xmlns="http://www.w3.org/2000/svg" xmlns:xlink="http://www.w3.org/1999/xlink">
<g id="graph0" class="graph" transform="scale(1 1) rotate(0) translate(4 858)">
<title>Event_user_authority</title>
<polygon fill="#ffffff" stroke="transparent" points="-4,4 -4,-858 1048.5,-858 1048.5,4 -4,4"/>
<!-- Event_user_authority -->
<g id="node1" class="node">
<title>Event_user_authority</title>
<polygon fill="#efefef" stroke="transparent" points="383.5,-772.5 383.5,-807.5 694.5,-807.5 694.5,-772.5 383.5,-772.5"/>
<polygon fill="none" stroke="#000000" points="383.5,-772.5 383.5,-807.5 694.5,-807.5 694.5,-772.5 383.5,-772.5"/>
<text text-anchor="start" x="390.1903" y="-785.3" font-family="Arial Bold" font-size="18.00" fill="#000000">Event_user_authority</text>
<text text-anchor="start" x="560.2417" y="-785.3" font-family="Arial" font-size="14.00" fill="#000000">    </text>
<text text-anchor="start" x="594.4465" y="-785.3" font-family="Arial" font-size="14.00" fill="#666666">[BASE TABLE]</text>
<polygon fill="none" stroke="#000000" points="383.5,-742.5 383.5,-772.5 694.5,-772.5 694.5,-742.5 383.5,-742.5"/>
<text text-anchor="start" x="390.5" y="-753.9" font-family="Arial" font-size="14.00" fill="#000000">event_id </text>
<text text-anchor="start" x="447.3008" y="-753.9" font-family="Arial" font-size="14.00" fill="#666666">[int unsigned]</text>
<polygon fill="none" stroke="#000000" points="383.5,-712.5 383.5,-742.5 694.5,-742.5 694.5,-712.5 383.5,-712.5"/>
<text text-anchor="start" x="390.5" y="-723.9" font-family="Arial" font-size="14.00" fill="#000000">user_id </text>
<text text-anchor="start" x="440.2882" y="-723.9" font-family="Arial" font-size="14.00" fill="#666666">[int unsigned]</text>
<polygon fill="none" stroke="#000000" points="383.5,-682.5 383.5,-712.5 694.5,-712.5 694.5,-682.5 383.5,-682.5"/>
<text text-anchor="start" x="390.5" y="-693.9" font-family="Arial" font-size="14.00" fill="#000000">authority_id </text>
<text text-anchor="start" x="466.7412" y="-693.9" font-family="Arial" font-size="14.00" fill="#666666">[int unsigned]</text>
<polygon fill="none" stroke="#000000" points="383.5,-652.5 383.5,-682.5 694.5,-682.5 694.5,-652.5 383.5,-652.5"/>
<text text-anchor="start" x="390.5" y="-663.9" font-family="Arial" font-size="14.00" fill="#000000">created_at </text>
<text text-anchor="start" x="460.528" y="-663.9" font-family="Arial" font-size="14.00" fill="#666666">[datetime]</text>
<polygon fill="none" stroke="#000000" points="383.5,-622.5 383.5,-652.5 694.5,-652.5 694.5,-622.5 383.5,-622.5"/>
<text text-anchor="start" x="390.5" y="-633.9" font-family="Arial" font-size="14.00" fill="#000000">updated_at </text>
<text text-anchor="start" x="464.4326" y="-633.9" font-family="Arial" font-size="14.00" fill="#666666">[datetime]</text>
<polygon fill="none" stroke="#000000" stroke-width="3" points="381.5,-621.5 381.5,-809.5 695.5,-809.5 695.5,-621.5 381.5,-621.5"/>
</g>
<!-- Event -->
<g id="node2" class="node">
<title>Event</title>
<polygon fill="#efefef" stroke="transparent" points="43.5,-432.5 43.5,-467.5 288.5,-467.5 288.5,-432.5 43.5,-432.5"/>
<polygon fill="none" stroke="#000000" points="43.5,-432.5 43.5,-467.5 288.5,-467.5 288.5,-432.5 43.5,-432.5"/>
<text text-anchor="start" x="79.2066" y="-445.3" font-family="Arial Bold" font-size="18.00" fill="#000000">Event</text>
<text text-anchor="start" x="125.2254" y="-445.3" font-family="Arial" font-size="14.00" fill="#000000">    </text>
<text text-anchor="start" x="159.4302" y="-445.3" font-family="Arial" font-size="14.00" fill="#666666">[BASE TABLE]</text>
<polygon fill="none" stroke="#000000" points="43.5,-402.5 43.5,-432.5 288.5,-432.5 288.5,-402.5 43.5,-402.5"/>
<text text-anchor="start" x="50.5" y="-413.9" font-family="Arial" font-size="14.00" fill="#000000">id    </text>
<text text-anchor="start" x="95.594" y="-413.9" font-family="Arial" font-size="14.00" fill="#666666">[int unsigned]</text>
<polygon fill="none" stroke="#000000" points="43.5,-372.5 43.5,-402.5 288.5,-402.5 288.5,-372.5 43.5,-372.5"/>
<text text-anchor="start" x="50.5" y="-383.9" font-family="Arial" font-size="14.00" fill="#000000">name    </text>
<text text-anchor="start" x="119.7132" y="-383.9" font-family="Arial" font-size="14.00" fill="#666666">[varchar(50)]</text>
<polygon fill="none" stroke="#000000" points="43.5,-342.5 43.5,-372.5 288.5,-372.5 288.5,-342.5 43.5,-342.5"/>
<text text-anchor="start" x="50.5" y="-353.9" font-family="Arial" font-size="14.00" fill="#000000">start_at    </text>
<text text-anchor="start" x="131.385" y="-353.9" font-family="Arial" font-size="14.00" fill="#666666">[datetime]</text>
<polygon fill="none" stroke="#000000" points="43.5,-312.5 43.5,-342.5 288.5,-342.5 288.5,-312.5 43.5,-312.5"/>
<text text-anchor="start" x="50.5" y="-323.9" font-family="Arial" font-size="14.00" fill="#000000">end_at    </text>
<text text-anchor="start" x="127.5084" y="-323.9" font-family="Arial" font-size="14.00" fill="#666666">[datetime]</text>
<polygon fill="none" stroke="#000000" points="43.5,-282.5 43.5,-312.5 288.5,-312.5 288.5,-282.5 43.5,-282.5"/>
<text text-anchor="start" x="50.5" y="-293.9" font-family="Arial" font-size="14.00" fill="#000000">icon_url    </text>
<text text-anchor="start" x="133.709" y="-293.9" font-family="Arial" font-size="14.00" fill="#666666">[varchar(255)]</text>
<polygon fill="none" stroke="#000000" points="43.5,-252.5 43.5,-282.5 288.5,-282.5 288.5,-252.5 43.5,-252.5"/>
<text text-anchor="start" x="50.5" y="-263.9" font-family="Arial" font-size="14.00" fill="#000000">description    </text>
<text text-anchor="start" x="152.3822" y="-263.9" font-family="Arial" font-size="14.00" fill="#666666">[text]</text>
<polygon fill="none" stroke="#000000" points="43.5,-222.5 43.5,-252.5 288.5,-252.5 288.5,-222.5 43.5,-222.5"/>
<text text-anchor="start" x="50.5" y="-233.9" font-family="Arial" font-size="14.00" fill="#000000">created_at    </text>
<text text-anchor="start" x="150.8422" y="-233.9" font-family="Arial" font-size="14.00" fill="#666666">[datetime]</text>
<polygon fill="none" stroke="#000000" points="43.5,-192.5 43.5,-222.5 288.5,-222.5 288.5,-192.5 43.5,-192.5"/>
<text text-anchor="start" x="50.5" y="-203.9" font-family="Arial" font-size="14.00" fill="#000000">updated_at    </text>
<text text-anchor="start" x="154.7468" y="-203.9" font-family="Arial" font-size="14.00" fill="#666666">[datetime]</text>
<polygon fill="none" stroke="#000000" points="43.5,-162.5 43.5,-192.5 288.5,-192.5 288.5,-162.5 43.5,-162.5"/>
<text text-anchor="start" x="50.5" y="-173.9" font-family="Arial" font-size="14.00" fill="#000000">password    </text>
<text text-anchor="start" x="144.6024" y="-173.9" font-family="Arial" font-size="14.00" fill="#666666">[varchar(255)]</text>
<polygon fill="none" stroke="#000000" points="43.5,-132.5 43.5,-162.5 288.5,-162.5 288.5,-132.5 43.5,-132.5"/>
<text text-anchor="start" x="50.1115" y="-143.9" font-family="Arial" font-size="14.00" fill="#000000">is_requires_password    </text>
<text text-anchor="start" x="220.4439" y="-143.9" font-family="Arial" font-size="14.00" fill="#666666">[tinyint(1)]</text>
<polygon fill="none" stroke="#000000" points="43.5,-102.5 43.5,-132.5 288.5,-132.5 288.5,-102.5 43.5,-102.5"/>
<text text-anchor="start" x="50.5" y="-113.9" font-family="Arial" font-size="14.00" fill="#000000">need_proofreading    </text>
<text text-anchor="start" x="202.197" y="-113.9" font-family="Arial" font-size="14.00" fill="#666666">[tinyint(1)]</text>
<polygon fill="none" stroke="#000000" points="43.5,-72.5 43.5,-102.5 288.5,-102.5 288.5,-72.5 43.5,-72.5"/>
<text text-anchor="start" x="50.5" y="-83.9" font-family="Arial" font-size="14.00" fill="#000000">detail    </text>
<text text-anchor="start" x="118.1564" y="-83.9" font-family="Arial" font-size="14.00" fill="#666666">[text]</text>
</g>
<!-- Event_user_authority&#45;&gt;Event -->
<g id="edge1" class="edge">
<title>Event_user_authority:event_id&#45;&gt;Event:id</title>
<path fill="none" stroke="#000000" d="M373.3643,-755.3288C310.5452,-726.3721 363.2722,-417.5 288.5,-417.5"/>
<polygon fill="#000000" stroke="#000000" points="373.7218,-755.4053 382.5574,-761.9002 378.6109,-756.4527 383.5,-757.5 383.5,-757.5 383.5,-757.5 378.6109,-756.4527 384.4426,-753.0998 373.7218,-755.4053 373.7218,-755.4053"/>
<text text-anchor="start" x="144.381" y="-767.5" font-family="Arial" font-size="10.00" fill="#000000">FOREIGN KEY (event_id) REFERENCES Event (id)</text>
</g>
<!-- User -->
<g id="node3" class="node">
<title>User</title>
<polygon fill="#efefef" stroke="transparent" points="392.5,-462.5 392.5,-497.5 685.5,-497.5 685.5,-462.5 392.5,-462.5"/>
<polygon fill="none" stroke="#000000" points="392.5,-462.5 392.5,-497.5 685.5,-497.5 685.5,-462.5 392.5,-462.5"/>
<text text-anchor="start" x="456.2197" y="-475.3" font-family="Arial Bold" font-size="18.00" fill="#000000">User</text>
<text text-anchor="start" x="494.2123" y="-475.3" font-family="Arial" font-size="14.00" fill="#000000">    </text>
<text text-anchor="start" x="528.4171" y="-475.3" font-family="Arial" font-size="14.00" fill="#666666">[BASE TABLE]</text>
<polygon fill="none" stroke="#000000" points="392.5,-432.5 392.5,-462.5 685.5,-462.5 685.5,-432.5 392.5,-432.5"/>
<text text-anchor="start" x="399.5" y="-443.9" font-family="Arial" font-size="14.00" fill="#000000">id    </text>
<text text-anchor="start" x="444.594" y="-443.9" font-family="Arial" font-size="14.00" fill="#666666">[int unsigned]</text>
<polygon fill="none" stroke="#000000" points="392.5,-402.5 392.5,-432.5 685.5,-432.5 685.5,-402.5 392.5,-402.5"/>
<text text-anchor="start" x="399.5" y="-413.9" font-family="Arial" font-size="14.00" fill="#000000">email    </text>
<text text-anchor="start" x="467.1438" y="-413.9" font-family="Arial" font-size="14.00" fill="#666666">[varchar(255)]</text>
<polygon fill="none" stroke="#000000" points="392.5,-372.5 392.5,-402.5 685.5,-402.5 685.5,-372.5 392.5,-372.5"/>
<text text-anchor="start" x="399.5" y="-383.9" font-family="Arial" font-size="14.00" fill="#000000">password    </text>
<text text-anchor="start" x="493.6024" y="-383.9" font-family="Arial" font-size="14.00" fill="#666666">[varchar(255)]</text>
<polygon fill="none" stroke="#000000" points="392.5,-342.5 392.5,-372.5 685.5,-372.5 685.5,-342.5 392.5,-342.5"/>
<text text-anchor="start" x="399.5" y="-353.9" font-family="Arial" font-size="14.00" fill="#000000">username    </text>
<text text-anchor="start" x="495.939" y="-353.9" font-family="Arial" font-size="14.00" fill="#666666">[varchar(50)]</text>
<polygon fill="none" stroke="#000000" points="392.5,-312.5 392.5,-342.5 685.5,-342.5 685.5,-312.5 392.5,-312.5"/>
<text text-anchor="start" x="399.5" y="-323.9" font-family="Arial" font-size="14.00" fill="#000000">enrollment_year    </text>
<text text-anchor="start" x="534.0512" y="-323.9" font-family="Arial" font-size="14.00" fill="#666666">[int]</text>
<polygon fill="none" stroke="#000000" points="392.5,-282.5 392.5,-312.5 685.5,-312.5 685.5,-282.5 392.5,-282.5"/>
<text text-anchor="start" x="399.5" y="-293.9" font-family="Arial" font-size="14.00" fill="#000000">graduation_year    </text>
<text text-anchor="start" x="534.8492" y="-293.9" font-family="Arial" font-size="14.00" fill="#666666">[int]</text>
<polygon fill="none" stroke="#000000" points="392.5,-252.5 392.5,-282.5 685.5,-282.5 685.5,-252.5 392.5,-252.5"/>
<text text-anchor="start" x="399.5" y="-263.9" font-family="Arial" font-size="14.00" fill="#000000">is_job_hunt_completed    </text>
<text text-anchor="start" x="577.6402" y="-263.9" font-family="Arial" font-size="14.00" fill="#666666">[tinyint(1)]</text>
<polygon fill="none" stroke="#000000" points="392.5,-222.5 392.5,-252.5 685.5,-252.5 685.5,-222.5 392.5,-222.5"/>
<text text-anchor="start" x="399.5" y="-233.9" font-family="Arial" font-size="14.00" fill="#000000">self_introduction    </text>
<text text-anchor="start" x="535.6178" y="-233.9" font-family="Arial" font-size="14.00" fill="#666666">[text]</text>
<polygon fill="none" stroke="#000000" points="392.5,-192.5 392.5,-222.5 685.5,-222.5 685.5,-192.5 392.5,-192.5"/>
<text text-anchor="start" x="399.5" y="-203.9" font-family="Arial" font-size="14.00" fill="#000000">icon_url    </text>
<text text-anchor="start" x="482.709" y="-203.9" font-family="Arial" font-size="14.00" fill="#666666">[varchar(255)]</text>
<polygon fill="none" stroke="#000000" points="392.5,-162.5 392.5,-192.5 685.5,-192.5 685.5,-162.5 392.5,-162.5"/>
<text text-anchor="start" x="399.5" y="-173.9" font-family="Arial" font-size="14.00" fill="#000000">created_at    </text>
<text text-anchor="start" x="499.8422" y="-173.9" font-family="Arial" font-size="14.00" fill="#666666">[datetime]</text>
<polygon fill="none" stroke="#000000" points="392.5,-132.5 392.5,-162.5 685.5,-162.5 685.5,-132.5 392.5,-132.5"/>
<text text-anchor="start" x="399.5" y="-143.9" font-family="Arial" font-size="14.00" fill="#000000">updated_at    </text>
<text text-anchor="start" x="503.7468" y="-143.9" font-family="Arial" font-size="14.00" fill="#666666">[datetime]</text>
<polygon fill="none" stroke="#000000" points="392.5,-102.5 392.5,-132.5 685.5,-132.5 685.5,-102.5 392.5,-102.5"/>
<text text-anchor="start" x="399.3738" y="-113.9" font-family="Arial" font-size="14.00" fill="#000000">show_profile_in_public_event    </text>
<text text-anchor="start" x="617.1816" y="-113.9" font-family="Arial" font-size="14.00" fill="#666666">[tinyint(1)]</text>
<polygon fill="none" stroke="#000000" points="392.5,-72.5 392.5,-102.5 685.5,-102.5 685.5,-72.5 392.5,-72.5"/>
<text text-anchor="start" x="399.5" y="-83.9" font-family="Arial" font-size="14.00" fill="#000000">show_profile_in_shared_url    </text>
<text text-anchor="start" x="604.8492" y="-83.9" font-family="Arial" font-size="14.00" fill="#666666">[tinyint(1)]</text>
<polygon fill="none" stroke="#000000" points="392.5,-42.5 392.5,-72.5 685.5,-72.5 685.5,-42.5 392.5,-42.5"/>
<text text-anchor="start" x="399.5" y="-53.9" font-family="Arial" font-size="14.00" fill="#000000">affiliation_id    </text>
<text text-anchor="start" x="507.6052" y="-53.9" font-family="Arial" font-size="14.00" fill="#666666">[int unsigned]</text>
</g>
<!-- Event_user_authority&#45;&gt;User -->
<g id="edge2" class="edge">
<title>Event_user_authority:user_id&#45;&gt;User:id</title>
<path fill="none" stroke="#000000" d="M373.6041,-724.9069C322.436,-696.6795 333.7718,-447.5 392.5,-447.5"/>
<polygon fill="#000000" stroke="#000000" points="373.8266,-724.9651 382.3593,-731.853 378.6633,-726.2326 383.5,-727.5 383.5,-727.5 383.5,-727.5 378.6633,-726.2326 384.6407,-723.147 373.8266,-724.9651 373.8266,-724.9651"/>
<text text-anchor="start" x="154.115" y="-737.5" font-family="Arial" font-size="10.00" fill="#000000">FOREIGN KEY (user_id) REFERENCES User (id)</text>
</g>
<!-- Authority -->
<g id="node4" class="node">
<title>Authority</title>
<polygon fill="#efefef" stroke="transparent" points="789.5,-312.5 789.5,-347.5 1001.5,-347.5 1001.5,-312.5 789.5,-312.5"/>
<polygon fill="none" stroke="#000000" points="789.5,-312.5 789.5,-347.5 1001.5,-347.5 1001.5,-312.5 789.5,-312.5"/>
<text text-anchor="start" x="796.2092" y="-325.3" font-family="Arial Bold" font-size="18.00" fill="#000000">Authority</text>
<text text-anchor="start" x="867.2228" y="-325.3" font-family="Arial" font-size="14.00" fill="#000000">    </text>
<text text-anchor="start" x="901.4276" y="-325.3" font-family="Arial" font-size="14.00" fill="#666666">[BASE TABLE]</text>
<polygon fill="none" stroke="#000000" points="789.5,-282.5 789.5,-312.5 1001.5,-312.5 1001.5,-282.5 789.5,-282.5"/>
<text text-anchor="start" x="796.5" y="-293.9" font-family="Arial" font-size="14.00" fill="#000000">id    </text>
<text text-anchor="start" x="841.594" y="-293.9" font-family="Arial" font-size="14.00" fill="#666666">[int unsigned]</text>
<polygon fill="none" stroke="#000000" points="789.5,-252.5 789.5,-282.5 1001.5,-282.5 1001.5,-252.5 789.5,-252.5"/>
<text text-anchor="start" x="796.5" y="-263.9" font-family="Arial" font-size="14.00" fill="#000000">name    </text>
<text text-anchor="start" x="865.7132" y="-263.9" font-family="Arial" font-size="14.00" fill="#666666">[varchar(30)]</text>
<polygon fill="none" stroke="#000000" points="789.5,-222.5 789.5,-252.5 1001.5,-252.5 1001.5,-222.5 789.5,-222.5"/>
<text text-anchor="start" x="796.5" y="-233.9" font-family="Arial" font-size="14.00" fill="#000000">created_at    </text>
<text text-anchor="start" x="896.8422" y="-233.9" font-family="Arial" font-size="14.00" fill="#666666">[datetime]</text>
<polygon fill="none" stroke="#000000" points="789.5,-192.5 789.5,-222.5 1001.5,-222.5 1001.5,-192.5 789.5,-192.5"/>
<text text-anchor="start" x="796.5" y="-203.9" font-family="Arial" font-size="14.00" fill="#000000">updated_at    </text>
<text text-anchor="start" x="900.7468" y="-203.9" font-family="Arial" font-size="14.00" fill="#666666">[datetime]</text>
</g>
<!-- Event_user_authority&#45;&gt;Authority -->
<g id="edge3" class="edge">
<title>Event_user_authority:authority_id&#45;&gt;Authority:id</title>
<path fill="none" stroke="#000000" d="M704.408,-695.7166C779.2814,-666.8604 701.7074,-297.5 789.5,-297.5"/>
<polygon fill="#000000" stroke="#000000" points="704.3418,-695.7285 693.7028,-693.0712 699.4209,-696.6142 694.5,-697.5 694.5,-697.5 694.5,-697.5 699.4209,-696.6142 695.2972,-701.9288 704.3418,-695.7285 704.3418,-695.7285"/>
<text text-anchor="start" x="701.495" y="-707.5" font-family="Arial" font-size="10.00" fill="#000000">FOREIGN KEY (authority_id) REFERENCES Authority (id)</text>
</g>
</g>
</svg>
