<?xml version="1.0" encoding="UTF-8" standalone="no"?>
<!DOCTYPE svg PUBLIC "-//W3C//DTD SVG 1.1//EN"
 "http://www.w3.org/Graphics/SVG/1.1/DTD/svg11.dtd">
<!-- Generated by graphviz version 2.40.1 (20161225.0304)
 -->
<!-- Title: Genre Pages: 1 -->
<svg width="584pt" height="532pt"
 viewBox="0.00 0.00 584.00 532.00" xmlns="http://www.w3.org/2000/svg" xmlns:xlink="http://www.w3.org/1999/xlink">
<g id="graph0" class="graph" transform="scale(1 1) rotate(0) translate(4 528)">
<title>Genre</title>
<polygon fill="#ffffff" stroke="transparent" points="-4,4 -4,-528 580,-528 580,4 -4,4"/>
<!-- Genre -->
<g id="node1" class="node">
<title>Genre</title>
<polygon fill="#efefef" stroke="transparent" points="295,-165.5 295,-200.5 486,-200.5 486,-165.5 295,-165.5"/>
<polygon fill="none" stroke="#000000" points="295,-165.5 295,-200.5 486,-200.5 486,-165.5 295,-165.5"/>
<text text-anchor="start" x="301.7095" y="-178.3" font-family="Arial Bold" font-size="18.00" fill="#000000">Genre</text>
<text text-anchor="start" x="351.7225" y="-178.3" font-family="Arial" font-size="14.00" fill="#000000">    </text>
<text text-anchor="start" x="385.9273" y="-178.3" font-family="Arial" font-size="14.00" fill="#666666">[BASE TABLE]</text>
<polygon fill="none" stroke="#000000" points="295,-135.5 295,-165.5 486,-165.5 486,-135.5 295,-135.5"/>
<text text-anchor="start" x="302" y="-146.9" font-family="Arial" font-size="14.00" fill="#000000">id </text>
<text text-anchor="start" x="316.7798" y="-146.9" font-family="Arial" font-size="14.00" fill="#666666">[int unsigned]</text>
<polygon fill="none" stroke="#000000" points="295,-105.5 295,-135.5 486,-135.5 486,-105.5 295,-105.5"/>
<text text-anchor="start" x="302" y="-116.9" font-family="Arial" font-size="14.00" fill="#000000">name </text>
<text text-anchor="start" x="340.899" y="-116.9" font-family="Arial" font-size="14.00" fill="#666666">[varchar(30)]</text>
<polygon fill="none" stroke="#000000" points="295,-75.5 295,-105.5 486,-105.5 486,-75.5 295,-75.5"/>
<text text-anchor="start" x="302" y="-86.9" font-family="Arial" font-size="14.00" fill="#000000">created_at </text>
<text text-anchor="start" x="372.028" y="-86.9" font-family="Arial" font-size="14.00" fill="#666666">[datetime]</text>
<polygon fill="none" stroke="#000000" points="295,-45.5 295,-75.5 486,-75.5 486,-45.5 295,-45.5"/>
<text text-anchor="start" x="302" y="-56.9" font-family="Arial" font-size="14.00" fill="#000000">updated_at </text>
<text text-anchor="start" x="375.9326" y="-56.9" font-family="Arial" font-size="14.00" fill="#666666">[datetime]</text>
<polygon fill="none" stroke="#000000" stroke-width="3" points="293,-44.5 293,-202.5 487,-202.5 487,-44.5 293,-44.5"/>
</g>
<!-- Work_data_genre -->
<g id="node2" class="node">
<title>Work_data_genre</title>
<polygon fill="#efefef" stroke="transparent" points="249,-445.5 249,-480.5 533,-480.5 533,-445.5 249,-445.5"/>
<polygon fill="none" stroke="#000000" points="249,-445.5 249,-480.5 533,-480.5 533,-445.5 249,-445.5"/>
<text text-anchor="start" x="255.6966" y="-458.3" font-family="Arial Bold" font-size="18.00" fill="#000000">Work_data_genre</text>
<text text-anchor="start" x="398.7354" y="-458.3" font-family="Arial" font-size="14.00" fill="#000000">    </text>
<text text-anchor="start" x="432.9402" y="-458.3" font-family="Arial" font-size="14.00" fill="#666666">[BASE TABLE]</text>
<polygon fill="none" stroke="#000000" points="249,-415.5 249,-445.5 533,-445.5 533,-415.5 249,-415.5"/>
<text text-anchor="start" x="256" y="-426.9" font-family="Arial" font-size="14.00" fill="#000000">work_data_id    </text>
<text text-anchor="start" x="373.4474" y="-426.9" font-family="Arial" font-size="14.00" fill="#666666">[int unsigned]</text>
<polygon fill="none" stroke="#000000" points="249,-385.5 249,-415.5 533,-415.5 533,-385.5 249,-385.5"/>
<text text-anchor="start" x="256" y="-396.9" font-family="Arial" font-size="14.00" fill="#000000">genre_id    </text>
<text text-anchor="start" x="344.6676" y="-396.9" font-family="Arial" font-size="14.00" fill="#666666">[int unsigned]</text>
<polygon fill="none" stroke="#000000" points="249,-355.5 249,-385.5 533,-385.5 533,-355.5 249,-355.5"/>
<text text-anchor="start" x="256" y="-366.9" font-family="Arial" font-size="14.00" fill="#000000">created_at    </text>
<text text-anchor="start" x="356.3422" y="-366.9" font-family="Arial" font-size="14.00" fill="#666666">[datetime]</text>
<polygon fill="none" stroke="#000000" points="249,-325.5 249,-355.5 533,-355.5 533,-325.5 249,-325.5"/>
<text text-anchor="start" x="256" y="-336.9" font-family="Arial" font-size="14.00" fill="#000000">updated_at    </text>
<text text-anchor="start" x="360.2468" y="-336.9" font-family="Arial" font-size="14.00" fill="#666666">[datetime]</text>
</g>
<!-- Work_data_genre&#45;&gt;Genre -->
<g id="edge1" class="edge">
<title>Work_data_genre:genre_id&#45;&gt;Genre:id</title>
<path fill="none" stroke="#000000" d="M239.0096,-399.385C199.4129,-389.735 217.3523,-319.8179 249,-283 318.4494,-202.2047 416.5506,-327.7953 486,-247 513.9572,-214.4754 528.8889,-150.5 486,-150.5"/>
<polygon fill="#000000" stroke="#000000" points="239.0617,-399.3908 248.5008,-404.9722 244.0308,-399.9454 249,-400.5 249,-400.5 249,-400.5 244.0308,-399.9454 249.4992,-396.0278 239.0617,-399.3908 239.0617,-399.3908"/>
<text text-anchor="start" x="7.217" y="-410.5" font-family="Arial" font-size="10.00" fill="#000000">FOREIGN KEY (genre_id) REFERENCES Genre (id)</text>
</g>
</g>
</svg>
