<?xml version="1.0" encoding="UTF-8" standalone="no"?>
<!DOCTYPE svg PUBLIC "-//W3C//DTD SVG 1.1//EN"
 "http://www.w3.org/Graphics/SVG/1.1/DTD/svg11.dtd">
<!-- Generated by graphviz version 2.40.1 (20161225.0304)
 -->
<!-- Title: Job Pages: 1 -->
<svg width="490pt" height="532pt"
 viewBox="0.00 0.00 489.50 532.00" xmlns="http://www.w3.org/2000/svg" xmlns:xlink="http://www.w3.org/1999/xlink">
<g id="graph0" class="graph" transform="scale(1 1) rotate(0) translate(4 528)">
<title>Job</title>
<polygon fill="#ffffff" stroke="transparent" points="-4,4 -4,-528 485.5,-528 485.5,4 -4,4"/>
<!-- Job -->
<g id="node1" class="node">
<title>Job</title>
<polygon fill="#efefef" stroke="transparent" points="65.5,-165.5 65.5,-200.5 235.5,-200.5 235.5,-165.5 65.5,-165.5"/>
<polygon fill="none" stroke="#000000" points="65.5,-165.5 65.5,-200.5 235.5,-200.5 235.5,-165.5 65.5,-165.5"/>
<text text-anchor="start" x="72.2098" y="-178.3" font-family="Arial Bold" font-size="18.00" fill="#000000">Job</text>
<text text-anchor="start" x="101.2222" y="-178.3" font-family="Arial" font-size="14.00" fill="#000000">    </text>
<text text-anchor="start" x="135.427" y="-178.3" font-family="Arial" font-size="14.00" fill="#666666">[BASE TABLE]</text>
<polygon fill="none" stroke="#000000" points="65.5,-135.5 65.5,-165.5 235.5,-165.5 235.5,-135.5 65.5,-135.5"/>
<text text-anchor="start" x="72.5" y="-146.9" font-family="Arial" font-size="14.00" fill="#000000">id </text>
<text text-anchor="start" x="87.2798" y="-146.9" font-family="Arial" font-size="14.00" fill="#666666">[int unsigned]</text>
<polygon fill="none" stroke="#000000" points="65.5,-105.5 65.5,-135.5 235.5,-135.5 235.5,-105.5 65.5,-105.5"/>
<text text-anchor="start" x="72.5" y="-116.9" font-family="Arial" font-size="14.00" fill="#000000">name </text>
<text text-anchor="start" x="111.399" y="-116.9" font-family="Arial" font-size="14.00" fill="#666666">[varchar(30)]</text>
<polygon fill="none" stroke="#000000" points="65.5,-75.5 65.5,-105.5 235.5,-105.5 235.5,-75.5 65.5,-75.5"/>
<text text-anchor="start" x="72.5" y="-86.9" font-family="Arial" font-size="14.00" fill="#000000">created_at </text>
<text text-anchor="start" x="142.528" y="-86.9" font-family="Arial" font-size="14.00" fill="#666666">[datetime]</text>
<polygon fill="none" stroke="#000000" points="65.5,-45.5 65.5,-75.5 235.5,-75.5 235.5,-45.5 65.5,-45.5"/>
<text text-anchor="start" x="72.5" y="-56.9" font-family="Arial" font-size="14.00" fill="#000000">updated_at </text>
<text text-anchor="start" x="146.4326" y="-56.9" font-family="Arial" font-size="14.00" fill="#666666">[datetime]</text>
<polygon fill="none" stroke="#000000" stroke-width="3" points="64,-44.5 64,-202.5 237,-202.5 237,-44.5 64,-44.5"/>
</g>
<!-- User_job -->
<g id="node2" class="node">
<title>User_job</title>
<polygon fill="#efefef" stroke="transparent" points="43.5,-445.5 43.5,-480.5 256.5,-480.5 256.5,-445.5 43.5,-445.5"/>
<polygon fill="none" stroke="#000000" points="43.5,-445.5 43.5,-480.5 256.5,-480.5 256.5,-445.5 43.5,-445.5"/>
<text text-anchor="start" x="50.2133" y="-458.3" font-family="Arial Bold" font-size="18.00" fill="#000000">User_job</text>
<text text-anchor="start" x="122.2187" y="-458.3" font-family="Arial" font-size="14.00" fill="#000000">    </text>
<text text-anchor="start" x="156.4235" y="-458.3" font-family="Arial" font-size="14.00" fill="#666666">[BASE TABLE]</text>
<polygon fill="none" stroke="#000000" points="43.5,-415.5 43.5,-445.5 256.5,-445.5 256.5,-415.5 43.5,-415.5"/>
<text text-anchor="start" x="50.5" y="-426.9" font-family="Arial" font-size="14.00" fill="#000000">user_id    </text>
<text text-anchor="start" x="130.6024" y="-426.9" font-family="Arial" font-size="14.00" fill="#666666">[int unsigned]</text>
<polygon fill="none" stroke="#000000" points="43.5,-385.5 43.5,-415.5 256.5,-415.5 256.5,-385.5 43.5,-385.5"/>
<text text-anchor="start" x="50.5" y="-396.9" font-family="Arial" font-size="14.00" fill="#000000">job_id    </text>
<text text-anchor="start" x="122.0484" y="-396.9" font-family="Arial" font-size="14.00" fill="#666666">[int unsigned]</text>
<polygon fill="none" stroke="#000000" points="43.5,-355.5 43.5,-385.5 256.5,-385.5 256.5,-355.5 43.5,-355.5"/>
<text text-anchor="start" x="50.5" y="-366.9" font-family="Arial" font-size="14.00" fill="#000000">created_at    </text>
<text text-anchor="start" x="150.8422" y="-366.9" font-family="Arial" font-size="14.00" fill="#666666">[datetime]</text>
<polygon fill="none" stroke="#000000" points="43.5,-325.5 43.5,-355.5 256.5,-355.5 256.5,-325.5 43.5,-325.5"/>
<text text-anchor="start" x="50.5" y="-336.9" font-family="Arial" font-size="14.00" fill="#000000">updated_at    </text>
<text text-anchor="start" x="154.7468" y="-336.9" font-family="Arial" font-size="14.00" fill="#666666">[datetime]</text>
</g>
<!-- User_job&#45;&gt;Job -->
<g id="edge1" class="edge">
<title>User_job:job_id&#45;&gt;Job:id</title>
<path fill="none" stroke="#000000" d="M266.4806,-399.3933C305.9944,-389.8133 287.4883,-320.3746 256.5,-283 201.3639,-216.5009 120.6361,-313.4991 65.5,-247 38.1253,-213.9836 22.6111,-150.5 65.5,-150.5"/>
<polygon fill="#000000" stroke="#000000" points="266.4391,-399.3978 256.004,-396.0274 261.4695,-399.9489 256.5,-400.5 256.5,-400.5 256.5,-400.5 261.4695,-399.9489 256.996,-404.9726 266.4391,-399.3978 266.4391,-399.3978"/>
<text text-anchor="start" x="263.6645" y="-410.5" font-family="Arial" font-size="10.00" fill="#000000">FOREIGN KEY (job_id) REFERENCES Job (id)</text>
</g>
</g>
</svg>
