<?xml version="1.0" encoding="UTF-8" standalone="no"?>
<!DOCTYPE svg PUBLIC "-//W3C//DTD SVG 1.1//EN"
 "http://www.w3.org/Graphics/SVG/1.1/DTD/svg11.dtd">
<!-- Generated by graphviz version 2.40.1 (20161225.0304)
 -->
<!-- Title: Password_reset_verification Pages: 1 -->
<svg width="656pt" height="922pt"
 viewBox="0.00 0.00 656.00 922.00" xmlns="http://www.w3.org/2000/svg" xmlns:xlink="http://www.w3.org/1999/xlink">
<g id="graph0" class="graph" transform="scale(1 1) rotate(0) translate(4 918)">
<title>Password_reset_verification</title>
<polygon fill="#ffffff" stroke="transparent" points="-4,4 -4,-918 652,-918 652,4 -4,4"/>
<!-- Password_reset_verification -->
<g id="node1" class="node">
<title>Password_reset_verification</title>
<polygon fill="#efefef" stroke="transparent" points="236,-832.5 236,-867.5 602,-867.5 602,-832.5 236,-832.5"/>
<polygon fill="none" stroke="#000000" points="236,-832.5 236,-867.5 602,-867.5 602,-832.5 236,-832.5"/>
<text text-anchor="start" x="242.6998" y="-845.3" font-family="Arial Bold" font-size="18.00" fill="#000000">Password_reset_verification</text>
<text text-anchor="start" x="467.7322" y="-845.3" font-family="Arial" font-size="14.00" fill="#000000">    </text>
<text text-anchor="start" x="501.937" y="-845.3" font-family="Arial" font-size="14.00" fill="#666666">[BASE TABLE]</text>
<polygon fill="none" stroke="#000000" points="236,-802.5 236,-832.5 602,-832.5 602,-802.5 236,-802.5"/>
<text text-anchor="start" x="243" y="-813.9" font-family="Arial" font-size="14.00" fill="#000000">id </text>
<text text-anchor="start" x="257.7798" y="-813.9" font-family="Arial" font-size="14.00" fill="#666666">[int unsigned]</text>
<polygon fill="none" stroke="#000000" points="236,-772.5 236,-802.5 602,-802.5 602,-772.5 236,-772.5"/>
<text text-anchor="start" x="243" y="-783.9" font-family="Arial" font-size="14.00" fill="#000000">user_id </text>
<text text-anchor="start" x="292.7882" y="-783.9" font-family="Arial" font-size="14.00" fill="#666666">[int unsigned]</text>
<polygon fill="none" stroke="#000000" points="236,-742.5 236,-772.5 602,-772.5 602,-742.5 236,-742.5"/>
<text text-anchor="start" x="243" y="-753.9" font-family="Arial" font-size="14.00" fill="#000000">email </text>
<text text-anchor="start" x="280.3296" y="-753.9" font-family="Arial" font-size="14.00" fill="#666666">[varchar(255)]</text>
<polygon fill="none" stroke="#000000" points="236,-712.5 236,-742.5 602,-742.5 602,-712.5 236,-712.5"/>
<text text-anchor="start" x="243" y="-723.9" font-family="Arial" font-size="14.00" fill="#000000">token </text>
<text text-anchor="start" x="281.129" y="-723.9" font-family="Arial" font-size="14.00" fill="#666666">[varchar(255)]</text>
<polygon fill="none" stroke="#000000" points="236,-682.5 236,-712.5 602,-712.5 602,-682.5 236,-682.5"/>
<text text-anchor="start" x="243" y="-693.9" font-family="Arial" font-size="14.00" fill="#000000">expired_at </text>
<text text-anchor="start" x="312.244" y="-693.9" font-family="Arial" font-size="14.00" fill="#666666">[datetime]</text>
<polygon fill="none" stroke="#000000" points="236,-652.5 236,-682.5 602,-682.5 602,-652.5 236,-652.5"/>
<text text-anchor="start" x="243" y="-663.9" font-family="Arial" font-size="14.00" fill="#000000">created_at </text>
<text text-anchor="start" x="313.028" y="-663.9" font-family="Arial" font-size="14.00" fill="#666666">[datetime]</text>
<polygon fill="none" stroke="#000000" points="236,-622.5 236,-652.5 602,-652.5 602,-622.5 236,-622.5"/>
<text text-anchor="start" x="243" y="-633.9" font-family="Arial" font-size="14.00" fill="#000000">updated_at </text>
<text text-anchor="start" x="316.9326" y="-633.9" font-family="Arial" font-size="14.00" fill="#666666">[datetime]</text>
<polygon fill="none" stroke="#000000" stroke-width="3" points="234.5,-621.5 234.5,-869.5 603.5,-869.5 603.5,-621.5 234.5,-621.5"/>
</g>
<!-- User -->
<g id="node2" class="node">
<title>User</title>
<polygon fill="#efefef" stroke="transparent" points="272,-462.5 272,-497.5 565,-497.5 565,-462.5 272,-462.5"/>
<polygon fill="none" stroke="#000000" points="272,-462.5 272,-497.5 565,-497.5 565,-462.5 272,-462.5"/>
<text text-anchor="start" x="335.7197" y="-475.3" font-family="Arial Bold" font-size="18.00" fill="#000000">User</text>
<text text-anchor="start" x="373.7123" y="-475.3" font-family="Arial" font-size="14.00" fill="#000000">    </text>
<text text-anchor="start" x="407.9171" y="-475.3" font-family="Arial" font-size="14.00" fill="#666666">[BASE TABLE]</text>
<polygon fill="none" stroke="#000000" points="272,-432.5 272,-462.5 565,-462.5 565,-432.5 272,-432.5"/>
<text text-anchor="start" x="279" y="-443.9" font-family="Arial" font-size="14.00" fill="#000000">id    </text>
<text text-anchor="start" x="324.094" y="-443.9" font-family="Arial" font-size="14.00" fill="#666666">[int unsigned]</text>
<polygon fill="none" stroke="#000000" points="272,-402.5 272,-432.5 565,-432.5 565,-402.5 272,-402.5"/>
<text text-anchor="start" x="279" y="-413.9" font-family="Arial" font-size="14.00" fill="#000000">email    </text>
<text text-anchor="start" x="346.6438" y="-413.9" font-family="Arial" font-size="14.00" fill="#666666">[varchar(255)]</text>
<polygon fill="none" stroke="#000000" points="272,-372.5 272,-402.5 565,-402.5 565,-372.5 272,-372.5"/>
<text text-anchor="start" x="279" y="-383.9" font-family="Arial" font-size="14.00" fill="#000000">password    </text>
<text text-anchor="start" x="373.1024" y="-383.9" font-family="Arial" font-size="14.00" fill="#666666">[varchar(255)]</text>
<polygon fill="none" stroke="#000000" points="272,-342.5 272,-372.5 565,-372.5 565,-342.5 272,-342.5"/>
<text text-anchor="start" x="279" y="-353.9" font-family="Arial" font-size="14.00" fill="#000000">username    </text>
<text text-anchor="start" x="375.439" y="-353.9" font-family="Arial" font-size="14.00" fill="#666666">[varchar(50)]</text>
<polygon fill="none" stroke="#000000" points="272,-312.5 272,-342.5 565,-342.5 565,-312.5 272,-312.5"/>
<text text-anchor="start" x="279" y="-323.9" font-family="Arial" font-size="14.00" fill="#000000">enrollment_year    </text>
<text text-anchor="start" x="413.5512" y="-323.9" font-family="Arial" font-size="14.00" fill="#666666">[int]</text>
<polygon fill="none" stroke="#000000" points="272,-282.5 272,-312.5 565,-312.5 565,-282.5 272,-282.5"/>
<text text-anchor="start" x="279" y="-293.9" font-family="Arial" font-size="14.00" fill="#000000">graduation_year    </text>
<text text-anchor="start" x="414.3492" y="-293.9" font-family="Arial" font-size="14.00" fill="#666666">[int]</text>
<polygon fill="none" stroke="#000000" points="272,-252.5 272,-282.5 565,-282.5 565,-252.5 272,-252.5"/>
<text text-anchor="start" x="279" y="-263.9" font-family="Arial" font-size="14.00" fill="#000000">is_job_hunt_completed    </text>
<text text-anchor="start" x="457.1402" y="-263.9" font-family="Arial" font-size="14.00" fill="#666666">[tinyint(1)]</text>
<polygon fill="none" stroke="#000000" points="272,-222.5 272,-252.5 565,-252.5 565,-222.5 272,-222.5"/>
<text text-anchor="start" x="279" y="-233.9" font-family="Arial" font-size="14.00" fill="#000000">self_introduction    </text>
<text text-anchor="start" x="415.1178" y="-233.9" font-family="Arial" font-size="14.00" fill="#666666">[text]</text>
<polygon fill="none" stroke="#000000" points="272,-192.5 272,-222.5 565,-222.5 565,-192.5 272,-192.5"/>
<text text-anchor="start" x="279" y="-203.9" font-family="Arial" font-size="14.00" fill="#000000">icon_url    </text>
<text text-anchor="start" x="362.209" y="-203.9" font-family="Arial" font-size="14.00" fill="#666666">[varchar(255)]</text>
<polygon fill="none" stroke="#000000" points="272,-162.5 272,-192.5 565,-192.5 565,-162.5 272,-162.5"/>
<text text-anchor="start" x="279" y="-173.9" font-family="Arial" font-size="14.00" fill="#000000">created_at    </text>
<text text-anchor="start" x="379.3422" y="-173.9" font-family="Arial" font-size="14.00" fill="#666666">[datetime]</text>
<polygon fill="none" stroke="#000000" points="272,-132.5 272,-162.5 565,-162.5 565,-132.5 272,-132.5"/>
<text text-anchor="start" x="279" y="-143.9" font-family="Arial" font-size="14.00" fill="#000000">updated_at    </text>
<text text-anchor="start" x="383.2468" y="-143.9" font-family="Arial" font-size="14.00" fill="#666666">[datetime]</text>
<polygon fill="none" stroke="#000000" points="272,-102.5 272,-132.5 565,-132.5 565,-102.5 272,-102.5"/>
<text text-anchor="start" x="278.8738" y="-113.9" font-family="Arial" font-size="14.00" fill="#000000">show_profile_in_public_event    </text>
<text text-anchor="start" x="496.6816" y="-113.9" font-family="Arial" font-size="14.00" fill="#666666">[tinyint(1)]</text>
<polygon fill="none" stroke="#000000" points="272,-72.5 272,-102.5 565,-102.5 565,-72.5 272,-72.5"/>
<text text-anchor="start" x="279" y="-83.9" font-family="Arial" font-size="14.00" fill="#000000">show_profile_in_shared_url    </text>
<text text-anchor="start" x="484.3492" y="-83.9" font-family="Arial" font-size="14.00" fill="#666666">[tinyint(1)]</text>
<polygon fill="none" stroke="#000000" points="272,-42.5 272,-72.5 565,-72.5 565,-42.5 272,-42.5"/>
<text text-anchor="start" x="279" y="-53.9" font-family="Arial" font-size="14.00" fill="#000000">affiliation_id    </text>
<text text-anchor="start" x="387.1052" y="-53.9" font-family="Arial" font-size="14.00" fill="#666666">[int unsigned]</text>
</g>
<!-- Password_reset_verification&#45;&gt;User -->
<g id="edge1" class="edge">
<title>Password_reset_verification:user_id&#45;&gt;User:id</title>
<path fill="none" stroke="#000000" d="M225.6015,-786.8679C144.9222,-776.6054 175.9872,-643.9377 236,-577 285.0961,-522.2386 515.9039,-595.7614 565,-541 592.7401,-510.0589 606.5556,-447.5 565,-447.5"/>
<polygon fill="#000000" stroke="#000000" points="226.0184,-786.8932 235.7269,-791.9917 231.0092,-787.1966 236,-787.5 236,-787.5 236,-787.5 231.0092,-787.1966 236.2731,-783.0083 226.0184,-786.8932 226.0184,-786.8932"/>
<text text-anchor="start" x="6.615" y="-797.5" font-family="Arial" font-size="10.00" fill="#000000">FOREIGN KEY (user_id) REFERENCES User (id)</text>
</g>
</g>
</svg>
