<?xml version="1.0" encoding="UTF-8" standalone="no"?>
<!DOCTYPE svg PUBLIC "-//W3C//DTD SVG 1.1//EN"
 "http://www.w3.org/Graphics/SVG/1.1/DTD/svg11.dtd">
<!-- Generated by graphviz version 2.40.1 (20161225.0304)
 -->
<!-- Title: Technology Pages: 1 -->
<svg width="673pt" height="532pt"
 viewBox="0.00 0.00 672.50 532.00" xmlns="http://www.w3.org/2000/svg" xmlns:xlink="http://www.w3.org/1999/xlink">
<g id="graph0" class="graph" transform="scale(1 1) rotate(0) translate(4 528)">
<title>Technology</title>
<polygon fill="#ffffff" stroke="transparent" points="-4,4 -4,-528 668.5,-528 668.5,4 -4,4"/>
<!-- Technology -->
<g id="node1" class="node">
<title>Technology</title>
<polygon fill="#efefef" stroke="transparent" points="89.5,-165.5 89.5,-200.5 323.5,-200.5 323.5,-165.5 89.5,-165.5"/>
<polygon fill="none" stroke="#000000" points="89.5,-165.5 89.5,-200.5 323.5,-200.5 323.5,-165.5 89.5,-165.5"/>
<text text-anchor="start" x="96.2022" y="-178.3" font-family="Arial Bold" font-size="18.00" fill="#000000">Technology</text>
<text text-anchor="start" x="189.2298" y="-178.3" font-family="Arial" font-size="14.00" fill="#000000">    </text>
<text text-anchor="start" x="223.4346" y="-178.3" font-family="Arial" font-size="14.00" fill="#666666">[BASE TABLE]</text>
<polygon fill="none" stroke="#000000" points="89.5,-135.5 89.5,-165.5 323.5,-165.5 323.5,-135.5 89.5,-135.5"/>
<text text-anchor="start" x="96.5" y="-146.9" font-family="Arial" font-size="14.00" fill="#000000">id </text>
<text text-anchor="start" x="111.2798" y="-146.9" font-family="Arial" font-size="14.00" fill="#666666">[int unsigned]</text>
<polygon fill="none" stroke="#000000" points="89.5,-105.5 89.5,-135.5 323.5,-135.5 323.5,-105.5 89.5,-105.5"/>
<text text-anchor="start" x="96.5" y="-116.9" font-family="Arial" font-size="14.00" fill="#000000">name </text>
<text text-anchor="start" x="135.399" y="-116.9" font-family="Arial" font-size="14.00" fill="#666666">[varchar(30)]</text>
<polygon fill="none" stroke="#000000" points="89.5,-75.5 89.5,-105.5 323.5,-105.5 323.5,-75.5 89.5,-75.5"/>
<text text-anchor="start" x="96.5" y="-86.9" font-family="Arial" font-size="14.00" fill="#000000">created_at </text>
<text text-anchor="start" x="166.528" y="-86.9" font-family="Arial" font-size="14.00" fill="#666666">[datetime]</text>
<polygon fill="none" stroke="#000000" points="89.5,-45.5 89.5,-75.5 323.5,-75.5 323.5,-45.5 89.5,-45.5"/>
<text text-anchor="start" x="96.5" y="-56.9" font-family="Arial" font-size="14.00" fill="#000000">updated_at </text>
<text text-anchor="start" x="170.4326" y="-56.9" font-family="Arial" font-size="14.00" fill="#666666">[datetime]</text>
<polygon fill="none" stroke="#000000" stroke-width="3" points="88,-44.5 88,-202.5 325,-202.5 325,-44.5 88,-44.5"/>
</g>
<!-- Work_data_technology -->
<g id="node2" class="node">
<title>Work_data_technology</title>
<polygon fill="#efefef" stroke="transparent" points="43.5,-445.5 43.5,-480.5 368.5,-480.5 368.5,-445.5 43.5,-445.5"/>
<polygon fill="none" stroke="#000000" points="43.5,-445.5 43.5,-480.5 368.5,-480.5 368.5,-445.5 43.5,-445.5"/>
<text text-anchor="start" x="50.1883" y="-458.3" font-family="Arial Bold" font-size="18.00" fill="#000000">Work_data_technology</text>
<text text-anchor="start" x="234.2437" y="-458.3" font-family="Arial" font-size="14.00" fill="#000000">    </text>
<text text-anchor="start" x="268.4485" y="-458.3" font-family="Arial" font-size="14.00" fill="#666666">[BASE TABLE]</text>
<polygon fill="none" stroke="#000000" points="43.5,-415.5 43.5,-445.5 368.5,-445.5 368.5,-415.5 43.5,-415.5"/>
<text text-anchor="start" x="50.5" y="-426.9" font-family="Arial" font-size="14.00" fill="#000000">work_data_id    </text>
<text text-anchor="start" x="167.9474" y="-426.9" font-family="Arial" font-size="14.00" fill="#666666">[int unsigned]</text>
<polygon fill="none" stroke="#000000" points="43.5,-385.5 43.5,-415.5 368.5,-415.5 368.5,-385.5 43.5,-385.5"/>
<text text-anchor="start" x="50.5" y="-396.9" font-family="Arial" font-size="14.00" fill="#000000">technology_id    </text>
<text text-anchor="start" x="171.0694" y="-396.9" font-family="Arial" font-size="14.00" fill="#666666">[int unsigned]</text>
<polygon fill="none" stroke="#000000" points="43.5,-355.5 43.5,-385.5 368.5,-385.5 368.5,-355.5 43.5,-355.5"/>
<text text-anchor="start" x="50.5" y="-366.9" font-family="Arial" font-size="14.00" fill="#000000">created_at    </text>
<text text-anchor="start" x="150.8422" y="-366.9" font-family="Arial" font-size="14.00" fill="#666666">[datetime]</text>
<polygon fill="none" stroke="#000000" points="43.5,-325.5 43.5,-355.5 368.5,-355.5 368.5,-325.5 43.5,-325.5"/>
<text text-anchor="start" x="50.5" y="-336.9" font-family="Arial" font-size="14.00" fill="#000000">updated_at    </text>
<text text-anchor="start" x="154.7468" y="-336.9" font-family="Arial" font-size="14.00" fill="#666666">[datetime]</text>
</g>
<!-- Work_data_technology&#45;&gt;Technology -->
<g id="edge1" class="edge">
<title>Work_data_technology:technology_id&#45;&gt;Technology:id</title>
<path fill="none" stroke="#000000" d="M378.4965,-399.3798C418.1449,-389.6848 400.5585,-319.4608 368.5,-283 285.9423,-189.1053 172.0577,-340.8947 89.5,-247 61.1799,-214.7909 46.6111,-150.5 89.5,-150.5"/>
<polygon fill="#000000" stroke="#000000" points="378.4378,-399.3862 367.9988,-396.028 373.4689,-399.9431 368.5,-400.5 368.5,-400.5 368.5,-400.5 373.4689,-399.9431 369.0012,-404.972 378.4378,-399.3862 378.4378,-399.3862"/>
<text text-anchor="start" x="375.375" y="-410.5" font-family="Arial" font-size="10.00" fill="#000000">FOREIGN KEY (technology_id) REFERENCES Technology (id)</text>
</g>
</g>
</svg>
