<?xml version="1.0" encoding="UTF-8" standalone="no"?>
<!DOCTYPE svg PUBLIC "-//W3C//DTD SVG 1.1//EN"
 "http://www.w3.org/Graphics/SVG/1.1/DTD/svg11.dtd">
<!-- Generated by graphviz version 2.40.1 (20161225.0304)
 -->
<!-- Title: Tool Pages: 1 -->
<svg width="550pt" height="532pt"
 viewBox="0.00 0.00 549.50 532.00" xmlns="http://www.w3.org/2000/svg" xmlns:xlink="http://www.w3.org/1999/xlink">
<g id="graph0" class="graph" transform="scale(1 1) rotate(0) translate(4 528)">
<title>Tool</title>
<polygon fill="#ffffff" stroke="transparent" points="-4,4 -4,-528 545.5,-528 545.5,4 -4,4"/>
<!-- Tool -->
<g id="node1" class="node">
<title>Tool</title>
<polygon fill="#efefef" stroke="transparent" points="89.5,-165.5 89.5,-200.5 265.5,-200.5 265.5,-165.5 89.5,-165.5"/>
<polygon fill="none" stroke="#000000" points="89.5,-165.5 89.5,-200.5 265.5,-200.5 265.5,-165.5 89.5,-165.5"/>
<text text-anchor="start" x="96.2146" y="-178.3" font-family="Arial Bold" font-size="18.00" fill="#000000">Tool</text>
<text text-anchor="start" x="131.2174" y="-178.3" font-family="Arial" font-size="14.00" fill="#000000">    </text>
<text text-anchor="start" x="165.4222" y="-178.3" font-family="Arial" font-size="14.00" fill="#666666">[BASE TABLE]</text>
<polygon fill="none" stroke="#000000" points="89.5,-135.5 89.5,-165.5 265.5,-165.5 265.5,-135.5 89.5,-135.5"/>
<text text-anchor="start" x="96.5" y="-146.9" font-family="Arial" font-size="14.00" fill="#000000">id </text>
<text text-anchor="start" x="111.2798" y="-146.9" font-family="Arial" font-size="14.00" fill="#666666">[int unsigned]</text>
<polygon fill="none" stroke="#000000" points="89.5,-105.5 89.5,-135.5 265.5,-135.5 265.5,-105.5 89.5,-105.5"/>
<text text-anchor="start" x="96.5" y="-116.9" font-family="Arial" font-size="14.00" fill="#000000">name </text>
<text text-anchor="start" x="135.399" y="-116.9" font-family="Arial" font-size="14.00" fill="#666666">[varchar(30)]</text>
<polygon fill="none" stroke="#000000" points="89.5,-75.5 89.5,-105.5 265.5,-105.5 265.5,-75.5 89.5,-75.5"/>
<text text-anchor="start" x="96.5" y="-86.9" font-family="Arial" font-size="14.00" fill="#000000">created_at </text>
<text text-anchor="start" x="166.528" y="-86.9" font-family="Arial" font-size="14.00" fill="#666666">[datetime]</text>
<polygon fill="none" stroke="#000000" points="89.5,-45.5 89.5,-75.5 265.5,-75.5 265.5,-45.5 89.5,-45.5"/>
<text text-anchor="start" x="96.5" y="-56.9" font-family="Arial" font-size="14.00" fill="#000000">updated_at </text>
<text text-anchor="start" x="170.4326" y="-56.9" font-family="Arial" font-size="14.00" fill="#666666">[datetime]</text>
<polygon fill="none" stroke="#000000" stroke-width="3" points="88,-44.5 88,-202.5 267,-202.5 267,-44.5 88,-44.5"/>
</g>
<!-- Work_data_tool -->
<g id="node2" class="node">
<title>Work_data_tool</title>
<polygon fill="#efefef" stroke="transparent" points="43.5,-445.5 43.5,-480.5 310.5,-480.5 310.5,-445.5 43.5,-445.5"/>
<polygon fill="none" stroke="#000000" points="43.5,-445.5 43.5,-480.5 310.5,-480.5 310.5,-445.5 43.5,-445.5"/>
<text text-anchor="start" x="50.2007" y="-458.3" font-family="Arial Bold" font-size="18.00" fill="#000000">Work_data_tool</text>
<text text-anchor="start" x="176.2313" y="-458.3" font-family="Arial" font-size="14.00" fill="#000000">    </text>
<text text-anchor="start" x="210.4361" y="-458.3" font-family="Arial" font-size="14.00" fill="#666666">[BASE TABLE]</text>
<polygon fill="none" stroke="#000000" points="43.5,-415.5 43.5,-445.5 310.5,-445.5 310.5,-415.5 43.5,-415.5"/>
<text text-anchor="start" x="50.5" y="-426.9" font-family="Arial" font-size="14.00" fill="#000000">work_data_id    </text>
<text text-anchor="start" x="167.9474" y="-426.9" font-family="Arial" font-size="14.00" fill="#666666">[int unsigned]</text>
<polygon fill="none" stroke="#000000" points="43.5,-385.5 43.5,-415.5 310.5,-415.5 310.5,-385.5 43.5,-385.5"/>
<text text-anchor="start" x="50.5" y="-396.9" font-family="Arial" font-size="14.00" fill="#000000">tool_id    </text>
<text text-anchor="start" x="125.939" y="-396.9" font-family="Arial" font-size="14.00" fill="#666666">[int unsigned]</text>
<polygon fill="none" stroke="#000000" points="43.5,-355.5 43.5,-385.5 310.5,-385.5 310.5,-355.5 43.5,-355.5"/>
<text text-anchor="start" x="50.5" y="-366.9" font-family="Arial" font-size="14.00" fill="#000000">created_at    </text>
<text text-anchor="start" x="150.8422" y="-366.9" font-family="Arial" font-size="14.00" fill="#666666">[datetime]</text>
<polygon fill="none" stroke="#000000" points="43.5,-325.5 43.5,-355.5 310.5,-355.5 310.5,-325.5 43.5,-325.5"/>
<text text-anchor="start" x="50.5" y="-336.9" font-family="Arial" font-size="14.00" fill="#000000">updated_at    </text>
<text text-anchor="start" x="154.7468" y="-336.9" font-family="Arial" font-size="14.00" fill="#666666">[datetime]</text>
</g>
<!-- Work_data_tool&#45;&gt;Tool -->
<g id="edge1" class="edge">
<title>Work_data_tool:tool_id&#45;&gt;Tool:id</title>
<path fill="none" stroke="#000000" d="M320.4875,-399.3876C360.0593,-389.7588 341.9497,-319.9872 310.5,-283 246.0355,-207.1848 153.9645,-322.8152 89.5,-247 61.7177,-214.3259 46.6111,-150.5 89.5,-150.5"/>
<polygon fill="#000000" stroke="#000000" points="320.4385,-399.3929 310.0018,-396.0277 315.4693,-399.9465 310.5,-400.5 310.5,-400.5 310.5,-400.5 315.4693,-399.9465 310.9982,-404.9723 320.4385,-399.3929 320.4385,-399.3929"/>
<text text-anchor="start" x="317.611" y="-410.5" font-family="Arial" font-size="10.00" fill="#000000">FOREIGN KEY (tool_id) REFERENCES Tool (id)</text>
</g>
</g>
</svg>
