<?xml version="1.0" encoding="UTF-8" standalone="no"?>
<!DOCTYPE svg PUBLIC "-//W3C//DTD SVG 1.1//EN"
 "http://www.w3.org/Graphics/SVG/1.1/DTD/svg11.dtd">
<!-- Generated by graphviz version 2.40.1 (20161225.0304)
 -->
<!-- Title: User_url Pages: 1 -->
<svg width="538pt" height="892pt"
 viewBox="0.00 0.00 537.50 892.00" xmlns="http://www.w3.org/2000/svg" xmlns:xlink="http://www.w3.org/1999/xlink">
<g id="graph0" class="graph" transform="scale(1 1) rotate(0) translate(4 888)">
<title>User_url</title>
<polygon fill="#ffffff" stroke="transparent" points="-4,4 -4,-888 533.5,-888 533.5,4 -4,4"/>
<!-- User_url -->
<g id="node1" class="node">
<title>User_url</title>
<polygon fill="#efefef" stroke="transparent" points="236,-802.5 236,-837.5 445,-837.5 445,-802.5 236,-802.5"/>
<polygon fill="none" stroke="#000000" points="236,-802.5 236,-837.5 445,-837.5 445,-802.5 236,-802.5"/>
<text text-anchor="start" x="242.7203" y="-815.3" font-family="Arial Bold" font-size="18.00" fill="#000000">User_url</text>
<text text-anchor="start" x="310.7117" y="-815.3" font-family="Arial" font-size="14.00" fill="#000000">    </text>
<text text-anchor="start" x="344.9165" y="-815.3" font-family="Arial" font-size="14.00" fill="#666666">[BASE TABLE]</text>
<polygon fill="none" stroke="#000000" points="236,-772.5 236,-802.5 445,-802.5 445,-772.5 236,-772.5"/>
<text text-anchor="start" x="243" y="-783.9" font-family="Arial" font-size="14.00" fill="#000000">id </text>
<text text-anchor="start" x="257.7798" y="-783.9" font-family="Arial" font-size="14.00" fill="#666666">[int unsigned]</text>
<polygon fill="none" stroke="#000000" points="236,-742.5 236,-772.5 445,-772.5 445,-742.5 236,-742.5"/>
<text text-anchor="start" x="243" y="-753.9" font-family="Arial" font-size="14.00" fill="#000000">user_id </text>
<text text-anchor="start" x="292.7882" y="-753.9" font-family="Arial" font-size="14.00" fill="#666666">[int unsigned]</text>
<polygon fill="none" stroke="#000000" points="236,-712.5 236,-742.5 445,-742.5 445,-712.5 236,-712.5"/>
<text text-anchor="start" x="243" y="-723.9" font-family="Arial" font-size="14.00" fill="#000000">url </text>
<text text-anchor="start" x="262.4404" y="-723.9" font-family="Arial" font-size="14.00" fill="#666666">[varchar(255)]</text>
<polygon fill="none" stroke="#000000" points="236,-682.5 236,-712.5 445,-712.5 445,-682.5 236,-682.5"/>
<text text-anchor="start" x="243" y="-693.9" font-family="Arial" font-size="14.00" fill="#000000">created_at </text>
<text text-anchor="start" x="313.028" y="-693.9" font-family="Arial" font-size="14.00" fill="#666666">[datetime]</text>
<polygon fill="none" stroke="#000000" points="236,-652.5 236,-682.5 445,-682.5 445,-652.5 236,-652.5"/>
<text text-anchor="start" x="243" y="-663.9" font-family="Arial" font-size="14.00" fill="#000000">updated_at </text>
<text text-anchor="start" x="316.9326" y="-663.9" font-family="Arial" font-size="14.00" fill="#666666">[datetime]</text>
<polygon fill="none" stroke="#000000" points="236,-622.5 236,-652.5 445,-652.5 445,-622.5 236,-622.5"/>
<text text-anchor="start" x="243" y="-633.9" font-family="Arial" font-size="14.00" fill="#000000">name </text>
<text text-anchor="start" x="281.899" y="-633.9" font-family="Arial" font-size="14.00" fill="#666666">[varchar(30)]</text>
<polygon fill="none" stroke="#000000" stroke-width="3" points="234,-621.5 234,-839.5 446,-839.5 446,-621.5 234,-621.5"/>
</g>
<!-- User -->
<g id="node2" class="node">
<title>User</title>
<polygon fill="#efefef" stroke="transparent" points="194,-462.5 194,-497.5 487,-497.5 487,-462.5 194,-462.5"/>
<polygon fill="none" stroke="#000000" points="194,-462.5 194,-497.5 487,-497.5 487,-462.5 194,-462.5"/>
<text text-anchor="start" x="257.7197" y="-475.3" font-family="Arial Bold" font-size="18.00" fill="#000000">User</text>
<text text-anchor="start" x="295.7123" y="-475.3" font-family="Arial" font-size="14.00" fill="#000000">    </text>
<text text-anchor="start" x="329.9171" y="-475.3" font-family="Arial" font-size="14.00" fill="#666666">[BASE TABLE]</text>
<polygon fill="none" stroke="#000000" points="194,-432.5 194,-462.5 487,-462.5 487,-432.5 194,-432.5"/>
<text text-anchor="start" x="201" y="-443.9" font-family="Arial" font-size="14.00" fill="#000000">id    </text>
<text text-anchor="start" x="246.094" y="-443.9" font-family="Arial" font-size="14.00" fill="#666666">[int unsigned]</text>
<polygon fill="none" stroke="#000000" points="194,-402.5 194,-432.5 487,-432.5 487,-402.5 194,-402.5"/>
<text text-anchor="start" x="201" y="-413.9" font-family="Arial" font-size="14.00" fill="#000000">email    </text>
<text text-anchor="start" x="268.6438" y="-413.9" font-family="Arial" font-size="14.00" fill="#666666">[varchar(255)]</text>
<polygon fill="none" stroke="#000000" points="194,-372.5 194,-402.5 487,-402.5 487,-372.5 194,-372.5"/>
<text text-anchor="start" x="201" y="-383.9" font-family="Arial" font-size="14.00" fill="#000000">password    </text>
<text text-anchor="start" x="295.1024" y="-383.9" font-family="Arial" font-size="14.00" fill="#666666">[varchar(255)]</text>
<polygon fill="none" stroke="#000000" points="194,-342.5 194,-372.5 487,-372.5 487,-342.5 194,-342.5"/>
<text text-anchor="start" x="201" y="-353.9" font-family="Arial" font-size="14.00" fill="#000000">username    </text>
<text text-anchor="start" x="297.439" y="-353.9" font-family="Arial" font-size="14.00" fill="#666666">[varchar(50)]</text>
<polygon fill="none" stroke="#000000" points="194,-312.5 194,-342.5 487,-342.5 487,-312.5 194,-312.5"/>
<text text-anchor="start" x="201" y="-323.9" font-family="Arial" font-size="14.00" fill="#000000">enrollment_year    </text>
<text text-anchor="start" x="335.5512" y="-323.9" font-family="Arial" font-size="14.00" fill="#666666">[int]</text>
<polygon fill="none" stroke="#000000" points="194,-282.5 194,-312.5 487,-312.5 487,-282.5 194,-282.5"/>
<text text-anchor="start" x="201" y="-293.9" font-family="Arial" font-size="14.00" fill="#000000">graduation_year    </text>
<text text-anchor="start" x="336.3492" y="-293.9" font-family="Arial" font-size="14.00" fill="#666666">[int]</text>
<polygon fill="none" stroke="#000000" points="194,-252.5 194,-282.5 487,-282.5 487,-252.5 194,-252.5"/>
<text text-anchor="start" x="201" y="-263.9" font-family="Arial" font-size="14.00" fill="#000000">is_job_hunt_completed    </text>
<text text-anchor="start" x="379.1402" y="-263.9" font-family="Arial" font-size="14.00" fill="#666666">[tinyint(1)]</text>
<polygon fill="none" stroke="#000000" points="194,-222.5 194,-252.5 487,-252.5 487,-222.5 194,-222.5"/>
<text text-anchor="start" x="201" y="-233.9" font-family="Arial" font-size="14.00" fill="#000000">self_introduction    </text>
<text text-anchor="start" x="337.1178" y="-233.9" font-family="Arial" font-size="14.00" fill="#666666">[text]</text>
<polygon fill="none" stroke="#000000" points="194,-192.5 194,-222.5 487,-222.5 487,-192.5 194,-192.5"/>
<text text-anchor="start" x="201" y="-203.9" font-family="Arial" font-size="14.00" fill="#000000">icon_url    </text>
<text text-anchor="start" x="284.209" y="-203.9" font-family="Arial" font-size="14.00" fill="#666666">[varchar(255)]</text>
<polygon fill="none" stroke="#000000" points="194,-162.5 194,-192.5 487,-192.5 487,-162.5 194,-162.5"/>
<text text-anchor="start" x="201" y="-173.9" font-family="Arial" font-size="14.00" fill="#000000">created_at    </text>
<text text-anchor="start" x="301.3422" y="-173.9" font-family="Arial" font-size="14.00" fill="#666666">[datetime]</text>
<polygon fill="none" stroke="#000000" points="194,-132.5 194,-162.5 487,-162.5 487,-132.5 194,-132.5"/>
<text text-anchor="start" x="201" y="-143.9" font-family="Arial" font-size="14.00" fill="#000000">updated_at    </text>
<text text-anchor="start" x="305.2468" y="-143.9" font-family="Arial" font-size="14.00" fill="#666666">[datetime]</text>
<polygon fill="none" stroke="#000000" points="194,-102.5 194,-132.5 487,-132.5 487,-102.5 194,-102.5"/>
<text text-anchor="start" x="200.8738" y="-113.9" font-family="Arial" font-size="14.00" fill="#000000">show_profile_in_public_event    </text>
<text text-anchor="start" x="418.6816" y="-113.9" font-family="Arial" font-size="14.00" fill="#666666">[tinyint(1)]</text>
<polygon fill="none" stroke="#000000" points="194,-72.5 194,-102.5 487,-102.5 487,-72.5 194,-72.5"/>
<text text-anchor="start" x="201" y="-83.9" font-family="Arial" font-size="14.00" fill="#000000">show_profile_in_shared_url    </text>
<text text-anchor="start" x="406.3492" y="-83.9" font-family="Arial" font-size="14.00" fill="#666666">[tinyint(1)]</text>
<polygon fill="none" stroke="#000000" points="194,-42.5 194,-72.5 487,-72.5 487,-42.5 194,-42.5"/>
<text text-anchor="start" x="201" y="-53.9" font-family="Arial" font-size="14.00" fill="#000000">affiliation_id    </text>
<text text-anchor="start" x="309.1052" y="-53.9" font-family="Arial" font-size="14.00" fill="#666666">[int unsigned]</text>
</g>
<!-- User_url&#45;&gt;User -->
<g id="edge1" class="edge">
<title>User_url:user_id&#45;&gt;User:id</title>
<path fill="none" stroke="#000000" d="M226.0233,-755.3549C162.646,-727.9657 127.8762,-447.5 194,-447.5"/>
<polygon fill="#000000" stroke="#000000" points="226.2234,-755.3978 235.054,-761.8995 231.1117,-756.4489 236,-757.5 236,-757.5 236,-757.5 231.1117,-756.4489 236.946,-753.1005 226.2234,-755.3978 226.2234,-755.3978"/>
<text text-anchor="start" x="6.615" y="-767.5" font-family="Arial" font-size="10.00" fill="#000000">FOREIGN KEY (user_id) REFERENCES User (id)</text>
</g>
</g>
</svg>
