<?xml version="1.0" encoding="UTF-8" standalone="no"?>
<!DOCTYPE svg PUBLIC "-//W3C//DTD SVG 1.1//EN"
 "http://www.w3.org/Graphics/SVG/1.1/DTD/svg11.dtd">
<!-- Generated by graphviz version 2.40.1 (20161225.0304)
 -->
<!-- Title: User_job Pages: 1 -->
<svg width="700pt" height="832pt"
 viewBox="0.00 0.00 699.50 832.00" xmlns="http://www.w3.org/2000/svg" xmlns:xlink="http://www.w3.org/1999/xlink">
<g id="graph0" class="graph" transform="scale(1 1) rotate(0) translate(4 828)">
<title>User_job</title>
<polygon fill="#ffffff" stroke="transparent" points="-4,4 -4,-828 695.5,-828 695.5,4 -4,4"/>
<!-- User_job -->
<g id="node1" class="node">
<title>User_job</title>
<polygon fill="#efefef" stroke="transparent" points="253.5,-742.5 253.5,-777.5 466.5,-777.5 466.5,-742.5 253.5,-742.5"/>
<polygon fill="none" stroke="#000000" points="253.5,-742.5 253.5,-777.5 466.5,-777.5 466.5,-742.5 253.5,-742.5"/>
<text text-anchor="start" x="260.2133" y="-755.3" font-family="Arial Bold" font-size="18.00" fill="#000000">User_job</text>
<text text-anchor="start" x="332.2187" y="-755.3" font-family="Arial" font-size="14.00" fill="#000000">    </text>
<text text-anchor="start" x="366.4235" y="-755.3" font-family="Arial" font-size="14.00" fill="#666666">[BASE TABLE]</text>
<polygon fill="none" stroke="#000000" points="253.5,-712.5 253.5,-742.5 466.5,-742.5 466.5,-712.5 253.5,-712.5"/>
<text text-anchor="start" x="260.5" y="-723.9" font-family="Arial" font-size="14.00" fill="#000000">user_id </text>
<text text-anchor="start" x="310.2882" y="-723.9" font-family="Arial" font-size="14.00" fill="#666666">[int unsigned]</text>
<polygon fill="none" stroke="#000000" points="253.5,-682.5 253.5,-712.5 466.5,-712.5 466.5,-682.5 253.5,-682.5"/>
<text text-anchor="start" x="260.5" y="-693.9" font-family="Arial" font-size="14.00" fill="#000000">job_id </text>
<text text-anchor="start" x="301.7342" y="-693.9" font-family="Arial" font-size="14.00" fill="#666666">[int unsigned]</text>
<polygon fill="none" stroke="#000000" points="253.5,-652.5 253.5,-682.5 466.5,-682.5 466.5,-652.5 253.5,-652.5"/>
<text text-anchor="start" x="260.5" y="-663.9" font-family="Arial" font-size="14.00" fill="#000000">created_at </text>
<text text-anchor="start" x="330.528" y="-663.9" font-family="Arial" font-size="14.00" fill="#666666">[datetime]</text>
<polygon fill="none" stroke="#000000" points="253.5,-622.5 253.5,-652.5 466.5,-652.5 466.5,-622.5 253.5,-622.5"/>
<text text-anchor="start" x="260.5" y="-633.9" font-family="Arial" font-size="14.00" fill="#000000">updated_at </text>
<text text-anchor="start" x="334.4326" y="-633.9" font-family="Arial" font-size="14.00" fill="#666666">[datetime]</text>
<polygon fill="none" stroke="#000000" stroke-width="3" points="251.5,-621.5 251.5,-779.5 467.5,-779.5 467.5,-621.5 251.5,-621.5"/>
</g>
<!-- User -->
<g id="node2" class="node">
<title>User</title>
<polygon fill="#efefef" stroke="transparent" points="43.5,-462.5 43.5,-497.5 336.5,-497.5 336.5,-462.5 43.5,-462.5"/>
<polygon fill="none" stroke="#000000" points="43.5,-462.5 43.5,-497.5 336.5,-497.5 336.5,-462.5 43.5,-462.5"/>
<text text-anchor="start" x="107.2197" y="-475.3" font-family="Arial Bold" font-size="18.00" fill="#000000">User</text>
<text text-anchor="start" x="145.2123" y="-475.3" font-family="Arial" font-size="14.00" fill="#000000">    </text>
<text text-anchor="start" x="179.4171" y="-475.3" font-family="Arial" font-size="14.00" fill="#666666">[BASE TABLE]</text>
<polygon fill="none" stroke="#000000" points="43.5,-432.5 43.5,-462.5 336.5,-462.5 336.5,-432.5 43.5,-432.5"/>
<text text-anchor="start" x="50.5" y="-443.9" font-family="Arial" font-size="14.00" fill="#000000">id    </text>
<text text-anchor="start" x="95.594" y="-443.9" font-family="Arial" font-size="14.00" fill="#666666">[int unsigned]</text>
<polygon fill="none" stroke="#000000" points="43.5,-402.5 43.5,-432.5 336.5,-432.5 336.5,-402.5 43.5,-402.5"/>
<text text-anchor="start" x="50.5" y="-413.9" font-family="Arial" font-size="14.00" fill="#000000">email    </text>
<text text-anchor="start" x="118.1438" y="-413.9" font-family="Arial" font-size="14.00" fill="#666666">[varchar(255)]</text>
<polygon fill="none" stroke="#000000" points="43.5,-372.5 43.5,-402.5 336.5,-402.5 336.5,-372.5 43.5,-372.5"/>
<text text-anchor="start" x="50.5" y="-383.9" font-family="Arial" font-size="14.00" fill="#000000">password    </text>
<text text-anchor="start" x="144.6024" y="-383.9" font-family="Arial" font-size="14.00" fill="#666666">[varchar(255)]</text>
<polygon fill="none" stroke="#000000" points="43.5,-342.5 43.5,-372.5 336.5,-372.5 336.5,-342.5 43.5,-342.5"/>
<text text-anchor="start" x="50.5" y="-353.9" font-family="Arial" font-size="14.00" fill="#000000">username    </text>
<text text-anchor="start" x="146.939" y="-353.9" font-family="Arial" font-size="14.00" fill="#666666">[varchar(50)]</text>
<polygon fill="none" stroke="#000000" points="43.5,-312.5 43.5,-342.5 336.5,-342.5 336.5,-312.5 43.5,-312.5"/>
<text text-anchor="start" x="50.5" y="-323.9" font-family="Arial" font-size="14.00" fill="#000000">enrollment_year    </text>
<text text-anchor="start" x="185.0512" y="-323.9" font-family="Arial" font-size="14.00" fill="#666666">[int]</text>
<polygon fill="none" stroke="#000000" points="43.5,-282.5 43.5,-312.5 336.5,-312.5 336.5,-282.5 43.5,-282.5"/>
<text text-anchor="start" x="50.5" y="-293.9" font-family="Arial" font-size="14.00" fill="#000000">graduation_year    </text>
<text text-anchor="start" x="185.8492" y="-293.9" font-family="Arial" font-size="14.00" fill="#666666">[int]</text>
<polygon fill="none" stroke="#000000" points="43.5,-252.5 43.5,-282.5 336.5,-282.5 336.5,-252.5 43.5,-252.5"/>
<text text-anchor="start" x="50.5" y="-263.9" font-family="Arial" font-size="14.00" fill="#000000">is_job_hunt_completed    </text>
<text text-anchor="start" x="228.6402" y="-263.9" font-family="Arial" font-size="14.00" fill="#666666">[tinyint(1)]</text>
<polygon fill="none" stroke="#000000" points="43.5,-222.5 43.5,-252.5 336.5,-252.5 336.5,-222.5 43.5,-222.5"/>
<text text-anchor="start" x="50.5" y="-233.9" font-family="Arial" font-size="14.00" fill="#000000">self_introduction    </text>
<text text-anchor="start" x="186.6178" y="-233.9" font-family="Arial" font-size="14.00" fill="#666666">[text]</text>
<polygon fill="none" stroke="#000000" points="43.5,-192.5 43.5,-222.5 336.5,-222.5 336.5,-192.5 43.5,-192.5"/>
<text text-anchor="start" x="50.5" y="-203.9" font-family="Arial" font-size="14.00" fill="#000000">icon_url    </text>
<text text-anchor="start" x="133.709" y="-203.9" font-family="Arial" font-size="14.00" fill="#666666">[varchar(255)]</text>
<polygon fill="none" stroke="#000000" points="43.5,-162.5 43.5,-192.5 336.5,-192.5 336.5,-162.5 43.5,-162.5"/>
<text text-anchor="start" x="50.5" y="-173.9" font-family="Arial" font-size="14.00" fill="#000000">created_at    </text>
<text text-anchor="start" x="150.8422" y="-173.9" font-family="Arial" font-size="14.00" fill="#666666">[datetime]</text>
<polygon fill="none" stroke="#000000" points="43.5,-132.5 43.5,-162.5 336.5,-162.5 336.5,-132.5 43.5,-132.5"/>
<text text-anchor="start" x="50.5" y="-143.9" font-family="Arial" font-size="14.00" fill="#000000">updated_at    </text>
<text text-anchor="start" x="154.7468" y="-143.9" font-family="Arial" font-size="14.00" fill="#666666">[datetime]</text>
<polygon fill="none" stroke="#000000" points="43.5,-102.5 43.5,-132.5 336.5,-132.5 336.5,-102.5 43.5,-102.5"/>
<text text-anchor="start" x="50.3738" y="-113.9" font-family="Arial" font-size="14.00" fill="#000000">show_profile_in_public_event    </text>
<text text-anchor="start" x="268.1816" y="-113.9" font-family="Arial" font-size="14.00" fill="#666666">[tinyint(1)]</text>
<polygon fill="none" stroke="#000000" points="43.5,-72.5 43.5,-102.5 336.5,-102.5 336.5,-72.5 43.5,-72.5"/>
<text text-anchor="start" x="50.5" y="-83.9" font-family="Arial" font-size="14.00" fill="#000000">show_profile_in_shared_url    </text>
<text text-anchor="start" x="255.8492" y="-83.9" font-family="Arial" font-size="14.00" fill="#666666">[tinyint(1)]</text>
<polygon fill="none" stroke="#000000" points="43.5,-42.5 43.5,-72.5 336.5,-72.5 336.5,-42.5 43.5,-42.5"/>
<text text-anchor="start" x="50.5" y="-53.9" font-family="Arial" font-size="14.00" fill="#000000">affiliation_id    </text>
<text text-anchor="start" x="158.6052" y="-53.9" font-family="Arial" font-size="14.00" fill="#666666">[int unsigned]</text>
</g>
<!-- User_job&#45;&gt;User -->
<g id="edge1" class="edge">
<title>User_job:user_id&#45;&gt;User:id</title>
<path fill="none" stroke="#000000" d="M243.3822,-726.6732C189.9325,-717.2711 218.807,-629.8634 253.5,-577 275.5617,-543.3835 314.4383,-574.6165 336.5,-541 359.3004,-506.258 378.0556,-447.5 336.5,-447.5"/>
<polygon fill="#000000" stroke="#000000" points="243.5332,-726.6855 253.1335,-731.9851 248.5166,-727.0927 253.5,-727.5 253.5,-727.5 253.5,-727.5 248.5166,-727.0927 253.8665,-723.0149 243.5332,-726.6855 243.5332,-726.6855"/>
<text text-anchor="start" x="24.115" y="-737.5" font-family="Arial" font-size="10.00" fill="#000000">FOREIGN KEY (user_id) REFERENCES User (id)</text>
</g>
<!-- Job -->
<g id="node3" class="node">
<title>Job</title>
<polygon fill="#efefef" stroke="transparent" points="440.5,-312.5 440.5,-347.5 619.5,-347.5 619.5,-312.5 440.5,-312.5"/>
<polygon fill="none" stroke="#000000" points="440.5,-312.5 440.5,-347.5 619.5,-347.5 619.5,-312.5 440.5,-312.5"/>
<text text-anchor="start" x="451.7098" y="-325.3" font-family="Arial Bold" font-size="18.00" fill="#000000">Job</text>
<text text-anchor="start" x="480.7222" y="-325.3" font-family="Arial" font-size="14.00" fill="#000000">    </text>
<text text-anchor="start" x="514.927" y="-325.3" font-family="Arial" font-size="14.00" fill="#666666">[BASE TABLE]</text>
<polygon fill="none" stroke="#000000" points="440.5,-282.5 440.5,-312.5 619.5,-312.5 619.5,-282.5 440.5,-282.5"/>
<text text-anchor="start" x="447.5" y="-293.9" font-family="Arial" font-size="14.00" fill="#000000">id    </text>
<text text-anchor="start" x="492.594" y="-293.9" font-family="Arial" font-size="14.00" fill="#666666">[int unsigned]</text>
<polygon fill="none" stroke="#000000" points="440.5,-252.5 440.5,-282.5 619.5,-282.5 619.5,-252.5 440.5,-252.5"/>
<text text-anchor="start" x="447.5" y="-263.9" font-family="Arial" font-size="14.00" fill="#000000">name    </text>
<text text-anchor="start" x="516.7132" y="-263.9" font-family="Arial" font-size="14.00" fill="#666666">[varchar(30)]</text>
<polygon fill="none" stroke="#000000" points="440.5,-222.5 440.5,-252.5 619.5,-252.5 619.5,-222.5 440.5,-222.5"/>
<text text-anchor="start" x="447.5" y="-233.9" font-family="Arial" font-size="14.00" fill="#000000">created_at    </text>
<text text-anchor="start" x="547.8422" y="-233.9" font-family="Arial" font-size="14.00" fill="#666666">[datetime]</text>
<polygon fill="none" stroke="#000000" points="440.5,-192.5 440.5,-222.5 619.5,-222.5 619.5,-192.5 440.5,-192.5"/>
<text text-anchor="start" x="447.1466" y="-203.9" font-family="Arial" font-size="14.00" fill="#000000">updated_at    </text>
<text text-anchor="start" x="551.3934" y="-203.9" font-family="Arial" font-size="14.00" fill="#666666">[datetime]</text>
</g>
<!-- User_job&#45;&gt;Job -->
<g id="edge2" class="edge">
<title>User_job:job_id&#45;&gt;Job:id</title>
<path fill="none" stroke="#000000" d="M476.7631,-697.0022C629.2081,-681.262 266.0006,-297.5 440.5,-297.5"/>
<polygon fill="#000000" stroke="#000000" points="476.4883,-697.0155 466.282,-693.0053 471.4941,-697.2577 466.5,-697.5 466.5,-697.5 466.5,-697.5 471.4941,-697.2577 466.718,-701.9947 476.4883,-697.0155 476.4883,-697.0155"/>
<text text-anchor="start" x="473.6645" y="-707.5" font-family="Arial" font-size="10.00" fill="#000000">FOREIGN KEY (job_id) REFERENCES Job (id)</text>
</g>
</g>
</svg>
