<?xml version="1.0" encoding="UTF-8" standalone="no"?>
<!DOCTYPE svg PUBLIC "-//W3C//DTD SVG 1.1//EN"
 "http://www.w3.org/Graphics/SVG/1.1/DTD/svg11.dtd">
<!-- Generated by graphviz version 2.40.1 (20161225.0304)
 -->
<!-- Title: User Pages: 1 -->
<svg width="2665pt" height="1199pt"
 viewBox="0.00 0.00 2664.50 1199.00" xmlns="http://www.w3.org/2000/svg" xmlns:xlink="http://www.w3.org/1999/xlink">
<g id="graph0" class="graph" transform="scale(1 1) rotate(0) translate(4 1195)">
<title>User</title>
<polygon fill="#ffffff" stroke="transparent" points="-4,4 -4,-1195 2660.5,-1195 2660.5,4 -4,4"/>
<!-- User -->
<g id="node1" class="node">
<title>User</title>
<polygon fill="#efefef" stroke="transparent" points="1292,-742.5 1292,-777.5 1554,-777.5 1554,-742.5 1292,-742.5"/>
<polygon fill="none" stroke="#000000" points="1292,-742.5 1292,-777.5 1554,-777.5 1554,-742.5 1292,-742.5"/>
<text text-anchor="start" x="1340.2197" y="-755.3" font-family="Arial Bold" font-size="18.00" fill="#000000">User</text>
<text text-anchor="start" x="1378.2123" y="-755.3" font-family="Arial" font-size="14.00" fill="#000000">    </text>
<text text-anchor="start" x="1412.4171" y="-755.3" font-family="Arial" font-size="14.00" fill="#666666">[BASE TABLE]</text>
<polygon fill="none" stroke="#000000" points="1292,-712.5 1292,-742.5 1554,-742.5 1554,-712.5 1292,-712.5"/>
<text text-anchor="start" x="1299" y="-723.9" font-family="Arial" font-size="14.00" fill="#000000">id </text>
<text text-anchor="start" x="1313.7798" y="-723.9" font-family="Arial" font-size="14.00" fill="#666666">[int unsigned]</text>
<polygon fill="none" stroke="#000000" points="1292,-682.5 1292,-712.5 1554,-712.5 1554,-682.5 1292,-682.5"/>
<text text-anchor="start" x="1299" y="-693.9" font-family="Arial" font-size="14.00" fill="#000000">email </text>
<text text-anchor="start" x="1336.3296" y="-693.9" font-family="Arial" font-size="14.00" fill="#666666">[varchar(255)]</text>
<polygon fill="none" stroke="#000000" points="1292,-652.5 1292,-682.5 1554,-682.5 1554,-652.5 1292,-652.5"/>
<text text-anchor="start" x="1299" y="-663.9" font-family="Arial" font-size="14.00" fill="#000000">password </text>
<text text-anchor="start" x="1362.7882" y="-663.9" font-family="Arial" font-size="14.00" fill="#666666">[varchar(255)]</text>
<polygon fill="none" stroke="#000000" points="1292,-622.5 1292,-652.5 1554,-652.5 1554,-622.5 1292,-622.5"/>
<text text-anchor="start" x="1299" y="-633.9" font-family="Arial" font-size="14.00" fill="#000000">username </text>
<text text-anchor="start" x="1365.1248" y="-633.9" font-family="Arial" font-size="14.00" fill="#666666">[varchar(50)]</text>
<polygon fill="none" stroke="#000000" points="1292,-592.5 1292,-622.5 1554,-622.5 1554,-592.5 1292,-592.5"/>
<text text-anchor="start" x="1299" y="-603.9" font-family="Arial" font-size="14.00" fill="#000000">enrollment_year </text>
<text text-anchor="start" x="1403.237" y="-603.9" font-family="Arial" font-size="14.00" fill="#666666">[int]</text>
<polygon fill="none" stroke="#000000" points="1292,-562.5 1292,-592.5 1554,-592.5 1554,-562.5 1292,-562.5"/>
<text text-anchor="start" x="1299" y="-573.9" font-family="Arial" font-size="14.00" fill="#000000">graduation_year </text>
<text text-anchor="start" x="1404.035" y="-573.9" font-family="Arial" font-size="14.00" fill="#666666">[int]</text>
<polygon fill="none" stroke="#000000" points="1292,-532.5 1292,-562.5 1554,-562.5 1554,-532.5 1292,-532.5"/>
<text text-anchor="start" x="1299" y="-543.9" font-family="Arial" font-size="14.00" fill="#000000">is_job_hunt_completed </text>
<text text-anchor="start" x="1446.826" y="-543.9" font-family="Arial" font-size="14.00" fill="#666666">[tinyint(1)]</text>
<polygon fill="none" stroke="#000000" points="1292,-502.5 1292,-532.5 1554,-532.5 1554,-502.5 1292,-502.5"/>
<text text-anchor="start" x="1299" y="-513.9" font-family="Arial" font-size="14.00" fill="#000000">self_introduction </text>
<text text-anchor="start" x="1404.8036" y="-513.9" font-family="Arial" font-size="14.00" fill="#666666">[text]</text>
<polygon fill="none" stroke="#000000" points="1292,-472.5 1292,-502.5 1554,-502.5 1554,-472.5 1292,-472.5"/>
<text text-anchor="start" x="1299" y="-483.9" font-family="Arial" font-size="14.00" fill="#000000">icon_url </text>
<text text-anchor="start" x="1351.8948" y="-483.9" font-family="Arial" font-size="14.00" fill="#666666">[varchar(255)]</text>
<polygon fill="none" stroke="#000000" points="1292,-442.5 1292,-472.5 1554,-472.5 1554,-442.5 1292,-442.5"/>
<text text-anchor="start" x="1299" y="-453.9" font-family="Arial" font-size="14.00" fill="#000000">created_at </text>
<text text-anchor="start" x="1369.028" y="-453.9" font-family="Arial" font-size="14.00" fill="#666666">[datetime]</text>
<polygon fill="none" stroke="#000000" points="1292,-412.5 1292,-442.5 1554,-442.5 1554,-412.5 1292,-412.5"/>
<text text-anchor="start" x="1299" y="-423.9" font-family="Arial" font-size="14.00" fill="#000000">updated_at </text>
<text text-anchor="start" x="1372.9326" y="-423.9" font-family="Arial" font-size="14.00" fill="#666666">[datetime]</text>
<polygon fill="none" stroke="#000000" points="1292,-382.5 1292,-412.5 1554,-412.5 1554,-382.5 1292,-382.5"/>
<text text-anchor="start" x="1298.5309" y="-393.9" font-family="Arial" font-size="14.00" fill="#000000">show_profile_in_public_event </text>
<text text-anchor="start" x="1486.0245" y="-393.9" font-family="Arial" font-size="14.00" fill="#666666">[tinyint(1)]</text>
<polygon fill="none" stroke="#000000" points="1292,-352.5 1292,-382.5 1554,-382.5 1554,-352.5 1292,-352.5"/>
<text text-anchor="start" x="1299" y="-363.9" font-family="Arial" font-size="14.00" fill="#000000">show_profile_in_shared_url </text>
<text text-anchor="start" x="1474.035" y="-363.9" font-family="Arial" font-size="14.00" fill="#666666">[tinyint(1)]</text>
<polygon fill="none" stroke="#000000" points="1292,-322.5 1292,-352.5 1554,-352.5 1554,-322.5 1292,-322.5"/>
<text text-anchor="start" x="1299" y="-333.9" font-family="Arial" font-size="14.00" fill="#000000">affiliation_id </text>
<text text-anchor="start" x="1376.791" y="-333.9" font-family="Arial" font-size="14.00" fill="#666666">[int unsigned]</text>
<polygon fill="none" stroke="#000000" stroke-width="3" points="1290.5,-321.5 1290.5,-779.5 1555.5,-779.5 1555.5,-321.5 1290.5,-321.5"/>
</g>
<!-- Affiliation -->
<g id="node9" class="node">
<title>Affiliation</title>
<polygon fill="#efefef" stroke="transparent" points="1316,-162.5 1316,-197.5 1530,-197.5 1530,-162.5 1316,-162.5"/>
<polygon fill="none" stroke="#000000" points="1316,-162.5 1316,-197.5 1530,-197.5 1530,-162.5 1316,-162.5"/>
<text text-anchor="start" x="1322.7129" y="-175.3" font-family="Arial Bold" font-size="18.00" fill="#000000">Affiliation</text>
<text text-anchor="start" x="1395.7191" y="-175.3" font-family="Arial" font-size="14.00" fill="#000000">    </text>
<text text-anchor="start" x="1429.9239" y="-175.3" font-family="Arial" font-size="14.00" fill="#666666">[BASE TABLE]</text>
<polygon fill="none" stroke="#000000" points="1316,-132.5 1316,-162.5 1530,-162.5 1530,-132.5 1316,-132.5"/>
<text text-anchor="start" x="1323" y="-143.9" font-family="Arial" font-size="14.00" fill="#000000">id    </text>
<text text-anchor="start" x="1368.094" y="-143.9" font-family="Arial" font-size="14.00" fill="#666666">[int unsigned]</text>
<polygon fill="none" stroke="#000000" points="1316,-102.5 1316,-132.5 1530,-132.5 1530,-102.5 1316,-102.5"/>
<text text-anchor="start" x="1323" y="-113.9" font-family="Arial" font-size="14.00" fill="#000000">name    </text>
<text text-anchor="start" x="1392.2132" y="-113.9" font-family="Arial" font-size="14.00" fill="#666666">[varchar(30)]</text>
<polygon fill="none" stroke="#000000" points="1316,-72.5 1316,-102.5 1530,-102.5 1530,-72.5 1316,-72.5"/>
<text text-anchor="start" x="1323" y="-83.9" font-family="Arial" font-size="14.00" fill="#000000">created_at    </text>
<text text-anchor="start" x="1423.3422" y="-83.9" font-family="Arial" font-size="14.00" fill="#666666">[datetime]</text>
<polygon fill="none" stroke="#000000" points="1316,-42.5 1316,-72.5 1530,-72.5 1530,-42.5 1316,-42.5"/>
<text text-anchor="start" x="1323" y="-53.9" font-family="Arial" font-size="14.00" fill="#000000">updated_at    </text>
<text text-anchor="start" x="1427.2468" y="-53.9" font-family="Arial" font-size="14.00" fill="#666666">[datetime]</text>
</g>
<!-- User&#45;&gt;Affiliation -->
<g id="edge8" class="edge">
<title>User:affiliation_id&#45;&gt;Affiliation:id</title>
<path fill="none" stroke="#000000" d="M1423.9101,-312.3219C1432.8474,-266.3678 1505.1232,-291.2194 1530,-241 1548.4459,-203.7628 1571.5556,-147.5 1530,-147.5"/>
<polygon fill="#000000" stroke="#000000" points="1423.8907,-312.5397 1418.5179,-322.0992 1423.4454,-317.5199 1423,-322.5 1423,-322.5 1423,-322.5 1423.4454,-317.5199 1427.4821,-322.9008 1423.8907,-312.5397 1423.8907,-312.5397"/>
<text text-anchor="start" x="1153.888" y="-332.5" font-family="Arial" font-size="10.00" fill="#000000">FOREIGN KEY (affiliation_id) REFERENCES Affiliation (id)</text>
</g>
<!-- Bookmark -->
<g id="node2" class="node">
<title>Bookmark</title>
<polygon fill="#efefef" stroke="transparent" points="43,-1067.5 43,-1102.5 265,-1102.5 265,-1067.5 43,-1067.5"/>
<polygon fill="none" stroke="#000000" points="43,-1067.5 43,-1102.5 265,-1102.5 265,-1067.5 43,-1067.5"/>
<text text-anchor="start" x="49.7124" y="-1080.3" font-family="Arial Bold" font-size="18.00" fill="#000000">Bookmark</text>
<text text-anchor="start" x="130.7196" y="-1080.3" font-family="Arial" font-size="14.00" fill="#000000">    </text>
<text text-anchor="start" x="164.9244" y="-1080.3" font-family="Arial" font-size="14.00" fill="#666666">[BASE TABLE]</text>
<polygon fill="none" stroke="#000000" points="43,-1037.5 43,-1067.5 265,-1067.5 265,-1037.5 43,-1037.5"/>
<text text-anchor="start" x="50" y="-1048.9" font-family="Arial" font-size="14.00" fill="#000000">work_id    </text>
<text text-anchor="start" x="132.4264" y="-1048.9" font-family="Arial" font-size="14.00" fill="#666666">[int unsigned]</text>
<polygon fill="none" stroke="#000000" points="43,-1007.5 43,-1037.5 265,-1037.5 265,-1007.5 43,-1007.5"/>
<text text-anchor="start" x="50" y="-1018.9" font-family="Arial" font-size="14.00" fill="#000000">user_id    </text>
<text text-anchor="start" x="130.1024" y="-1018.9" font-family="Arial" font-size="14.00" fill="#666666">[int unsigned]</text>
<polygon fill="none" stroke="#000000" points="43,-977.5 43,-1007.5 265,-1007.5 265,-977.5 43,-977.5"/>
<text text-anchor="start" x="50" y="-988.9" font-family="Arial" font-size="14.00" fill="#000000">created_at    </text>
<text text-anchor="start" x="150.3422" y="-988.9" font-family="Arial" font-size="14.00" fill="#666666">[datetime]</text>
<polygon fill="none" stroke="#000000" points="43,-947.5 43,-977.5 265,-977.5 265,-947.5 43,-947.5"/>
<text text-anchor="start" x="50" y="-958.9" font-family="Arial" font-size="14.00" fill="#000000">updated_at    </text>
<text text-anchor="start" x="154.2468" y="-958.9" font-family="Arial" font-size="14.00" fill="#666666">[datetime]</text>
</g>
<!-- Bookmark&#45;&gt;User -->
<g id="edge1" class="edge">
<title>Bookmark:user_id&#45;&gt;User:id</title>
<path fill="none" stroke="#000000" d="M275.0142,-1021.7071C333.1636,-1011.5456 261.745,-906.3597 317,-860 400.7545,-789.7288 1182.6709,-727.5 1292,-727.5"/>
<polygon fill="#000000" stroke="#000000" points="274.9688,-1021.7106 264.6448,-1018.014 269.9844,-1022.1053 265,-1022.5 265,-1022.5 265,-1022.5 269.9844,-1022.1053 265.3552,-1026.986 274.9688,-1021.7106 274.9688,-1021.7106"/>
<text text-anchor="start" x="153.615" y="-1006.5" font-family="Arial" font-size="10.00" fill="#000000">FOREIGN KEY (user_id) REFERENCES User (id)</text>
</g>
<!-- Email_change_verification -->
<g id="node3" class="node">
<title>Email_change_verification</title>
<polygon fill="#efefef" stroke="transparent" points="370,-1112.5 370,-1147.5 721,-1147.5 721,-1112.5 370,-1112.5"/>
<polygon fill="none" stroke="#000000" points="370,-1112.5 370,-1147.5 721,-1147.5 721,-1112.5 370,-1112.5"/>
<text text-anchor="start" x="376.6968" y="-1125.3" font-family="Arial Bold" font-size="18.00" fill="#000000">Email_change_verification</text>
<text text-anchor="start" x="586.7352" y="-1125.3" font-family="Arial" font-size="14.00" fill="#000000">    </text>
<text text-anchor="start" x="620.94" y="-1125.3" font-family="Arial" font-size="14.00" fill="#666666">[BASE TABLE]</text>
<polygon fill="none" stroke="#000000" points="370,-1082.5 370,-1112.5 721,-1112.5 721,-1082.5 370,-1082.5"/>
<text text-anchor="start" x="377" y="-1093.9" font-family="Arial" font-size="14.00" fill="#000000">id    </text>
<text text-anchor="start" x="422.094" y="-1093.9" font-family="Arial" font-size="14.00" fill="#666666">[int unsigned]</text>
<polygon fill="none" stroke="#000000" points="370,-1052.5 370,-1082.5 721,-1082.5 721,-1052.5 370,-1052.5"/>
<text text-anchor="start" x="377" y="-1063.9" font-family="Arial" font-size="14.00" fill="#000000">user_id    </text>
<text text-anchor="start" x="457.1024" y="-1063.9" font-family="Arial" font-size="14.00" fill="#666666">[int unsigned]</text>
<polygon fill="none" stroke="#000000" points="370,-1022.5 370,-1052.5 721,-1052.5 721,-1022.5 370,-1022.5"/>
<text text-anchor="start" x="377" y="-1033.9" font-family="Arial" font-size="14.00" fill="#000000">email    </text>
<text text-anchor="start" x="444.6438" y="-1033.9" font-family="Arial" font-size="14.00" fill="#666666">[varchar(255)]</text>
<polygon fill="none" stroke="#000000" points="370,-992.5 370,-1022.5 721,-1022.5 721,-992.5 370,-992.5"/>
<text text-anchor="start" x="377" y="-1003.9" font-family="Arial" font-size="14.00" fill="#000000">token    </text>
<text text-anchor="start" x="445.4432" y="-1003.9" font-family="Arial" font-size="14.00" fill="#666666">[varchar(255)]</text>
<polygon fill="none" stroke="#000000" points="370,-962.5 370,-992.5 721,-992.5 721,-962.5 370,-962.5"/>
<text text-anchor="start" x="377" y="-973.9" font-family="Arial" font-size="14.00" fill="#000000">expired_at    </text>
<text text-anchor="start" x="476.5582" y="-973.9" font-family="Arial" font-size="14.00" fill="#666666">[datetime]</text>
<polygon fill="none" stroke="#000000" points="370,-932.5 370,-962.5 721,-962.5 721,-932.5 370,-932.5"/>
<text text-anchor="start" x="377" y="-943.9" font-family="Arial" font-size="14.00" fill="#000000">created_at    </text>
<text text-anchor="start" x="477.3422" y="-943.9" font-family="Arial" font-size="14.00" fill="#666666">[datetime]</text>
<polygon fill="none" stroke="#000000" points="370,-902.5 370,-932.5 721,-932.5 721,-902.5 370,-902.5"/>
<text text-anchor="start" x="377" y="-913.9" font-family="Arial" font-size="14.00" fill="#000000">updated_at    </text>
<text text-anchor="start" x="481.2468" y="-913.9" font-family="Arial" font-size="14.00" fill="#666666">[datetime]</text>
</g>
<!-- Email_change_verification&#45;&gt;User -->
<g id="edge2" class="edge">
<title>Email_change_verification:user_id&#45;&gt;User:id</title>
<path fill="none" stroke="#000000" d="M731.2097,-1066.8715C807.5792,-1056.6683 707.7459,-924.8021 772,-860 855.9622,-775.3217 1172.7521,-727.5 1292,-727.5"/>
<polygon fill="#000000" stroke="#000000" points="730.9811,-1066.8855 720.7235,-1063.0085 725.9906,-1067.1927 721,-1067.5 721,-1067.5 721,-1067.5 725.9906,-1067.1927 721.2765,-1071.9915 730.9811,-1066.8855 730.9811,-1066.8855"/>
<text text-anchor="start" x="609.615" y="-1051.5" font-family="Arial" font-size="10.00" fill="#000000">FOREIGN KEY (user_id) REFERENCES User (id)</text>
</g>
<!-- Event_user_authority -->
<g id="node4" class="node">
<title>Event_user_authority</title>
<polygon fill="#efefef" stroke="transparent" points="825,-1082.5 825,-1117.5 1136,-1117.5 1136,-1082.5 825,-1082.5"/>
<polygon fill="none" stroke="#000000" points="825,-1082.5 825,-1117.5 1136,-1117.5 1136,-1082.5 825,-1082.5"/>
<text text-anchor="start" x="831.6903" y="-1095.3" font-family="Arial Bold" font-size="18.00" fill="#000000">Event_user_authority</text>
<text text-anchor="start" x="1001.7417" y="-1095.3" font-family="Arial" font-size="14.00" fill="#000000">    </text>
<text text-anchor="start" x="1035.9465" y="-1095.3" font-family="Arial" font-size="14.00" fill="#666666">[BASE TABLE]</text>
<polygon fill="none" stroke="#000000" points="825,-1052.5 825,-1082.5 1136,-1082.5 1136,-1052.5 825,-1052.5"/>
<text text-anchor="start" x="832" y="-1063.9" font-family="Arial" font-size="14.00" fill="#000000">event_id    </text>
<text text-anchor="start" x="919.115" y="-1063.9" font-family="Arial" font-size="14.00" fill="#666666">[int unsigned]</text>
<polygon fill="none" stroke="#000000" points="825,-1022.5 825,-1052.5 1136,-1052.5 1136,-1022.5 825,-1022.5"/>
<text text-anchor="start" x="832" y="-1033.9" font-family="Arial" font-size="14.00" fill="#000000">user_id    </text>
<text text-anchor="start" x="912.1024" y="-1033.9" font-family="Arial" font-size="14.00" fill="#666666">[int unsigned]</text>
<polygon fill="none" stroke="#000000" points="825,-992.5 825,-1022.5 1136,-1022.5 1136,-992.5 825,-992.5"/>
<text text-anchor="start" x="832" y="-1003.9" font-family="Arial" font-size="14.00" fill="#000000">authority_id    </text>
<text text-anchor="start" x="938.5554" y="-1003.9" font-family="Arial" font-size="14.00" fill="#666666">[int unsigned]</text>
<polygon fill="none" stroke="#000000" points="825,-962.5 825,-992.5 1136,-992.5 1136,-962.5 825,-962.5"/>
<text text-anchor="start" x="832" y="-973.9" font-family="Arial" font-size="14.00" fill="#000000">created_at    </text>
<text text-anchor="start" x="932.3422" y="-973.9" font-family="Arial" font-size="14.00" fill="#666666">[datetime]</text>
<polygon fill="none" stroke="#000000" points="825,-932.5 825,-962.5 1136,-962.5 1136,-932.5 825,-932.5"/>
<text text-anchor="start" x="832" y="-943.9" font-family="Arial" font-size="14.00" fill="#000000">updated_at    </text>
<text text-anchor="start" x="936.2468" y="-943.9" font-family="Arial" font-size="14.00" fill="#666666">[datetime]</text>
</g>
<!-- Event_user_authority&#45;&gt;User -->
<g id="edge3" class="edge">
<title>Event_user_authority:user_id&#45;&gt;User:id</title>
<path fill="none" stroke="#000000" d="M1146.1933,-1036.8802C1212.3244,-1028.1831 1152.0778,-929.8118 1188,-860 1222.2526,-793.4331 1217.1375,-727.5 1292,-727.5"/>
<polygon fill="#000000" stroke="#000000" points="1145.9816,-1036.893 1135.7269,-1033.0083 1140.9908,-1037.1965 1136,-1037.5 1136,-1037.5 1136,-1037.5 1140.9908,-1037.1965 1136.2731,-1041.9917 1145.9816,-1036.893 1145.9816,-1036.893"/>
<text text-anchor="start" x="1142.615" y="-1047.5" font-family="Arial" font-size="10.00" fill="#000000">FOREIGN KEY (user_id) REFERENCES User (id)</text>
</g>
<!-- Password_reset_verification -->
<g id="node5" class="node">
<title>Password_reset_verification</title>
<polygon fill="#efefef" stroke="transparent" points="1240,-1112.5 1240,-1147.5 1606,-1147.5 1606,-1112.5 1240,-1112.5"/>
<polygon fill="none" stroke="#000000" points="1240,-1112.5 1240,-1147.5 1606,-1147.5 1606,-1112.5 1240,-1112.5"/>
<text text-anchor="start" x="1246.6998" y="-1125.3" font-family="Arial Bold" font-size="18.00" fill="#000000">Password_reset_verification</text>
<text text-anchor="start" x="1471.7322" y="-1125.3" font-family="Arial" font-size="14.00" fill="#000000">    </text>
<text text-anchor="start" x="1505.937" y="-1125.3" font-family="Arial" font-size="14.00" fill="#666666">[BASE TABLE]</text>
<polygon fill="none" stroke="#000000" points="1240,-1082.5 1240,-1112.5 1606,-1112.5 1606,-1082.5 1240,-1082.5"/>
<text text-anchor="start" x="1247" y="-1093.9" font-family="Arial" font-size="14.00" fill="#000000">id    </text>
<text text-anchor="start" x="1292.094" y="-1093.9" font-family="Arial" font-size="14.00" fill="#666666">[int unsigned]</text>
<polygon fill="none" stroke="#000000" points="1240,-1052.5 1240,-1082.5 1606,-1082.5 1606,-1052.5 1240,-1052.5"/>
<text text-anchor="start" x="1247" y="-1063.9" font-family="Arial" font-size="14.00" fill="#000000">user_id    </text>
<text text-anchor="start" x="1327.1024" y="-1063.9" font-family="Arial" font-size="14.00" fill="#666666">[int unsigned]</text>
<polygon fill="none" stroke="#000000" points="1240,-1022.5 1240,-1052.5 1606,-1052.5 1606,-1022.5 1240,-1022.5"/>
<text text-anchor="start" x="1247" y="-1033.9" font-family="Arial" font-size="14.00" fill="#000000">email    </text>
<text text-anchor="start" x="1314.6438" y="-1033.9" font-family="Arial" font-size="14.00" fill="#666666">[varchar(255)]</text>
<polygon fill="none" stroke="#000000" points="1240,-992.5 1240,-1022.5 1606,-1022.5 1606,-992.5 1240,-992.5"/>
<text text-anchor="start" x="1247" y="-1003.9" font-family="Arial" font-size="14.00" fill="#000000">token    </text>
<text text-anchor="start" x="1315.4432" y="-1003.9" font-family="Arial" font-size="14.00" fill="#666666">[varchar(255)]</text>
<polygon fill="none" stroke="#000000" points="1240,-962.5 1240,-992.5 1606,-992.5 1606,-962.5 1240,-962.5"/>
<text text-anchor="start" x="1247" y="-973.9" font-family="Arial" font-size="14.00" fill="#000000">expired_at    </text>
<text text-anchor="start" x="1346.5582" y="-973.9" font-family="Arial" font-size="14.00" fill="#666666">[datetime]</text>
<polygon fill="none" stroke="#000000" points="1240,-932.5 1240,-962.5 1606,-962.5 1606,-932.5 1240,-932.5"/>
<text text-anchor="start" x="1247" y="-943.9" font-family="Arial" font-size="14.00" fill="#000000">created_at    </text>
<text text-anchor="start" x="1347.3422" y="-943.9" font-family="Arial" font-size="14.00" fill="#666666">[datetime]</text>
<polygon fill="none" stroke="#000000" points="1240,-902.5 1240,-932.5 1606,-932.5 1606,-902.5 1240,-902.5"/>
<text text-anchor="start" x="1247" y="-913.9" font-family="Arial" font-size="14.00" fill="#000000">updated_at    </text>
<text text-anchor="start" x="1351.2468" y="-913.9" font-family="Arial" font-size="14.00" fill="#666666">[datetime]</text>
</g>
<!-- Password_reset_verification&#45;&gt;User -->
<g id="edge4" class="edge">
<title>Password_reset_verification:user_id&#45;&gt;User:id</title>
<path fill="none" stroke="#000000" d="M1615.9126,-1065.3288C1677.5054,-1036.3721 1626.8513,-727.5 1554,-727.5"/>
<polygon fill="#000000" stroke="#000000" points="1615.7684,-1065.3603 1605.0372,-1063.1042 1610.8842,-1066.4302 1606,-1067.5 1606,-1067.5 1606,-1067.5 1610.8842,-1066.4302 1606.9628,-1071.8958 1615.7684,-1065.3603 1615.7684,-1065.3603"/>
<text text-anchor="start" x="1494.615" y="-1051.5" font-family="Arial" font-size="10.00" fill="#000000">FOREIGN KEY (user_id) REFERENCES User (id)</text>
</g>
<!-- User_job -->
<g id="node6" class="node">
<title>User_job</title>
<polygon fill="#efefef" stroke="transparent" points="1711,-1067.5 1711,-1102.5 1924,-1102.5 1924,-1067.5 1711,-1067.5"/>
<polygon fill="none" stroke="#000000" points="1711,-1067.5 1711,-1102.5 1924,-1102.5 1924,-1067.5 1711,-1067.5"/>
<text text-anchor="start" x="1717.7133" y="-1080.3" font-family="Arial Bold" font-size="18.00" fill="#000000">User_job</text>
<text text-anchor="start" x="1789.7187" y="-1080.3" font-family="Arial" font-size="14.00" fill="#000000">    </text>
<text text-anchor="start" x="1823.9235" y="-1080.3" font-family="Arial" font-size="14.00" fill="#666666">[BASE TABLE]</text>
<polygon fill="none" stroke="#000000" points="1711,-1037.5 1711,-1067.5 1924,-1067.5 1924,-1037.5 1711,-1037.5"/>
<text text-anchor="start" x="1718" y="-1048.9" font-family="Arial" font-size="14.00" fill="#000000">user_id    </text>
<text text-anchor="start" x="1798.1024" y="-1048.9" font-family="Arial" font-size="14.00" fill="#666666">[int unsigned]</text>
<polygon fill="none" stroke="#000000" points="1711,-1007.5 1711,-1037.5 1924,-1037.5 1924,-1007.5 1711,-1007.5"/>
<text text-anchor="start" x="1718" y="-1018.9" font-family="Arial" font-size="14.00" fill="#000000">job_id    </text>
<text text-anchor="start" x="1789.5484" y="-1018.9" font-family="Arial" font-size="14.00" fill="#666666">[int unsigned]</text>
<polygon fill="none" stroke="#000000" points="1711,-977.5 1711,-1007.5 1924,-1007.5 1924,-977.5 1711,-977.5"/>
<text text-anchor="start" x="1718" y="-988.9" font-family="Arial" font-size="14.00" fill="#000000">created_at    </text>
<text text-anchor="start" x="1818.3422" y="-988.9" font-family="Arial" font-size="14.00" fill="#666666">[datetime]</text>
<polygon fill="none" stroke="#000000" points="1711,-947.5 1711,-977.5 1924,-977.5 1924,-947.5 1711,-947.5"/>
<text text-anchor="start" x="1718" y="-958.9" font-family="Arial" font-size="14.00" fill="#000000">updated_at    </text>
<text text-anchor="start" x="1822.2468" y="-958.9" font-family="Arial" font-size="14.00" fill="#666666">[datetime]</text>
</g>
<!-- User_job&#45;&gt;User -->
<g id="edge5" class="edge">
<title>User_job:user_id&#45;&gt;User:id</title>
<path fill="none" stroke="#000000" d="M1700.8915,-1051.9385C1628.2758,-1043.2659 1696.3178,-935.9845 1658,-860 1624.2916,-793.1559 1628.8625,-727.5 1554,-727.5"/>
<polygon fill="#000000" stroke="#000000" points="1701.0154,-1051.9453 1710.7504,-1056.9931 1706.0077,-1052.2227 1711,-1052.5 1711,-1052.5 1711,-1052.5 1706.0077,-1052.2227 1711.2496,-1048.0069 1701.0154,-1051.9453 1701.0154,-1051.9453"/>
<text text-anchor="start" x="1540.615" y="-1036.5" font-family="Arial" font-size="10.00" fill="#000000">FOREIGN KEY (user_id) REFERENCES User (id)</text>
</g>
<!-- User_url -->
<g id="node7" class="node">
<title>User_url</title>
<polygon fill="#efefef" stroke="transparent" points="2028,-1097.5 2028,-1132.5 2237,-1132.5 2237,-1097.5 2028,-1097.5"/>
<polygon fill="none" stroke="#000000" points="2028,-1097.5 2028,-1132.5 2237,-1132.5 2237,-1097.5 2028,-1097.5"/>
<text text-anchor="start" x="2034.7203" y="-1110.3" font-family="Arial Bold" font-size="18.00" fill="#000000">User_url</text>
<text text-anchor="start" x="2102.7117" y="-1110.3" font-family="Arial" font-size="14.00" fill="#000000">    </text>
<text text-anchor="start" x="2136.9165" y="-1110.3" font-family="Arial" font-size="14.00" fill="#666666">[BASE TABLE]</text>
<polygon fill="none" stroke="#000000" points="2028,-1067.5 2028,-1097.5 2237,-1097.5 2237,-1067.5 2028,-1067.5"/>
<text text-anchor="start" x="2035" y="-1078.9" font-family="Arial" font-size="14.00" fill="#000000">id    </text>
<text text-anchor="start" x="2080.094" y="-1078.9" font-family="Arial" font-size="14.00" fill="#666666">[int unsigned]</text>
<polygon fill="none" stroke="#000000" points="2028,-1037.5 2028,-1067.5 2237,-1067.5 2237,-1037.5 2028,-1037.5"/>
<text text-anchor="start" x="2035" y="-1048.9" font-family="Arial" font-size="14.00" fill="#000000">user_id    </text>
<text text-anchor="start" x="2115.1024" y="-1048.9" font-family="Arial" font-size="14.00" fill="#666666">[int unsigned]</text>
<polygon fill="none" stroke="#000000" points="2028,-1007.5 2028,-1037.5 2237,-1037.5 2237,-1007.5 2028,-1007.5"/>
<text text-anchor="start" x="2035" y="-1018.9" font-family="Arial" font-size="14.00" fill="#000000">url    </text>
<text text-anchor="start" x="2084.7546" y="-1018.9" font-family="Arial" font-size="14.00" fill="#666666">[varchar(255)]</text>
<polygon fill="none" stroke="#000000" points="2028,-977.5 2028,-1007.5 2237,-1007.5 2237,-977.5 2028,-977.5"/>
<text text-anchor="start" x="2035" y="-988.9" font-family="Arial" font-size="14.00" fill="#000000">created_at    </text>
<text text-anchor="start" x="2135.3422" y="-988.9" font-family="Arial" font-size="14.00" fill="#666666">[datetime]</text>
<polygon fill="none" stroke="#000000" points="2028,-947.5 2028,-977.5 2237,-977.5 2237,-947.5 2028,-947.5"/>
<text text-anchor="start" x="2035" y="-958.9" font-family="Arial" font-size="14.00" fill="#000000">updated_at    </text>
<text text-anchor="start" x="2139.2468" y="-958.9" font-family="Arial" font-size="14.00" fill="#666666">[datetime]</text>
<polygon fill="none" stroke="#000000" points="2028,-917.5 2028,-947.5 2237,-947.5 2237,-917.5 2028,-917.5"/>
<text text-anchor="start" x="2035" y="-928.9" font-family="Arial" font-size="14.00" fill="#000000">name    </text>
<text text-anchor="start" x="2104.2132" y="-928.9" font-family="Arial" font-size="14.00" fill="#666666">[varchar(30)]</text>
</g>
<!-- User_url&#45;&gt;User -->
<g id="edge6" class="edge">
<title>User_url:user_id&#45;&gt;User:id</title>
<path fill="none" stroke="#000000" d="M2018.0133,-1051.8644C1947.1495,-1042.0611 2034.8689,-921.2966 1976,-860 1907.9154,-789.1076 1652.2916,-727.5 1554,-727.5"/>
<polygon fill="#000000" stroke="#000000" points="2018.0202,-1051.8647 2027.7141,-1056.9909 2023.0101,-1052.1824 2028,-1052.5 2028,-1052.5 2028,-1052.5 2023.0101,-1052.1824 2028.2859,-1048.0091 2018.0202,-1051.8647 2018.0202,-1051.8647"/>
<text text-anchor="start" x="1798.615" y="-1062.5" font-family="Arial" font-size="10.00" fill="#000000">FOREIGN KEY (user_id) REFERENCES User (id)</text>
</g>
<!-- Work_data_user -->
<g id="node8" class="node">
<title>Work_data_user</title>
<polygon fill="#efefef" stroke="transparent" points="2341,-1082.5 2341,-1117.5 2614,-1117.5 2614,-1082.5 2341,-1082.5"/>
<polygon fill="none" stroke="#000000" points="2341,-1082.5 2341,-1117.5 2614,-1117.5 2614,-1082.5 2341,-1082.5"/>
<text text-anchor="start" x="2347.7028" y="-1095.3" font-family="Arial Bold" font-size="18.00" fill="#000000">Work_data_user</text>
<text text-anchor="start" x="2479.7292" y="-1095.3" font-family="Arial" font-size="14.00" fill="#000000">    </text>
<text text-anchor="start" x="2513.934" y="-1095.3" font-family="Arial" font-size="14.00" fill="#666666">[BASE TABLE]</text>
<polygon fill="none" stroke="#000000" points="2341,-1052.5 2341,-1082.5 2614,-1082.5 2614,-1052.5 2341,-1052.5"/>
<text text-anchor="start" x="2348" y="-1063.9" font-family="Arial" font-size="14.00" fill="#000000">work_data_id    </text>
<text text-anchor="start" x="2465.4474" y="-1063.9" font-family="Arial" font-size="14.00" fill="#666666">[int unsigned]</text>
<polygon fill="none" stroke="#000000" points="2341,-1022.5 2341,-1052.5 2614,-1052.5 2614,-1022.5 2341,-1022.5"/>
<text text-anchor="start" x="2348" y="-1033.9" font-family="Arial" font-size="14.00" fill="#000000">user_id    </text>
<text text-anchor="start" x="2428.1024" y="-1033.9" font-family="Arial" font-size="14.00" fill="#666666">[int unsigned]</text>
<polygon fill="none" stroke="#000000" points="2341,-992.5 2341,-1022.5 2614,-1022.5 2614,-992.5 2341,-992.5"/>
<text text-anchor="start" x="2348" y="-1003.9" font-family="Arial" font-size="14.00" fill="#000000">role_explanation    </text>
<text text-anchor="start" x="2484.9018" y="-1003.9" font-family="Arial" font-size="14.00" fill="#666666">[varchar(50)]</text>
<polygon fill="none" stroke="#000000" points="2341,-962.5 2341,-992.5 2614,-992.5 2614,-962.5 2341,-962.5"/>
<text text-anchor="start" x="2348" y="-973.9" font-family="Arial" font-size="14.00" fill="#000000">created_at    </text>
<text text-anchor="start" x="2448.3422" y="-973.9" font-family="Arial" font-size="14.00" fill="#666666">[datetime]</text>
<polygon fill="none" stroke="#000000" points="2341,-932.5 2341,-962.5 2614,-962.5 2614,-932.5 2341,-932.5"/>
<text text-anchor="start" x="2348" y="-943.9" font-family="Arial" font-size="14.00" fill="#000000">updated_at    </text>
<text text-anchor="start" x="2452.2468" y="-943.9" font-family="Arial" font-size="14.00" fill="#666666">[datetime]</text>
</g>
<!-- Work_data_user&#45;&gt;User -->
<g id="edge7" class="edge">
<title>Work_data_user:user_id&#45;&gt;User:id</title>
<path fill="none" stroke="#000000" d="M2330.9428,-1036.7753C2266.6947,-1026.6258 2347.3957,-912.4789 2289,-860 2165.5573,-749.0647 1719.9661,-727.5 1554,-727.5"/>
<polygon fill="#000000" stroke="#000000" points="2331.0259,-1036.7812 2340.6765,-1041.9884 2336.0129,-1037.1406 2341,-1037.5 2341,-1037.5 2341,-1037.5 2336.0129,-1037.1406 2341.3235,-1033.0116 2331.0259,-1036.7812 2331.0259,-1036.7812"/>
<text text-anchor="start" x="2111.615" y="-1047.5" font-family="Arial" font-size="10.00" fill="#000000">FOREIGN KEY (user_id) REFERENCES User (id)</text>
</g>
</g>
</svg>
