<?xml version="1.0" encoding="UTF-8" standalone="no"?>
<!DOCTYPE svg PUBLIC "-//W3C//DTD SVG 1.1//EN"
 "http://www.w3.org/Graphics/SVG/1.1/DTD/svg11.dtd">
<!-- Generated by graphviz version 2.40.1 (20161225.0304)
 -->
<!-- Title: Work_data_technology Pages: 1 -->
<svg width="919pt" height="802pt"
 viewBox="0.00 0.00 919.00 802.00" xmlns="http://www.w3.org/2000/svg" xmlns:xlink="http://www.w3.org/1999/xlink">
<g id="graph0" class="graph" transform="scale(1 1) rotate(0) translate(4 798)">
<title>Work_data_technology</title>
<polygon fill="#ffffff" stroke="transparent" points="-4,4 -4,-798 915,-798 915,4 -4,4"/>
<!-- Work_data_technology -->
<g id="node1" class="node">
<title>Work_data_technology</title>
<polygon fill="#efefef" stroke="transparent" points="290,-712.5 290,-747.5 615,-747.5 615,-712.5 290,-712.5"/>
<polygon fill="none" stroke="#000000" points="290,-712.5 290,-747.5 615,-747.5 615,-712.5 290,-712.5"/>
<text text-anchor="start" x="296.6883" y="-725.3" font-family="Arial Bold" font-size="18.00" fill="#000000">Work_data_technology</text>
<text text-anchor="start" x="480.7437" y="-725.3" font-family="Arial" font-size="14.00" fill="#000000">    </text>
<text text-anchor="start" x="514.9485" y="-725.3" font-family="Arial" font-size="14.00" fill="#666666">[BASE TABLE]</text>
<polygon fill="none" stroke="#000000" points="290,-682.5 290,-712.5 615,-712.5 615,-682.5 290,-682.5"/>
<text text-anchor="start" x="297" y="-693.9" font-family="Arial" font-size="14.00" fill="#000000">work_data_id </text>
<text text-anchor="start" x="384.1332" y="-693.9" font-family="Arial" font-size="14.00" fill="#666666">[int unsigned]</text>
<polygon fill="none" stroke="#000000" points="290,-652.5 290,-682.5 615,-682.5 615,-652.5 290,-652.5"/>
<text text-anchor="start" x="297" y="-663.9" font-family="Arial" font-size="14.00" fill="#000000">technology_id </text>
<text text-anchor="start" x="387.2552" y="-663.9" font-family="Arial" font-size="14.00" fill="#666666">[int unsigned]</text>
<polygon fill="none" stroke="#000000" points="290,-622.5 290,-652.5 615,-652.5 615,-622.5 290,-622.5"/>
<text text-anchor="start" x="297" y="-633.9" font-family="Arial" font-size="14.00" fill="#000000">created_at </text>
<text text-anchor="start" x="367.028" y="-633.9" font-family="Arial" font-size="14.00" fill="#666666">[datetime]</text>
<polygon fill="none" stroke="#000000" points="290,-592.5 290,-622.5 615,-622.5 615,-592.5 290,-592.5"/>
<text text-anchor="start" x="297" y="-603.9" font-family="Arial" font-size="14.00" fill="#000000">updated_at </text>
<text text-anchor="start" x="370.9326" y="-603.9" font-family="Arial" font-size="14.00" fill="#666666">[datetime]</text>
<polygon fill="none" stroke="#000000" stroke-width="3" points="288,-591.5 288,-749.5 616,-749.5 616,-591.5 288,-591.5"/>
</g>
<!-- Work_data -->
<g id="node2" class="node">
<title>Work_data</title>
<polygon fill="#efefef" stroke="transparent" points="147,-432.5 147,-467.5 408,-467.5 408,-432.5 147,-432.5"/>
<polygon fill="none" stroke="#000000" points="147,-432.5 147,-467.5 408,-467.5 408,-432.5 147,-432.5"/>
<text text-anchor="start" x="170.2082" y="-445.3" font-family="Arial Bold" font-size="18.00" fill="#000000">Work_data</text>
<text text-anchor="start" x="257.2238" y="-445.3" font-family="Arial" font-size="14.00" fill="#000000">    </text>
<text text-anchor="start" x="291.4286" y="-445.3" font-family="Arial" font-size="14.00" fill="#666666">[BASE TABLE]</text>
<polygon fill="none" stroke="#000000" points="147,-402.5 147,-432.5 408,-432.5 408,-402.5 147,-402.5"/>
<text text-anchor="start" x="154" y="-413.9" font-family="Arial" font-size="14.00" fill="#000000">id    </text>
<text text-anchor="start" x="199.094" y="-413.9" font-family="Arial" font-size="14.00" fill="#666666">[int unsigned]</text>
<polygon fill="none" stroke="#000000" points="147,-372.5 147,-402.5 408,-402.5 408,-372.5 147,-372.5"/>
<text text-anchor="start" x="154" y="-383.9" font-family="Arial" font-size="14.00" fill="#000000">work_id    </text>
<text text-anchor="start" x="236.4264" y="-383.9" font-family="Arial" font-size="14.00" fill="#666666">[int unsigned]</text>
<polygon fill="none" stroke="#000000" points="147,-342.5 147,-372.5 408,-372.5 408,-342.5 147,-342.5"/>
<text text-anchor="start" x="154" y="-353.9" font-family="Arial" font-size="14.00" fill="#000000">name    </text>
<text text-anchor="start" x="223.2132" y="-353.9" font-family="Arial" font-size="14.00" fill="#666666">[varchar(100)]</text>
<polygon fill="none" stroke="#000000" points="147,-312.5 147,-342.5 408,-342.5 408,-312.5 147,-312.5"/>
<text text-anchor="start" x="154" y="-323.9" font-family="Arial" font-size="14.00" fill="#000000">catch_copy    </text>
<text text-anchor="start" x="259.0084" y="-323.9" font-family="Arial" font-size="14.00" fill="#666666">[varchar(100)]</text>
<polygon fill="none" stroke="#000000" points="147,-282.5 147,-312.5 408,-312.5 408,-282.5 147,-282.5"/>
<text text-anchor="start" x="154" y="-293.9" font-family="Arial" font-size="14.00" fill="#000000">description    </text>
<text text-anchor="start" x="255.8822" y="-293.9" font-family="Arial" font-size="14.00" fill="#666666">[varchar(500)]</text>
<polygon fill="none" stroke="#000000" points="147,-252.5 147,-282.5 408,-282.5 408,-252.5 147,-252.5"/>
<text text-anchor="start" x="154" y="-263.9" font-family="Arial" font-size="14.00" fill="#000000">movie_url    </text>
<text text-anchor="start" x="248.8696" y="-263.9" font-family="Arial" font-size="14.00" fill="#666666">[varchar(255)]</text>
<polygon fill="none" stroke="#000000" points="147,-222.5 147,-252.5 408,-252.5 408,-222.5 147,-222.5"/>
<text text-anchor="start" x="153.8345" y="-233.9" font-family="Arial" font-size="14.00" fill="#000000">system_diagram_url    </text>
<text text-anchor="start" x="314.0463" y="-233.9" font-family="Arial" font-size="14.00" fill="#666666">[varchar(255)]</text>
<polygon fill="none" stroke="#000000" points="147,-192.5 147,-222.5 408,-222.5 408,-192.5 147,-192.5"/>
<text text-anchor="start" x="154" y="-203.9" font-family="Arial" font-size="14.00" fill="#000000">detail    </text>
<text text-anchor="start" x="221.6564" y="-203.9" font-family="Arial" font-size="14.00" fill="#666666">[text]</text>
<polygon fill="none" stroke="#000000" points="147,-162.5 147,-192.5 408,-192.5 408,-162.5 147,-162.5"/>
<text text-anchor="start" x="154" y="-173.9" font-family="Arial" font-size="14.00" fill="#000000">is_approved    </text>
<text text-anchor="start" x="264.4502" y="-173.9" font-family="Arial" font-size="14.00" fill="#666666">[tinyint(1)]</text>
<polygon fill="none" stroke="#000000" points="147,-132.5 147,-162.5 408,-162.5 408,-132.5 147,-132.5"/>
<text text-anchor="start" x="154" y="-143.9" font-family="Arial" font-size="14.00" fill="#000000">created_at    </text>
<text text-anchor="start" x="254.3422" y="-143.9" font-family="Arial" font-size="14.00" fill="#666666">[datetime]</text>
<polygon fill="none" stroke="#000000" points="147,-102.5 147,-132.5 408,-132.5 408,-102.5 147,-102.5"/>
<text text-anchor="start" x="154" y="-113.9" font-family="Arial" font-size="14.00" fill="#000000">updated_at    </text>
<text text-anchor="start" x="258.2468" y="-113.9" font-family="Arial" font-size="14.00" fill="#666666">[datetime]</text>
<polygon fill="none" stroke="#000000" points="147,-72.5 147,-102.5 408,-102.5 408,-72.5 147,-72.5"/>
<text text-anchor="start" x="154" y="-83.9" font-family="Arial" font-size="14.00" fill="#000000">work_url    </text>
<text text-anchor="start" x="241.087" y="-83.9" font-family="Arial" font-size="14.00" fill="#666666">[varchar(255)]</text>
<polygon fill="none" stroke="#000000" points="147,-42.5 147,-72.5 408,-72.5 408,-42.5 147,-42.5"/>
<text text-anchor="start" x="154" y="-53.9" font-family="Arial" font-size="14.00" fill="#000000">thumbnail_url    </text>
<text text-anchor="start" x="272.2146" y="-53.9" font-family="Arial" font-size="14.00" fill="#666666">[varchar(255)]</text>
</g>
<!-- Work_data_technology&#45;&gt;Work_data -->
<g id="edge1" class="edge">
<title>Work_data_technology:work_data_id&#45;&gt;Work_data:id</title>
<path fill="none" stroke="#000000" d="M279.8559,-696.6549C226.1117,-687.0473 252.3738,-597.8175 290,-547 322.6276,-502.9335 375.3724,-555.0665 408,-511 432.7281,-477.6026 449.5556,-417.5 408,-417.5"/>
<polygon fill="#000000" stroke="#000000" points="280.0345,-696.6697 289.6263,-701.9845 285.0173,-697.0848 290,-697.5 290,-697.5 290,-697.5 285.0173,-697.0848 290.3737,-693.0155 280.0345,-696.6697 280.0345,-696.6697"/>
<text text-anchor="start" x="6.66" y="-707.5" font-family="Arial" font-size="10.00" fill="#000000">FOREIGN KEY (work_data_id) REFERENCES Work_data (id)</text>
</g>
<!-- Technology -->
<g id="node3" class="node">
<title>Technology</title>
<polygon fill="#efefef" stroke="transparent" points="512,-297.5 512,-332.5 746,-332.5 746,-297.5 512,-297.5"/>
<polygon fill="none" stroke="#000000" points="512,-297.5 512,-332.5 746,-332.5 746,-297.5 512,-297.5"/>
<text text-anchor="start" x="518.7022" y="-310.3" font-family="Arial Bold" font-size="18.00" fill="#000000">Technology</text>
<text text-anchor="start" x="611.7298" y="-310.3" font-family="Arial" font-size="14.00" fill="#000000">    </text>
<text text-anchor="start" x="645.9346" y="-310.3" font-family="Arial" font-size="14.00" fill="#666666">[BASE TABLE]</text>
<polygon fill="none" stroke="#000000" points="512,-267.5 512,-297.5 746,-297.5 746,-267.5 512,-267.5"/>
<text text-anchor="start" x="519" y="-278.9" font-family="Arial" font-size="14.00" fill="#000000">id    </text>
<text text-anchor="start" x="564.094" y="-278.9" font-family="Arial" font-size="14.00" fill="#666666">[int unsigned]</text>
<polygon fill="none" stroke="#000000" points="512,-237.5 512,-267.5 746,-267.5 746,-237.5 512,-237.5"/>
<text text-anchor="start" x="519" y="-248.9" font-family="Arial" font-size="14.00" fill="#000000">name    </text>
<text text-anchor="start" x="588.2132" y="-248.9" font-family="Arial" font-size="14.00" fill="#666666">[varchar(30)]</text>
<polygon fill="none" stroke="#000000" points="512,-207.5 512,-237.5 746,-237.5 746,-207.5 512,-207.5"/>
<text text-anchor="start" x="519" y="-218.9" font-family="Arial" font-size="14.00" fill="#000000">created_at    </text>
<text text-anchor="start" x="619.3422" y="-218.9" font-family="Arial" font-size="14.00" fill="#666666">[datetime]</text>
<polygon fill="none" stroke="#000000" points="512,-177.5 512,-207.5 746,-207.5 746,-177.5 512,-177.5"/>
<text text-anchor="start" x="519" y="-188.9" font-family="Arial" font-size="14.00" fill="#000000">updated_at    </text>
<text text-anchor="start" x="623.2468" y="-188.9" font-family="Arial" font-size="14.00" fill="#666666">[datetime]</text>
</g>
<!-- Work_data_technology&#45;&gt;Technology -->
<g id="edge2" class="edge">
<title>Work_data_technology:technology_id&#45;&gt;Technology:id</title>
<path fill="none" stroke="#000000" d="M624.9618,-666.5081C663.1639,-657.8965 628.3318,-594.9719 615,-547 591.2437,-461.5176 535.7563,-461.4824 512,-376 500.873,-335.9618 470.4444,-282.5 512,-282.5"/>
<polygon fill="#000000" stroke="#000000" points="624.9508,-666.5091 614.5541,-663.0221 619.9754,-667.0045 615,-667.5 615,-667.5 615,-667.5 619.9754,-667.0045 615.4459,-671.9779 624.9508,-666.5091 624.9508,-666.5091"/>
<text text-anchor="start" x="621.875" y="-677.5" font-family="Arial" font-size="10.00" fill="#000000">FOREIGN KEY (technology_id) REFERENCES Technology (id)</text>
</g>
</g>
</svg>
