<?xml version="1.0" encoding="UTF-8" standalone="no"?>
<!DOCTYPE svg PUBLIC "-//W3C//DTD SVG 1.1//EN"
 "http://www.w3.org/Graphics/SVG/1.1/DTD/svg11.dtd">
<!-- Generated by graphviz version 2.40.1 (20161225.0304)
 -->
<!-- Title: Work Pages: 1 -->
<svg width="1054pt" height="1319pt"
 viewBox="0.00 0.00 1054.00 1319.00" xmlns="http://www.w3.org/2000/svg" xmlns:xlink="http://www.w3.org/1999/xlink">
<g id="graph0" class="graph" transform="scale(1 1) rotate(0) translate(4 1315)">
<title>Work</title>
<polygon fill="#ffffff" stroke="transparent" points="-4,4 -4,-1315 1050,-1315 1050,4 -4,4"/>
<!-- Work -->
<g id="node1" class="node">
<title>Work</title>
<polygon fill="#efefef" stroke="transparent" points="409,-682.5 409,-717.5 592,-717.5 592,-682.5 409,-682.5"/>
<polygon fill="none" stroke="#000000" points="409,-682.5 409,-717.5 592,-717.5 592,-682.5 409,-682.5"/>
<text text-anchor="start" x="415.7217" y="-695.3" font-family="Arial Bold" font-size="18.00" fill="#000000">Work</text>
<text text-anchor="start" x="457.7103" y="-695.3" font-family="Arial" font-size="14.00" fill="#000000">    </text>
<text text-anchor="start" x="491.9151" y="-695.3" font-family="Arial" font-size="14.00" fill="#666666">[BASE TABLE]</text>
<polygon fill="none" stroke="#000000" points="409,-652.5 409,-682.5 592,-682.5 592,-652.5 409,-652.5"/>
<text text-anchor="start" x="416" y="-663.9" font-family="Arial" font-size="14.00" fill="#000000">id </text>
<text text-anchor="start" x="430.7798" y="-663.9" font-family="Arial" font-size="14.00" fill="#666666">[int unsigned]</text>
<polygon fill="none" stroke="#000000" points="409,-622.5 409,-652.5 592,-652.5 592,-622.5 409,-622.5"/>
<text text-anchor="start" x="416" y="-633.9" font-family="Arial" font-size="14.00" fill="#000000">event_id </text>
<text text-anchor="start" x="472.8008" y="-633.9" font-family="Arial" font-size="14.00" fill="#666666">[int unsigned]</text>
<polygon fill="none" stroke="#000000" points="409,-592.5 409,-622.5 592,-622.5 592,-592.5 409,-592.5"/>
<text text-anchor="start" x="416" y="-603.9" font-family="Arial" font-size="14.00" fill="#000000">created_at </text>
<text text-anchor="start" x="486.028" y="-603.9" font-family="Arial" font-size="14.00" fill="#666666">[datetime]</text>
<polygon fill="none" stroke="#000000" points="409,-562.5 409,-592.5 592,-592.5 592,-562.5 409,-562.5"/>
<text text-anchor="start" x="416" y="-573.9" font-family="Arial" font-size="14.00" fill="#000000">updated_at </text>
<text text-anchor="start" x="489.9326" y="-573.9" font-family="Arial" font-size="14.00" fill="#666666">[datetime]</text>
<polygon fill="none" stroke="#000000" stroke-width="3" points="407,-561.5 407,-719.5 593,-719.5 593,-561.5 407,-561.5"/>
</g>
<!-- Event -->
<g id="node5" class="node">
<title>Event</title>
<polygon fill="#efefef" stroke="transparent" points="378,-402.5 378,-437.5 623,-437.5 623,-402.5 378,-402.5"/>
<polygon fill="none" stroke="#000000" points="378,-402.5 378,-437.5 623,-437.5 623,-402.5 378,-402.5"/>
<text text-anchor="start" x="413.7066" y="-415.3" font-family="Arial Bold" font-size="18.00" fill="#000000">Event</text>
<text text-anchor="start" x="459.7254" y="-415.3" font-family="Arial" font-size="14.00" fill="#000000">    </text>
<text text-anchor="start" x="493.9302" y="-415.3" font-family="Arial" font-size="14.00" fill="#666666">[BASE TABLE]</text>
<polygon fill="none" stroke="#000000" points="378,-372.5 378,-402.5 623,-402.5 623,-372.5 378,-372.5"/>
<text text-anchor="start" x="385" y="-383.9" font-family="Arial" font-size="14.00" fill="#000000">id    </text>
<text text-anchor="start" x="430.094" y="-383.9" font-family="Arial" font-size="14.00" fill="#666666">[int unsigned]</text>
<polygon fill="none" stroke="#000000" points="378,-342.5 378,-372.5 623,-372.5 623,-342.5 378,-342.5"/>
<text text-anchor="start" x="385" y="-353.9" font-family="Arial" font-size="14.00" fill="#000000">name    </text>
<text text-anchor="start" x="454.2132" y="-353.9" font-family="Arial" font-size="14.00" fill="#666666">[varchar(50)]</text>
<polygon fill="none" stroke="#000000" points="378,-312.5 378,-342.5 623,-342.5 623,-312.5 378,-312.5"/>
<text text-anchor="start" x="385" y="-323.9" font-family="Arial" font-size="14.00" fill="#000000">start_at    </text>
<text text-anchor="start" x="465.885" y="-323.9" font-family="Arial" font-size="14.00" fill="#666666">[datetime]</text>
<polygon fill="none" stroke="#000000" points="378,-282.5 378,-312.5 623,-312.5 623,-282.5 378,-282.5"/>
<text text-anchor="start" x="385" y="-293.9" font-family="Arial" font-size="14.00" fill="#000000">end_at    </text>
<text text-anchor="start" x="462.0084" y="-293.9" font-family="Arial" font-size="14.00" fill="#666666">[datetime]</text>
<polygon fill="none" stroke="#000000" points="378,-252.5 378,-282.5 623,-282.5 623,-252.5 378,-252.5"/>
<text text-anchor="start" x="385" y="-263.9" font-family="Arial" font-size="14.00" fill="#000000">icon_url    </text>
<text text-anchor="start" x="468.209" y="-263.9" font-family="Arial" font-size="14.00" fill="#666666">[varchar(255)]</text>
<polygon fill="none" stroke="#000000" points="378,-222.5 378,-252.5 623,-252.5 623,-222.5 378,-222.5"/>
<text text-anchor="start" x="385" y="-233.9" font-family="Arial" font-size="14.00" fill="#000000">description    </text>
<text text-anchor="start" x="486.8822" y="-233.9" font-family="Arial" font-size="14.00" fill="#666666">[text]</text>
<polygon fill="none" stroke="#000000" points="378,-192.5 378,-222.5 623,-222.5 623,-192.5 378,-192.5"/>
<text text-anchor="start" x="385" y="-203.9" font-family="Arial" font-size="14.00" fill="#000000">created_at    </text>
<text text-anchor="start" x="485.3422" y="-203.9" font-family="Arial" font-size="14.00" fill="#666666">[datetime]</text>
<polygon fill="none" stroke="#000000" points="378,-162.5 378,-192.5 623,-192.5 623,-162.5 378,-162.5"/>
<text text-anchor="start" x="385" y="-173.9" font-family="Arial" font-size="14.00" fill="#000000">updated_at    </text>
<text text-anchor="start" x="489.2468" y="-173.9" font-family="Arial" font-size="14.00" fill="#666666">[datetime]</text>
<polygon fill="none" stroke="#000000" points="378,-132.5 378,-162.5 623,-162.5 623,-132.5 378,-132.5"/>
<text text-anchor="start" x="385" y="-143.9" font-family="Arial" font-size="14.00" fill="#000000">password    </text>
<text text-anchor="start" x="479.1024" y="-143.9" font-family="Arial" font-size="14.00" fill="#666666">[varchar(255)]</text>
<polygon fill="none" stroke="#000000" points="378,-102.5 378,-132.5 623,-132.5 623,-102.5 378,-102.5"/>
<text text-anchor="start" x="384.6115" y="-113.9" font-family="Arial" font-size="14.00" fill="#000000">is_requires_password    </text>
<text text-anchor="start" x="554.9439" y="-113.9" font-family="Arial" font-size="14.00" fill="#666666">[tinyint(1)]</text>
<polygon fill="none" stroke="#000000" points="378,-72.5 378,-102.5 623,-102.5 623,-72.5 378,-72.5"/>
<text text-anchor="start" x="385" y="-83.9" font-family="Arial" font-size="14.00" fill="#000000">need_proofreading    </text>
<text text-anchor="start" x="536.697" y="-83.9" font-family="Arial" font-size="14.00" fill="#666666">[tinyint(1)]</text>
<polygon fill="none" stroke="#000000" points="378,-42.5 378,-72.5 623,-72.5 623,-42.5 378,-42.5"/>
<text text-anchor="start" x="385" y="-53.9" font-family="Arial" font-size="14.00" fill="#000000">detail    </text>
<text text-anchor="start" x="452.6564" y="-53.9" font-family="Arial" font-size="14.00" fill="#666666">[text]</text>
</g>
<!-- Work&#45;&gt;Event -->
<g id="edge4" class="edge">
<title>Work:event_id&#45;&gt;Event:id</title>
<path fill="none" stroke="#000000" d="M398.7426,-636.7828C295.24,-622.1191 269.5367,-387.5 378,-387.5"/>
<polygon fill="#000000" stroke="#000000" points="399.0244,-636.8024 408.6861,-641.989 404.0122,-637.1512 409,-637.5 409,-637.5 409,-637.5 404.0122,-637.1512 409.3139,-633.011 399.0244,-636.8024 399.0244,-636.8024"/>
<text text-anchor="start" x="169.881" y="-647.5" font-family="Arial" font-size="10.00" fill="#000000">FOREIGN KEY (event_id) REFERENCES Event (id)</text>
</g>
<!-- Bookmark -->
<g id="node2" class="node">
<title>Bookmark</title>
<polygon fill="#efefef" stroke="transparent" points="43,-1097.5 43,-1132.5 265,-1132.5 265,-1097.5 43,-1097.5"/>
<polygon fill="none" stroke="#000000" points="43,-1097.5 43,-1132.5 265,-1132.5 265,-1097.5 43,-1097.5"/>
<text text-anchor="start" x="49.7124" y="-1110.3" font-family="Arial Bold" font-size="18.00" fill="#000000">Bookmark</text>
<text text-anchor="start" x="130.7196" y="-1110.3" font-family="Arial" font-size="14.00" fill="#000000">    </text>
<text text-anchor="start" x="164.9244" y="-1110.3" font-family="Arial" font-size="14.00" fill="#666666">[BASE TABLE]</text>
<polygon fill="none" stroke="#000000" points="43,-1067.5 43,-1097.5 265,-1097.5 265,-1067.5 43,-1067.5"/>
<text text-anchor="start" x="50" y="-1078.9" font-family="Arial" font-size="14.00" fill="#000000">work_id    </text>
<text text-anchor="start" x="132.4264" y="-1078.9" font-family="Arial" font-size="14.00" fill="#666666">[int unsigned]</text>
<polygon fill="none" stroke="#000000" points="43,-1037.5 43,-1067.5 265,-1067.5 265,-1037.5 43,-1037.5"/>
<text text-anchor="start" x="50" y="-1048.9" font-family="Arial" font-size="14.00" fill="#000000">user_id    </text>
<text text-anchor="start" x="130.1024" y="-1048.9" font-family="Arial" font-size="14.00" fill="#666666">[int unsigned]</text>
<polygon fill="none" stroke="#000000" points="43,-1007.5 43,-1037.5 265,-1037.5 265,-1007.5 43,-1007.5"/>
<text text-anchor="start" x="50" y="-1018.9" font-family="Arial" font-size="14.00" fill="#000000">created_at    </text>
<text text-anchor="start" x="150.3422" y="-1018.9" font-family="Arial" font-size="14.00" fill="#666666">[datetime]</text>
<polygon fill="none" stroke="#000000" points="43,-977.5 43,-1007.5 265,-1007.5 265,-977.5 43,-977.5"/>
<text text-anchor="start" x="50" y="-988.9" font-family="Arial" font-size="14.00" fill="#000000">updated_at    </text>
<text text-anchor="start" x="154.2468" y="-988.9" font-family="Arial" font-size="14.00" fill="#666666">[datetime]</text>
</g>
<!-- Bookmark&#45;&gt;Work -->
<g id="edge1" class="edge">
<title>Bookmark:work_id&#45;&gt;Work:id</title>
<path fill="none" stroke="#000000" d="M274.9115,-1080.4188C324.9084,-1057.7019 293.8572,-855.5922 317,-800 344.5531,-733.8137 337.3076,-667.5 409,-667.5"/>
<polygon fill="#000000" stroke="#000000" points="274.7866,-1080.4449 264.0752,-1078.096 269.8933,-1081.4725 265,-1082.5 265,-1082.5 265,-1082.5 269.8933,-1081.4725 265.9248,-1086.904 274.7866,-1080.4449 274.7866,-1080.4449"/>
<text text-anchor="start" x="271.675" y="-1092.5" font-family="Arial" font-size="10.00" fill="#000000">FOREIGN KEY (work_id) REFERENCES Work (id)</text>
</g>
<!-- Work_data -->
<g id="node3" class="node">
<title>Work_data</title>
<polygon fill="#efefef" stroke="transparent" points="370,-1232.5 370,-1267.5 631,-1267.5 631,-1232.5 370,-1232.5"/>
<polygon fill="none" stroke="#000000" points="370,-1232.5 370,-1267.5 631,-1267.5 631,-1232.5 370,-1232.5"/>
<text text-anchor="start" x="393.2082" y="-1245.3" font-family="Arial Bold" font-size="18.00" fill="#000000">Work_data</text>
<text text-anchor="start" x="480.2238" y="-1245.3" font-family="Arial" font-size="14.00" fill="#000000">    </text>
<text text-anchor="start" x="514.4286" y="-1245.3" font-family="Arial" font-size="14.00" fill="#666666">[BASE TABLE]</text>
<polygon fill="none" stroke="#000000" points="370,-1202.5 370,-1232.5 631,-1232.5 631,-1202.5 370,-1202.5"/>
<text text-anchor="start" x="377" y="-1213.9" font-family="Arial" font-size="14.00" fill="#000000">id    </text>
<text text-anchor="start" x="422.094" y="-1213.9" font-family="Arial" font-size="14.00" fill="#666666">[int unsigned]</text>
<polygon fill="none" stroke="#000000" points="370,-1172.5 370,-1202.5 631,-1202.5 631,-1172.5 370,-1172.5"/>
<text text-anchor="start" x="377" y="-1183.9" font-family="Arial" font-size="14.00" fill="#000000">work_id    </text>
<text text-anchor="start" x="459.4264" y="-1183.9" font-family="Arial" font-size="14.00" fill="#666666">[int unsigned]</text>
<polygon fill="none" stroke="#000000" points="370,-1142.5 370,-1172.5 631,-1172.5 631,-1142.5 370,-1142.5"/>
<text text-anchor="start" x="377" y="-1153.9" font-family="Arial" font-size="14.00" fill="#000000">name    </text>
<text text-anchor="start" x="446.2132" y="-1153.9" font-family="Arial" font-size="14.00" fill="#666666">[varchar(100)]</text>
<polygon fill="none" stroke="#000000" points="370,-1112.5 370,-1142.5 631,-1142.5 631,-1112.5 370,-1112.5"/>
<text text-anchor="start" x="377" y="-1123.9" font-family="Arial" font-size="14.00" fill="#000000">catch_copy    </text>
<text text-anchor="start" x="482.0084" y="-1123.9" font-family="Arial" font-size="14.00" fill="#666666">[varchar(100)]</text>
<polygon fill="none" stroke="#000000" points="370,-1082.5 370,-1112.5 631,-1112.5 631,-1082.5 370,-1082.5"/>
<text text-anchor="start" x="377" y="-1093.9" font-family="Arial" font-size="14.00" fill="#000000">description    </text>
<text text-anchor="start" x="478.8822" y="-1093.9" font-family="Arial" font-size="14.00" fill="#666666">[varchar(500)]</text>
<polygon fill="none" stroke="#000000" points="370,-1052.5 370,-1082.5 631,-1082.5 631,-1052.5 370,-1052.5"/>
<text text-anchor="start" x="377" y="-1063.9" font-family="Arial" font-size="14.00" fill="#000000">movie_url    </text>
<text text-anchor="start" x="471.8696" y="-1063.9" font-family="Arial" font-size="14.00" fill="#666666">[varchar(255)]</text>
<polygon fill="none" stroke="#000000" points="370,-1022.5 370,-1052.5 631,-1052.5 631,-1022.5 370,-1022.5"/>
<text text-anchor="start" x="376.8345" y="-1033.9" font-family="Arial" font-size="14.00" fill="#000000">system_diagram_url    </text>
<text text-anchor="start" x="537.0463" y="-1033.9" font-family="Arial" font-size="14.00" fill="#666666">[varchar(255)]</text>
<polygon fill="none" stroke="#000000" points="370,-992.5 370,-1022.5 631,-1022.5 631,-992.5 370,-992.5"/>
<text text-anchor="start" x="377" y="-1003.9" font-family="Arial" font-size="14.00" fill="#000000">detail    </text>
<text text-anchor="start" x="444.6564" y="-1003.9" font-family="Arial" font-size="14.00" fill="#666666">[text]</text>
<polygon fill="none" stroke="#000000" points="370,-962.5 370,-992.5 631,-992.5 631,-962.5 370,-962.5"/>
<text text-anchor="start" x="377" y="-973.9" font-family="Arial" font-size="14.00" fill="#000000">is_approved    </text>
<text text-anchor="start" x="487.4502" y="-973.9" font-family="Arial" font-size="14.00" fill="#666666">[tinyint(1)]</text>
<polygon fill="none" stroke="#000000" points="370,-932.5 370,-962.5 631,-962.5 631,-932.5 370,-932.5"/>
<text text-anchor="start" x="377" y="-943.9" font-family="Arial" font-size="14.00" fill="#000000">created_at    </text>
<text text-anchor="start" x="477.3422" y="-943.9" font-family="Arial" font-size="14.00" fill="#666666">[datetime]</text>
<polygon fill="none" stroke="#000000" points="370,-902.5 370,-932.5 631,-932.5 631,-902.5 370,-902.5"/>
<text text-anchor="start" x="377" y="-913.9" font-family="Arial" font-size="14.00" fill="#000000">updated_at    </text>
<text text-anchor="start" x="481.2468" y="-913.9" font-family="Arial" font-size="14.00" fill="#666666">[datetime]</text>
<polygon fill="none" stroke="#000000" points="370,-872.5 370,-902.5 631,-902.5 631,-872.5 370,-872.5"/>
<text text-anchor="start" x="377" y="-883.9" font-family="Arial" font-size="14.00" fill="#000000">work_url    </text>
<text text-anchor="start" x="464.087" y="-883.9" font-family="Arial" font-size="14.00" fill="#666666">[varchar(255)]</text>
<polygon fill="none" stroke="#000000" points="370,-842.5 370,-872.5 631,-872.5 631,-842.5 370,-842.5"/>
<text text-anchor="start" x="377" y="-853.9" font-family="Arial" font-size="14.00" fill="#000000">thumbnail_url    </text>
<text text-anchor="start" x="495.2146" y="-853.9" font-family="Arial" font-size="14.00" fill="#666666">[varchar(255)]</text>
</g>
<!-- Work_data&#45;&gt;Work -->
<g id="edge2" class="edge">
<title>Work_data:work_id&#45;&gt;Work:id</title>
<path fill="none" stroke="#000000" d="M361.0735,-1182.6843C316.5387,-1130.262 354.3417,-667.5 409,-667.5"/>
<polygon fill="#000000" stroke="#000000" points="361.1991,-1182.7519 367.8634,-1191.4604 365.5995,-1185.126 370,-1187.5 370,-1187.5 370,-1187.5 365.5995,-1185.126 372.1366,-1183.5396 361.1991,-1182.7519 361.1991,-1182.7519"/>
<text text-anchor="start" x="136.675" y="-1197.5" font-family="Arial" font-size="10.00" fill="#000000">FOREIGN KEY (work_id) REFERENCES Work (id)</text>
</g>
<!-- Work_share_url -->
<g id="node4" class="node">
<title>Work_share_url</title>
<polygon fill="#efefef" stroke="transparent" points="735,-1112.5 735,-1147.5 1003,-1147.5 1003,-1112.5 735,-1112.5"/>
<polygon fill="none" stroke="#000000" points="735,-1112.5 735,-1147.5 1003,-1147.5 1003,-1112.5 735,-1112.5"/>
<text text-anchor="start" x="741.7138" y="-1125.3" font-family="Arial Bold" font-size="18.00" fill="#000000">Work_share_url</text>
<text text-anchor="start" x="868.7182" y="-1125.3" font-family="Arial" font-size="14.00" fill="#000000">    </text>
<text text-anchor="start" x="902.923" y="-1125.3" font-family="Arial" font-size="14.00" fill="#666666">[BASE TABLE]</text>
<polygon fill="none" stroke="#000000" points="735,-1082.5 735,-1112.5 1003,-1112.5 1003,-1082.5 735,-1082.5"/>
<text text-anchor="start" x="742" y="-1093.9" font-family="Arial" font-size="14.00" fill="#000000">id    </text>
<text text-anchor="start" x="787.094" y="-1093.9" font-family="Arial" font-size="14.00" fill="#666666">[varchar(36)]</text>
<polygon fill="none" stroke="#000000" points="735,-1052.5 735,-1082.5 1003,-1082.5 1003,-1052.5 735,-1052.5"/>
<text text-anchor="start" x="742" y="-1063.9" font-family="Arial" font-size="14.00" fill="#000000">work_id    </text>
<text text-anchor="start" x="824.4264" y="-1063.9" font-family="Arial" font-size="14.00" fill="#666666">[int unsigned]</text>
<polygon fill="none" stroke="#000000" points="735,-1022.5 735,-1052.5 1003,-1052.5 1003,-1022.5 735,-1022.5"/>
<text text-anchor="start" x="742" y="-1033.9" font-family="Arial" font-size="14.00" fill="#000000">created_at    </text>
<text text-anchor="start" x="842.3422" y="-1033.9" font-family="Arial" font-size="14.00" fill="#666666">[datetime]</text>
<polygon fill="none" stroke="#000000" points="735,-992.5 735,-1022.5 1003,-1022.5 1003,-992.5 735,-992.5"/>
<text text-anchor="start" x="742" y="-1003.9" font-family="Arial" font-size="14.00" fill="#000000">updated_at    </text>
<text text-anchor="start" x="846.2468" y="-1003.9" font-family="Arial" font-size="14.00" fill="#666666">[datetime]</text>
<polygon fill="none" stroke="#000000" points="735,-962.5 735,-992.5 1003,-992.5 1003,-962.5 735,-962.5"/>
<text text-anchor="start" x="742" y="-973.9" font-family="Arial" font-size="14.00" fill="#000000">token    </text>
<text text-anchor="start" x="810.4432" y="-973.9" font-family="Arial" font-size="14.00" fill="#666666">[varchar(36)]</text>
</g>
<!-- Work_share_url&#45;&gt;Work -->
<g id="edge3" class="edge">
<title>Work_share_url:work_id&#45;&gt;Work:id</title>
<path fill="none" stroke="#000000" d="M724.9851,-1065.2539C678.1107,-1042.4416 704.9918,-852.4681 683,-800 655.384,-734.1137 663.4399,-667.5 592,-667.5"/>
<polygon fill="#000000" stroke="#000000" points="725.2424,-1065.3115 734.0152,-1071.8909 730.1212,-1066.4058 735,-1067.5 735,-1067.5 735,-1067.5 730.1212,-1066.4058 735.9848,-1063.1091 725.2424,-1065.3115 725.2424,-1065.3115"/>
<text text-anchor="start" x="561.675" y="-1051.5" font-family="Arial" font-size="10.00" fill="#000000">FOREIGN KEY (work_id) REFERENCES Work (id)</text>
</g>
</g>
</svg>
