<?xml version="1.0" encoding="UTF-8" standalone="no"?>
<!DOCTYPE svg PUBLIC "-//W3C//DTD SVG 1.1//EN"
 "http://www.w3.org/Graphics/SVG/1.1/DTD/svg11.dtd">
<!-- Generated by graphviz version 2.40.1 (20161225.0304)
 -->
<!-- Title: Work_data_image Pages: 1 -->
<svg width="631pt" height="862pt"
 viewBox="0.00 0.00 630.50 862.00" xmlns="http://www.w3.org/2000/svg" xmlns:xlink="http://www.w3.org/1999/xlink">
<g id="graph0" class="graph" transform="scale(1 1) rotate(0) translate(4 858)">
<title>Work_data_image</title>
<polygon fill="#ffffff" stroke="transparent" points="-4,4 -4,-858 626.5,-858 626.5,4 -4,4"/>
<!-- Work_data_image -->
<g id="node1" class="node">
<title>Work_data_image</title>
<polygon fill="#efefef" stroke="transparent" points="290,-772.5 290,-807.5 577,-807.5 577,-772.5 290,-772.5"/>
<polygon fill="none" stroke="#000000" points="290,-772.5 290,-807.5 577,-807.5 577,-772.5 290,-772.5"/>
<text text-anchor="start" x="296.7026" y="-785.3" font-family="Arial Bold" font-size="18.00" fill="#000000">Work_data_image</text>
<text text-anchor="start" x="442.7294" y="-785.3" font-family="Arial" font-size="14.00" fill="#000000">    </text>
<text text-anchor="start" x="476.9342" y="-785.3" font-family="Arial" font-size="14.00" fill="#666666">[BASE TABLE]</text>
<polygon fill="none" stroke="#000000" points="290,-742.5 290,-772.5 577,-772.5 577,-742.5 290,-742.5"/>
<text text-anchor="start" x="297" y="-753.9" font-family="Arial" font-size="14.00" fill="#000000">id </text>
<text text-anchor="start" x="311.7798" y="-753.9" font-family="Arial" font-size="14.00" fill="#666666">[int unsigned]</text>
<polygon fill="none" stroke="#000000" points="290,-712.5 290,-742.5 577,-742.5 577,-712.5 290,-712.5"/>
<text text-anchor="start" x="297" y="-723.9" font-family="Arial" font-size="14.00" fill="#000000">work_data_id </text>
<text text-anchor="start" x="384.1332" y="-723.9" font-family="Arial" font-size="14.00" fill="#666666">[int unsigned]</text>
<polygon fill="none" stroke="#000000" points="290,-682.5 290,-712.5 577,-712.5 577,-682.5 290,-682.5"/>
<text text-anchor="start" x="297" y="-693.9" font-family="Arial" font-size="14.00" fill="#000000">url </text>
<text text-anchor="start" x="316.4404" y="-693.9" font-family="Arial" font-size="14.00" fill="#666666">[varchar(255)]</text>
<polygon fill="none" stroke="#000000" points="290,-652.5 290,-682.5 577,-682.5 577,-652.5 290,-652.5"/>
<text text-anchor="start" x="297" y="-663.9" font-family="Arial" font-size="14.00" fill="#000000">order </text>
<text text-anchor="start" x="333.5596" y="-663.9" font-family="Arial" font-size="14.00" fill="#666666">[tinyint]</text>
<polygon fill="none" stroke="#000000" points="290,-622.5 290,-652.5 577,-652.5 577,-622.5 290,-622.5"/>
<text text-anchor="start" x="297" y="-633.9" font-family="Arial" font-size="14.00" fill="#000000">created_at </text>
<text text-anchor="start" x="367.028" y="-633.9" font-family="Arial" font-size="14.00" fill="#666666">[datetime]</text>
<polygon fill="none" stroke="#000000" points="290,-592.5 290,-622.5 577,-622.5 577,-592.5 290,-592.5"/>
<text text-anchor="start" x="297" y="-603.9" font-family="Arial" font-size="14.00" fill="#000000">updated_at </text>
<text text-anchor="start" x="370.9326" y="-603.9" font-family="Arial" font-size="14.00" fill="#666666">[datetime]</text>
<polygon fill="none" stroke="#000000" stroke-width="3" points="288,-591.5 288,-809.5 578,-809.5 578,-591.5 288,-591.5"/>
</g>
<!-- Work_data -->
<g id="node2" class="node">
<title>Work_data</title>
<polygon fill="#efefef" stroke="transparent" points="303,-432.5 303,-467.5 564,-467.5 564,-432.5 303,-432.5"/>
<polygon fill="none" stroke="#000000" points="303,-432.5 303,-467.5 564,-467.5 564,-432.5 303,-432.5"/>
<text text-anchor="start" x="326.2082" y="-445.3" font-family="Arial Bold" font-size="18.00" fill="#000000">Work_data</text>
<text text-anchor="start" x="413.2238" y="-445.3" font-family="Arial" font-size="14.00" fill="#000000">    </text>
<text text-anchor="start" x="447.4286" y="-445.3" font-family="Arial" font-size="14.00" fill="#666666">[BASE TABLE]</text>
<polygon fill="none" stroke="#000000" points="303,-402.5 303,-432.5 564,-432.5 564,-402.5 303,-402.5"/>
<text text-anchor="start" x="310" y="-413.9" font-family="Arial" font-size="14.00" fill="#000000">id    </text>
<text text-anchor="start" x="355.094" y="-413.9" font-family="Arial" font-size="14.00" fill="#666666">[int unsigned]</text>
<polygon fill="none" stroke="#000000" points="303,-372.5 303,-402.5 564,-402.5 564,-372.5 303,-372.5"/>
<text text-anchor="start" x="310" y="-383.9" font-family="Arial" font-size="14.00" fill="#000000">work_id    </text>
<text text-anchor="start" x="392.4264" y="-383.9" font-family="Arial" font-size="14.00" fill="#666666">[int unsigned]</text>
<polygon fill="none" stroke="#000000" points="303,-342.5 303,-372.5 564,-372.5 564,-342.5 303,-342.5"/>
<text text-anchor="start" x="310" y="-353.9" font-family="Arial" font-size="14.00" fill="#000000">name    </text>
<text text-anchor="start" x="379.2132" y="-353.9" font-family="Arial" font-size="14.00" fill="#666666">[varchar(100)]</text>
<polygon fill="none" stroke="#000000" points="303,-312.5 303,-342.5 564,-342.5 564,-312.5 303,-312.5"/>
<text text-anchor="start" x="310" y="-323.9" font-family="Arial" font-size="14.00" fill="#000000">catch_copy    </text>
<text text-anchor="start" x="415.0084" y="-323.9" font-family="Arial" font-size="14.00" fill="#666666">[varchar(100)]</text>
<polygon fill="none" stroke="#000000" points="303,-282.5 303,-312.5 564,-312.5 564,-282.5 303,-282.5"/>
<text text-anchor="start" x="310" y="-293.9" font-family="Arial" font-size="14.00" fill="#000000">description    </text>
<text text-anchor="start" x="411.8822" y="-293.9" font-family="Arial" font-size="14.00" fill="#666666">[varchar(500)]</text>
<polygon fill="none" stroke="#000000" points="303,-252.5 303,-282.5 564,-282.5 564,-252.5 303,-252.5"/>
<text text-anchor="start" x="310" y="-263.9" font-family="Arial" font-size="14.00" fill="#000000">movie_url    </text>
<text text-anchor="start" x="404.8696" y="-263.9" font-family="Arial" font-size="14.00" fill="#666666">[varchar(255)]</text>
<polygon fill="none" stroke="#000000" points="303,-222.5 303,-252.5 564,-252.5 564,-222.5 303,-222.5"/>
<text text-anchor="start" x="309.8345" y="-233.9" font-family="Arial" font-size="14.00" fill="#000000">system_diagram_url    </text>
<text text-anchor="start" x="470.0463" y="-233.9" font-family="Arial" font-size="14.00" fill="#666666">[varchar(255)]</text>
<polygon fill="none" stroke="#000000" points="303,-192.5 303,-222.5 564,-222.5 564,-192.5 303,-192.5"/>
<text text-anchor="start" x="310" y="-203.9" font-family="Arial" font-size="14.00" fill="#000000">detail    </text>
<text text-anchor="start" x="377.6564" y="-203.9" font-family="Arial" font-size="14.00" fill="#666666">[text]</text>
<polygon fill="none" stroke="#000000" points="303,-162.5 303,-192.5 564,-192.5 564,-162.5 303,-162.5"/>
<text text-anchor="start" x="310" y="-173.9" font-family="Arial" font-size="14.00" fill="#000000">is_approved    </text>
<text text-anchor="start" x="420.4502" y="-173.9" font-family="Arial" font-size="14.00" fill="#666666">[tinyint(1)]</text>
<polygon fill="none" stroke="#000000" points="303,-132.5 303,-162.5 564,-162.5 564,-132.5 303,-132.5"/>
<text text-anchor="start" x="310" y="-143.9" font-family="Arial" font-size="14.00" fill="#000000">created_at    </text>
<text text-anchor="start" x="410.3422" y="-143.9" font-family="Arial" font-size="14.00" fill="#666666">[datetime]</text>
<polygon fill="none" stroke="#000000" points="303,-102.5 303,-132.5 564,-132.5 564,-102.5 303,-102.5"/>
<text text-anchor="start" x="310" y="-113.9" font-family="Arial" font-size="14.00" fill="#000000">updated_at    </text>
<text text-anchor="start" x="414.2468" y="-113.9" font-family="Arial" font-size="14.00" fill="#666666">[datetime]</text>
<polygon fill="none" stroke="#000000" points="303,-72.5 303,-102.5 564,-102.5 564,-72.5 303,-72.5"/>
<text text-anchor="start" x="310" y="-83.9" font-family="Arial" font-size="14.00" fill="#000000">work_url    </text>
<text text-anchor="start" x="397.087" y="-83.9" font-family="Arial" font-size="14.00" fill="#666666">[varchar(255)]</text>
<polygon fill="none" stroke="#000000" points="303,-42.5 303,-72.5 564,-72.5 564,-42.5 303,-42.5"/>
<text text-anchor="start" x="310" y="-53.9" font-family="Arial" font-size="14.00" fill="#000000">thumbnail_url    </text>
<text text-anchor="start" x="428.2146" y="-53.9" font-family="Arial" font-size="14.00" fill="#666666">[varchar(255)]</text>
</g>
<!-- Work_data_image&#45;&gt;Work_data -->
<g id="edge1" class="edge">
<title>Work_data_image:work_data_id&#45;&gt;Work_data:id</title>
<path fill="none" stroke="#000000" d="M280.1266,-725.183C222.5152,-696.815 237.5519,-417.5 303,-417.5"/>
<polygon fill="#000000" stroke="#000000" points="280.2645,-725.2153 288.9719,-731.881 285.1322,-726.3576 290,-727.5 290,-727.5 290,-727.5 285.1322,-726.3576 291.0281,-723.119 280.2645,-725.2153 280.2645,-725.2153"/>
<text text-anchor="start" x="6.66" y="-737.5" font-family="Arial" font-size="10.00" fill="#000000">FOREIGN KEY (work_data_id) REFERENCES Work_data (id)</text>
</g>
</g>
</svg>
