<?xml version="1.0" encoding="UTF-8" standalone="no"?>
<!DOCTYPE svg PUBLIC "-//W3C//DTD SVG 1.1//EN"
 "http://www.w3.org/Graphics/SVG/1.1/DTD/svg11.dtd">
<!-- Generated by graphviz version 2.40.1 (20161225.0304)
 -->
<!-- Title: Work_share_url Pages: 1 -->
<svg width="562pt" height="562pt"
 viewBox="0.00 0.00 562.00 562.00" xmlns="http://www.w3.org/2000/svg" xmlns:xlink="http://www.w3.org/1999/xlink">
<g id="graph0" class="graph" transform="scale(1 1) rotate(0) translate(4 558)">
<title>Work_share_url</title>
<polygon fill="#ffffff" stroke="transparent" points="-4,4 -4,-558 558,-558 558,4 -4,4"/>
<!-- Work_share_url -->
<g id="node1" class="node">
<title>Work_share_url</title>
<polygon fill="#efefef" stroke="transparent" points="46,-472.5 46,-507.5 314,-507.5 314,-472.5 46,-472.5"/>
<polygon fill="none" stroke="#000000" points="46,-472.5 46,-507.5 314,-507.5 314,-472.5 46,-472.5"/>
<text text-anchor="start" x="52.7138" y="-485.3" font-family="Arial Bold" font-size="18.00" fill="#000000">Work_share_url</text>
<text text-anchor="start" x="179.7182" y="-485.3" font-family="Arial" font-size="14.00" fill="#000000">    </text>
<text text-anchor="start" x="213.923" y="-485.3" font-family="Arial" font-size="14.00" fill="#666666">[BASE TABLE]</text>
<polygon fill="none" stroke="#000000" points="46,-442.5 46,-472.5 314,-472.5 314,-442.5 46,-442.5"/>
<text text-anchor="start" x="53" y="-453.9" font-family="Arial" font-size="14.00" fill="#000000">id </text>
<text text-anchor="start" x="67.7798" y="-453.9" font-family="Arial" font-size="14.00" fill="#666666">[varchar(36)]</text>
<polygon fill="none" stroke="#000000" points="46,-412.5 46,-442.5 314,-442.5 314,-412.5 46,-412.5"/>
<text text-anchor="start" x="53" y="-423.9" font-family="Arial" font-size="14.00" fill="#000000">work_id </text>
<text text-anchor="start" x="105.1122" y="-423.9" font-family="Arial" font-size="14.00" fill="#666666">[int unsigned]</text>
<polygon fill="none" stroke="#000000" points="46,-382.5 46,-412.5 314,-412.5 314,-382.5 46,-382.5"/>
<text text-anchor="start" x="53" y="-393.9" font-family="Arial" font-size="14.00" fill="#000000">created_at </text>
<text text-anchor="start" x="123.028" y="-393.9" font-family="Arial" font-size="14.00" fill="#666666">[datetime]</text>
<polygon fill="none" stroke="#000000" points="46,-352.5 46,-382.5 314,-382.5 314,-352.5 46,-352.5"/>
<text text-anchor="start" x="53" y="-363.9" font-family="Arial" font-size="14.00" fill="#000000">updated_at </text>
<text text-anchor="start" x="126.9326" y="-363.9" font-family="Arial" font-size="14.00" fill="#666666">[datetime]</text>
<polygon fill="none" stroke="#000000" points="46,-322.5 46,-352.5 314,-352.5 314,-322.5 46,-322.5"/>
<text text-anchor="start" x="53" y="-333.9" font-family="Arial" font-size="14.00" fill="#000000">token </text>
<text text-anchor="start" x="91.129" y="-333.9" font-family="Arial" font-size="14.00" fill="#666666">[varchar(36)]</text>
<polygon fill="none" stroke="#000000" stroke-width="3" points="44.5,-321.5 44.5,-509.5 315.5,-509.5 315.5,-321.5 44.5,-321.5"/>
</g>
<!-- Work -->
<g id="node2" class="node">
<title>Work</title>
<polygon fill="#efefef" stroke="transparent" points="88,-162.5 88,-197.5 272,-197.5 272,-162.5 88,-162.5"/>
<polygon fill="none" stroke="#000000" points="88,-162.5 88,-197.5 272,-197.5 272,-162.5 88,-162.5"/>
<text text-anchor="start" x="95.2217" y="-175.3" font-family="Arial Bold" font-size="18.00" fill="#000000">Work</text>
<text text-anchor="start" x="137.2103" y="-175.3" font-family="Arial" font-size="14.00" fill="#000000">    </text>
<text text-anchor="start" x="171.4151" y="-175.3" font-family="Arial" font-size="14.00" fill="#666666">[BASE TABLE]</text>
<polygon fill="none" stroke="#000000" points="88,-132.5 88,-162.5 272,-162.5 272,-132.5 88,-132.5"/>
<text text-anchor="start" x="95" y="-143.9" font-family="Arial" font-size="14.00" fill="#000000">id    </text>
<text text-anchor="start" x="140.094" y="-143.9" font-family="Arial" font-size="14.00" fill="#666666">[int unsigned]</text>
<polygon fill="none" stroke="#000000" points="88,-102.5 88,-132.5 272,-132.5 272,-102.5 88,-102.5"/>
<text text-anchor="start" x="94.8156" y="-113.9" font-family="Arial" font-size="14.00" fill="#000000">event_id    </text>
<text text-anchor="start" x="181.9306" y="-113.9" font-family="Arial" font-size="14.00" fill="#666666">[int unsigned]</text>
<polygon fill="none" stroke="#000000" points="88,-72.5 88,-102.5 272,-102.5 272,-72.5 88,-72.5"/>
<text text-anchor="start" x="95" y="-83.9" font-family="Arial" font-size="14.00" fill="#000000">created_at    </text>
<text text-anchor="start" x="195.3422" y="-83.9" font-family="Arial" font-size="14.00" fill="#666666">[datetime]</text>
<polygon fill="none" stroke="#000000" points="88,-42.5 88,-72.5 272,-72.5 272,-42.5 88,-42.5"/>
<text text-anchor="start" x="95" y="-53.9" font-family="Arial" font-size="14.00" fill="#000000">updated_at    </text>
<text text-anchor="start" x="199.2468" y="-53.9" font-family="Arial" font-size="14.00" fill="#666666">[datetime]</text>
</g>
<!-- Work_share_url&#45;&gt;Work -->
<g id="edge1" class="edge">
<title>Work_share_url:work_id&#45;&gt;Work:id</title>
<path fill="none" stroke="#000000" d="M324.2893,-426.839C437.3905,-411.8652 394.2729,-147.5 272,-147.5"/>
<polygon fill="#000000" stroke="#000000" points="323.9794,-426.8588 313.7115,-423.0093 318.9897,-427.1794 314,-427.5 314,-427.5 314,-427.5 318.9897,-427.1794 314.2885,-431.9907 323.9794,-426.8588 323.9794,-426.8588"/>
<text text-anchor="start" x="320.675" y="-437.5" font-family="Arial" font-size="10.00" fill="#000000">FOREIGN KEY (work_id) REFERENCES Work (id)</text>
</g>
</g>
</svg>
