<?xml version="1.0" encoding="UTF-8" standalone="no"?>
<!DOCTYPE svg PUBLIC "-//W3C//DTD SVG 1.1//EN"
 "http://www.w3.org/Graphics/SVG/1.1/DTD/svg11.dtd">
<!-- Generated by graphviz version 2.40.1 (20161225.0304)
 -->
<!-- Title: Work_data Pages: 1 -->
<svg width="1947pt" height="1139pt"
 viewBox="0.00 0.00 1946.50 1139.00" xmlns="http://www.w3.org/2000/svg" xmlns:xlink="http://www.w3.org/1999/xlink">
<g id="graph0" class="graph" transform="scale(1 1) rotate(0) translate(4 1135)">
<title>Work_data</title>
<polygon fill="#ffffff" stroke="transparent" points="-4,4 -4,-1135 1942.5,-1135 1942.5,4 -4,4"/>
<!-- Work_data -->
<g id="node1" class="node">
<title>Work_data</title>
<polygon fill="#efefef" stroke="transparent" points="870,-712.5 870,-747.5 1101,-747.5 1101,-712.5 870,-712.5"/>
<polygon fill="none" stroke="#000000" points="870,-712.5 870,-747.5 1101,-747.5 1101,-712.5 870,-712.5"/>
<text text-anchor="start" x="878.2082" y="-725.3" font-family="Arial Bold" font-size="18.00" fill="#000000">Work_data</text>
<text text-anchor="start" x="965.2238" y="-725.3" font-family="Arial" font-size="14.00" fill="#000000">    </text>
<text text-anchor="start" x="999.4286" y="-725.3" font-family="Arial" font-size="14.00" fill="#666666">[BASE TABLE]</text>
<polygon fill="none" stroke="#000000" points="870,-682.5 870,-712.5 1101,-712.5 1101,-682.5 870,-682.5"/>
<text text-anchor="start" x="877" y="-693.9" font-family="Arial" font-size="14.00" fill="#000000">id </text>
<text text-anchor="start" x="891.7798" y="-693.9" font-family="Arial" font-size="14.00" fill="#666666">[int unsigned]</text>
<polygon fill="none" stroke="#000000" points="870,-652.5 870,-682.5 1101,-682.5 1101,-652.5 870,-652.5"/>
<text text-anchor="start" x="877" y="-663.9" font-family="Arial" font-size="14.00" fill="#000000">work_id </text>
<text text-anchor="start" x="929.1122" y="-663.9" font-family="Arial" font-size="14.00" fill="#666666">[int unsigned]</text>
<polygon fill="none" stroke="#000000" points="870,-622.5 870,-652.5 1101,-652.5 1101,-622.5 870,-622.5"/>
<text text-anchor="start" x="877" y="-633.9" font-family="Arial" font-size="14.00" fill="#000000">name </text>
<text text-anchor="start" x="915.899" y="-633.9" font-family="Arial" font-size="14.00" fill="#666666">[varchar(100)]</text>
<polygon fill="none" stroke="#000000" points="870,-592.5 870,-622.5 1101,-622.5 1101,-592.5 870,-592.5"/>
<text text-anchor="start" x="877" y="-603.9" font-family="Arial" font-size="14.00" fill="#000000">catch_copy </text>
<text text-anchor="start" x="951.6942" y="-603.9" font-family="Arial" font-size="14.00" fill="#666666">[varchar(100)]</text>
<polygon fill="none" stroke="#000000" points="870,-562.5 870,-592.5 1101,-592.5 1101,-562.5 870,-562.5"/>
<text text-anchor="start" x="877" y="-573.9" font-family="Arial" font-size="14.00" fill="#000000">description </text>
<text text-anchor="start" x="948.568" y="-573.9" font-family="Arial" font-size="14.00" fill="#666666">[varchar(500)]</text>
<polygon fill="none" stroke="#000000" points="870,-532.5 870,-562.5 1101,-562.5 1101,-532.5 870,-532.5"/>
<text text-anchor="start" x="877" y="-543.9" font-family="Arial" font-size="14.00" fill="#000000">movie_url </text>
<text text-anchor="start" x="941.5554" y="-543.9" font-family="Arial" font-size="14.00" fill="#666666">[varchar(255)]</text>
<polygon fill="none" stroke="#000000" points="870,-502.5 870,-532.5 1101,-532.5 1101,-502.5 870,-502.5"/>
<text text-anchor="start" x="876.9916" y="-513.9" font-family="Arial" font-size="14.00" fill="#000000">system_diagram_url </text>
<text text-anchor="start" x="1006.8892" y="-513.9" font-family="Arial" font-size="14.00" fill="#666666">[varchar(255)]</text>
<polygon fill="none" stroke="#000000" points="870,-472.5 870,-502.5 1101,-502.5 1101,-472.5 870,-472.5"/>
<text text-anchor="start" x="877" y="-483.9" font-family="Arial" font-size="14.00" fill="#000000">detail </text>
<text text-anchor="start" x="914.3422" y="-483.9" font-family="Arial" font-size="14.00" fill="#666666">[text]</text>
<polygon fill="none" stroke="#000000" points="870,-442.5 870,-472.5 1101,-472.5 1101,-442.5 870,-442.5"/>
<text text-anchor="start" x="877" y="-453.9" font-family="Arial" font-size="14.00" fill="#000000">is_approved </text>
<text text-anchor="start" x="957.136" y="-453.9" font-family="Arial" font-size="14.00" fill="#666666">[tinyint(1)]</text>
<polygon fill="none" stroke="#000000" points="870,-412.5 870,-442.5 1101,-442.5 1101,-412.5 870,-412.5"/>
<text text-anchor="start" x="877" y="-423.9" font-family="Arial" font-size="14.00" fill="#000000">created_at </text>
<text text-anchor="start" x="947.028" y="-423.9" font-family="Arial" font-size="14.00" fill="#666666">[datetime]</text>
<polygon fill="none" stroke="#000000" points="870,-382.5 870,-412.5 1101,-412.5 1101,-382.5 870,-382.5"/>
<text text-anchor="start" x="877" y="-393.9" font-family="Arial" font-size="14.00" fill="#000000">updated_at </text>
<text text-anchor="start" x="950.9326" y="-393.9" font-family="Arial" font-size="14.00" fill="#666666">[datetime]</text>
<polygon fill="none" stroke="#000000" points="870,-352.5 870,-382.5 1101,-382.5 1101,-352.5 870,-352.5"/>
<text text-anchor="start" x="877" y="-363.9" font-family="Arial" font-size="14.00" fill="#000000">work_url </text>
<text text-anchor="start" x="933.7728" y="-363.9" font-family="Arial" font-size="14.00" fill="#666666">[varchar(255)]</text>
<polygon fill="none" stroke="#000000" points="870,-322.5 870,-352.5 1101,-352.5 1101,-322.5 870,-322.5"/>
<text text-anchor="start" x="877" y="-333.9" font-family="Arial" font-size="14.00" fill="#000000">thumbnail_url </text>
<text text-anchor="start" x="964.9004" y="-333.9" font-family="Arial" font-size="14.00" fill="#666666">[varchar(255)]</text>
<polygon fill="none" stroke="#000000" stroke-width="3" points="868,-321.5 868,-749.5 1102,-749.5 1102,-321.5 868,-321.5"/>
</g>
<!-- Work -->
<g id="node7" class="node">
<title>Work</title>
<polygon fill="#efefef" stroke="transparent" points="894,-162.5 894,-197.5 1078,-197.5 1078,-162.5 894,-162.5"/>
<polygon fill="none" stroke="#000000" points="894,-162.5 894,-197.5 1078,-197.5 1078,-162.5 894,-162.5"/>
<text text-anchor="start" x="901.2217" y="-175.3" font-family="Arial Bold" font-size="18.00" fill="#000000">Work</text>
<text text-anchor="start" x="943.2103" y="-175.3" font-family="Arial" font-size="14.00" fill="#000000">    </text>
<text text-anchor="start" x="977.4151" y="-175.3" font-family="Arial" font-size="14.00" fill="#666666">[BASE TABLE]</text>
<polygon fill="none" stroke="#000000" points="894,-132.5 894,-162.5 1078,-162.5 1078,-132.5 894,-132.5"/>
<text text-anchor="start" x="901" y="-143.9" font-family="Arial" font-size="14.00" fill="#000000">id    </text>
<text text-anchor="start" x="946.094" y="-143.9" font-family="Arial" font-size="14.00" fill="#666666">[int unsigned]</text>
<polygon fill="none" stroke="#000000" points="894,-102.5 894,-132.5 1078,-132.5 1078,-102.5 894,-102.5"/>
<text text-anchor="start" x="900.8156" y="-113.9" font-family="Arial" font-size="14.00" fill="#000000">event_id    </text>
<text text-anchor="start" x="987.9306" y="-113.9" font-family="Arial" font-size="14.00" fill="#666666">[int unsigned]</text>
<polygon fill="none" stroke="#000000" points="894,-72.5 894,-102.5 1078,-102.5 1078,-72.5 894,-72.5"/>
<text text-anchor="start" x="901" y="-83.9" font-family="Arial" font-size="14.00" fill="#000000">created_at    </text>
<text text-anchor="start" x="1001.3422" y="-83.9" font-family="Arial" font-size="14.00" fill="#666666">[datetime]</text>
<polygon fill="none" stroke="#000000" points="894,-42.5 894,-72.5 1078,-72.5 1078,-42.5 894,-42.5"/>
<text text-anchor="start" x="901" y="-53.9" font-family="Arial" font-size="14.00" fill="#000000">updated_at    </text>
<text text-anchor="start" x="1005.2468" y="-53.9" font-family="Arial" font-size="14.00" fill="#666666">[datetime]</text>
</g>
<!-- Work_data&#45;&gt;Work -->
<g id="edge6" class="edge">
<title>Work_data:work_id&#45;&gt;Work:id</title>
<path fill="none" stroke="#000000" d="M1111.3823,-667.1782C1271.9981,-656.9836 1210.4239,-407.0967 1101,-277 1040.8922,-205.5364 954.1078,-312.4636 894,-241 867.2513,-209.1979 852.4444,-147.5 894,-147.5"/>
<polygon fill="#000000" stroke="#000000" points="1110.9952,-667.1901 1100.8605,-663.0022 1105.9976,-667.345 1101,-667.5 1101,-667.5 1101,-667.5 1105.9976,-667.345 1101.1395,-671.9978 1110.9952,-667.1901 1110.9952,-667.1901"/>
<text text-anchor="start" x="1107.675" y="-677.5" font-family="Arial" font-size="10.00" fill="#000000">FOREIGN KEY (work_id) REFERENCES Work (id)</text>
</g>
<!-- Work_data_genre -->
<g id="node2" class="node">
<title>Work_data_genre</title>
<polygon fill="#efefef" stroke="transparent" points="43,-1022.5 43,-1057.5 327,-1057.5 327,-1022.5 43,-1022.5"/>
<polygon fill="none" stroke="#000000" points="43,-1022.5 43,-1057.5 327,-1057.5 327,-1022.5 43,-1022.5"/>
<text text-anchor="start" x="49.6966" y="-1035.3" font-family="Arial Bold" font-size="18.00" fill="#000000">Work_data_genre</text>
<text text-anchor="start" x="192.7354" y="-1035.3" font-family="Arial" font-size="14.00" fill="#000000">    </text>
<text text-anchor="start" x="226.9402" y="-1035.3" font-family="Arial" font-size="14.00" fill="#666666">[BASE TABLE]</text>
<polygon fill="none" stroke="#000000" points="43,-992.5 43,-1022.5 327,-1022.5 327,-992.5 43,-992.5"/>
<text text-anchor="start" x="50" y="-1003.9" font-family="Arial" font-size="14.00" fill="#000000">work_data_id    </text>
<text text-anchor="start" x="167.4474" y="-1003.9" font-family="Arial" font-size="14.00" fill="#666666">[int unsigned]</text>
<polygon fill="none" stroke="#000000" points="43,-962.5 43,-992.5 327,-992.5 327,-962.5 43,-962.5"/>
<text text-anchor="start" x="50" y="-973.9" font-family="Arial" font-size="14.00" fill="#000000">genre_id    </text>
<text text-anchor="start" x="138.6676" y="-973.9" font-family="Arial" font-size="14.00" fill="#666666">[int unsigned]</text>
<polygon fill="none" stroke="#000000" points="43,-932.5 43,-962.5 327,-962.5 327,-932.5 43,-932.5"/>
<text text-anchor="start" x="50" y="-943.9" font-family="Arial" font-size="14.00" fill="#000000">created_at    </text>
<text text-anchor="start" x="150.3422" y="-943.9" font-family="Arial" font-size="14.00" fill="#666666">[datetime]</text>
<polygon fill="none" stroke="#000000" points="43,-902.5 43,-932.5 327,-932.5 327,-902.5 43,-902.5"/>
<text text-anchor="start" x="50" y="-913.9" font-family="Arial" font-size="14.00" fill="#000000">updated_at    </text>
<text text-anchor="start" x="154.2468" y="-913.9" font-family="Arial" font-size="14.00" fill="#666666">[datetime]</text>
</g>
<!-- Work_data_genre&#45;&gt;Work_data -->
<g id="edge1" class="edge">
<title>Work_data_genre:work_data_id&#45;&gt;Work_data:id</title>
<path fill="none" stroke="#000000" d="M337.0711,-1006.7901C401.5109,-996.845 322.8929,-884.9189 379,-830 459.7638,-750.9467 756.9858,-697.5 870,-697.5"/>
<polygon fill="#000000" stroke="#000000" points="336.9752,-1006.7967 326.6835,-1003.0111 331.9876,-1007.1484 327,-1007.5 327,-1007.5 327,-1007.5 331.9876,-1007.1484 327.3165,-1011.9889 336.9752,-1006.7967 336.9752,-1006.7967"/>
<text text-anchor="start" x="333.66" y="-1017.5" font-family="Arial" font-size="10.00" fill="#000000">FOREIGN KEY (work_data_id) REFERENCES Work_data (id)</text>
</g>
<!-- Work_data_image -->
<g id="node3" class="node">
<title>Work_data_image</title>
<polygon fill="#efefef" stroke="transparent" points="432,-1052.5 432,-1087.5 719,-1087.5 719,-1052.5 432,-1052.5"/>
<polygon fill="none" stroke="#000000" points="432,-1052.5 432,-1087.5 719,-1087.5 719,-1052.5 432,-1052.5"/>
<text text-anchor="start" x="438.7026" y="-1065.3" font-family="Arial Bold" font-size="18.00" fill="#000000">Work_data_image</text>
<text text-anchor="start" x="584.7294" y="-1065.3" font-family="Arial" font-size="14.00" fill="#000000">    </text>
<text text-anchor="start" x="618.9342" y="-1065.3" font-family="Arial" font-size="14.00" fill="#666666">[BASE TABLE]</text>
<polygon fill="none" stroke="#000000" points="432,-1022.5 432,-1052.5 719,-1052.5 719,-1022.5 432,-1022.5"/>
<text text-anchor="start" x="439" y="-1033.9" font-family="Arial" font-size="14.00" fill="#000000">id    </text>
<text text-anchor="start" x="484.094" y="-1033.9" font-family="Arial" font-size="14.00" fill="#666666">[int unsigned]</text>
<polygon fill="none" stroke="#000000" points="432,-992.5 432,-1022.5 719,-1022.5 719,-992.5 432,-992.5"/>
<text text-anchor="start" x="439" y="-1003.9" font-family="Arial" font-size="14.00" fill="#000000">work_data_id    </text>
<text text-anchor="start" x="556.4474" y="-1003.9" font-family="Arial" font-size="14.00" fill="#666666">[int unsigned]</text>
<polygon fill="none" stroke="#000000" points="432,-962.5 432,-992.5 719,-992.5 719,-962.5 432,-962.5"/>
<text text-anchor="start" x="439" y="-973.9" font-family="Arial" font-size="14.00" fill="#000000">url    </text>
<text text-anchor="start" x="488.7546" y="-973.9" font-family="Arial" font-size="14.00" fill="#666666">[varchar(255)]</text>
<polygon fill="none" stroke="#000000" points="432,-932.5 432,-962.5 719,-962.5 719,-932.5 432,-932.5"/>
<text text-anchor="start" x="439" y="-943.9" font-family="Arial" font-size="14.00" fill="#000000">order    </text>
<text text-anchor="start" x="505.8738" y="-943.9" font-family="Arial" font-size="14.00" fill="#666666">[tinyint]</text>
<polygon fill="none" stroke="#000000" points="432,-902.5 432,-932.5 719,-932.5 719,-902.5 432,-902.5"/>
<text text-anchor="start" x="439" y="-913.9" font-family="Arial" font-size="14.00" fill="#000000">created_at    </text>
<text text-anchor="start" x="539.3422" y="-913.9" font-family="Arial" font-size="14.00" fill="#666666">[datetime]</text>
<polygon fill="none" stroke="#000000" points="432,-872.5 432,-902.5 719,-902.5 719,-872.5 432,-872.5"/>
<text text-anchor="start" x="439" y="-883.9" font-family="Arial" font-size="14.00" fill="#000000">updated_at    </text>
<text text-anchor="start" x="543.2468" y="-883.9" font-family="Arial" font-size="14.00" fill="#666666">[datetime]</text>
</g>
<!-- Work_data_image&#45;&gt;Work_data -->
<g id="edge2" class="edge">
<title>Work_data_image:work_data_id&#45;&gt;Work_data:id</title>
<path fill="none" stroke="#000000" d="M729.1776,-1006.8822C795.2043,-998.2121 734.9763,-900.1347 770,-830 802.9617,-763.9944 796.2219,-697.5 870,-697.5"/>
<polygon fill="#000000" stroke="#000000" points="728.9816,-1006.894 718.7273,-1003.0083 723.9908,-1007.197 719,-1007.5 719,-1007.5 719,-1007.5 723.9908,-1007.197 719.2727,-1011.9917 728.9816,-1006.894 728.9816,-1006.894"/>
<text text-anchor="start" x="725.66" y="-1017.5" font-family="Arial" font-size="10.00" fill="#000000">FOREIGN KEY (work_data_id) REFERENCES Work_data (id)</text>
</g>
<!-- Work_data_technology -->
<g id="node4" class="node">
<title>Work_data_technology</title>
<polygon fill="#efefef" stroke="transparent" points="823,-1022.5 823,-1057.5 1148,-1057.5 1148,-1022.5 823,-1022.5"/>
<polygon fill="none" stroke="#000000" points="823,-1022.5 823,-1057.5 1148,-1057.5 1148,-1022.5 823,-1022.5"/>
<text text-anchor="start" x="829.6883" y="-1035.3" font-family="Arial Bold" font-size="18.00" fill="#000000">Work_data_technology</text>
<text text-anchor="start" x="1013.7437" y="-1035.3" font-family="Arial" font-size="14.00" fill="#000000">    </text>
<text text-anchor="start" x="1047.9485" y="-1035.3" font-family="Arial" font-size="14.00" fill="#666666">[BASE TABLE]</text>
<polygon fill="none" stroke="#000000" points="823,-992.5 823,-1022.5 1148,-1022.5 1148,-992.5 823,-992.5"/>
<text text-anchor="start" x="830" y="-1003.9" font-family="Arial" font-size="14.00" fill="#000000">work_data_id    </text>
<text text-anchor="start" x="947.4474" y="-1003.9" font-family="Arial" font-size="14.00" fill="#666666">[int unsigned]</text>
<polygon fill="none" stroke="#000000" points="823,-962.5 823,-992.5 1148,-992.5 1148,-962.5 823,-962.5"/>
<text text-anchor="start" x="830" y="-973.9" font-family="Arial" font-size="14.00" fill="#000000">technology_id    </text>
<text text-anchor="start" x="950.5694" y="-973.9" font-family="Arial" font-size="14.00" fill="#666666">[int unsigned]</text>
<polygon fill="none" stroke="#000000" points="823,-932.5 823,-962.5 1148,-962.5 1148,-932.5 823,-932.5"/>
<text text-anchor="start" x="830" y="-943.9" font-family="Arial" font-size="14.00" fill="#000000">created_at    </text>
<text text-anchor="start" x="930.3422" y="-943.9" font-family="Arial" font-size="14.00" fill="#666666">[datetime]</text>
<polygon fill="none" stroke="#000000" points="823,-902.5 823,-932.5 1148,-932.5 1148,-902.5 823,-902.5"/>
<text text-anchor="start" x="830" y="-913.9" font-family="Arial" font-size="14.00" fill="#000000">updated_at    </text>
<text text-anchor="start" x="934.2468" y="-913.9" font-family="Arial" font-size="14.00" fill="#666666">[datetime]</text>
</g>
<!-- Work_data_technology&#45;&gt;Work_data -->
<g id="edge3" class="edge">
<title>Work_data_technology:work_data_id&#45;&gt;Work_data:id</title>
<path fill="none" stroke="#000000" d="M812.9366,-1005.0047C758.3439,-975.6668 803.9982,-697.5 870,-697.5"/>
<polygon fill="#000000" stroke="#000000" points="813.2939,-1005.0932 821.9169,-1011.8677 818.147,-1006.2966 823,-1007.5 823,-1007.5 823,-1007.5 818.147,-1006.2966 824.0831,-1003.1323 813.2939,-1005.0932 813.2939,-1005.0932"/>
<text text-anchor="start" x="829.66" y="-991.5" font-family="Arial" font-size="10.00" fill="#000000">FOREIGN KEY (work_data_id) REFERENCES Work_data (id)</text>
</g>
<!-- Work_data_tool -->
<g id="node5" class="node">
<title>Work_data_tool</title>
<polygon fill="#efefef" stroke="transparent" points="1252,-1022.5 1252,-1057.5 1519,-1057.5 1519,-1022.5 1252,-1022.5"/>
<polygon fill="none" stroke="#000000" points="1252,-1022.5 1252,-1057.5 1519,-1057.5 1519,-1022.5 1252,-1022.5"/>
<text text-anchor="start" x="1258.7007" y="-1035.3" font-family="Arial Bold" font-size="18.00" fill="#000000">Work_data_tool</text>
<text text-anchor="start" x="1384.7313" y="-1035.3" font-family="Arial" font-size="14.00" fill="#000000">    </text>
<text text-anchor="start" x="1418.9361" y="-1035.3" font-family="Arial" font-size="14.00" fill="#666666">[BASE TABLE]</text>
<polygon fill="none" stroke="#000000" points="1252,-992.5 1252,-1022.5 1519,-1022.5 1519,-992.5 1252,-992.5"/>
<text text-anchor="start" x="1259" y="-1003.9" font-family="Arial" font-size="14.00" fill="#000000">work_data_id    </text>
<text text-anchor="start" x="1376.4474" y="-1003.9" font-family="Arial" font-size="14.00" fill="#666666">[int unsigned]</text>
<polygon fill="none" stroke="#000000" points="1252,-962.5 1252,-992.5 1519,-992.5 1519,-962.5 1252,-962.5"/>
<text text-anchor="start" x="1259" y="-973.9" font-family="Arial" font-size="14.00" fill="#000000">tool_id    </text>
<text text-anchor="start" x="1334.439" y="-973.9" font-family="Arial" font-size="14.00" fill="#666666">[int unsigned]</text>
<polygon fill="none" stroke="#000000" points="1252,-932.5 1252,-962.5 1519,-962.5 1519,-932.5 1252,-932.5"/>
<text text-anchor="start" x="1259" y="-943.9" font-family="Arial" font-size="14.00" fill="#000000">created_at    </text>
<text text-anchor="start" x="1359.3422" y="-943.9" font-family="Arial" font-size="14.00" fill="#666666">[datetime]</text>
<polygon fill="none" stroke="#000000" points="1252,-902.5 1252,-932.5 1519,-932.5 1519,-902.5 1252,-902.5"/>
<text text-anchor="start" x="1259" y="-913.9" font-family="Arial" font-size="14.00" fill="#000000">updated_at    </text>
<text text-anchor="start" x="1363.2468" y="-913.9" font-family="Arial" font-size="14.00" fill="#666666">[datetime]</text>
</g>
<!-- Work_data_tool&#45;&gt;Work_data -->
<g id="edge4" class="edge">
<title>Work_data_tool:work_data_id&#45;&gt;Work_data:id</title>
<path fill="none" stroke="#000000" d="M1241.8017,-1006.8828C1175.6008,-998.221 1235.0896,-900.234 1200,-830 1167.1453,-764.2393 1174.5112,-697.5 1101,-697.5"/>
<polygon fill="#000000" stroke="#000000" points="1242.0183,-1006.8958 1251.7281,-1011.9918 1247.0091,-1007.1979 1252,-1007.5 1252,-1007.5 1252,-1007.5 1247.0091,-1007.1979 1252.2719,-1003.0082 1242.0183,-1006.8958 1242.0183,-1006.8958"/>
<text text-anchor="start" x="1258.66" y="-1017.5" font-family="Arial" font-size="10.00" fill="#000000">FOREIGN KEY (work_data_id) REFERENCES Work_data (id)</text>
</g>
<!-- Work_data_user -->
<g id="node6" class="node">
<title>Work_data_user</title>
<polygon fill="#efefef" stroke="transparent" points="1623,-1037.5 1623,-1072.5 1896,-1072.5 1896,-1037.5 1623,-1037.5"/>
<polygon fill="none" stroke="#000000" points="1623,-1037.5 1623,-1072.5 1896,-1072.5 1896,-1037.5 1623,-1037.5"/>
<text text-anchor="start" x="1629.7028" y="-1050.3" font-family="Arial Bold" font-size="18.00" fill="#000000">Work_data_user</text>
<text text-anchor="start" x="1761.7292" y="-1050.3" font-family="Arial" font-size="14.00" fill="#000000">    </text>
<text text-anchor="start" x="1795.934" y="-1050.3" font-family="Arial" font-size="14.00" fill="#666666">[BASE TABLE]</text>
<polygon fill="none" stroke="#000000" points="1623,-1007.5 1623,-1037.5 1896,-1037.5 1896,-1007.5 1623,-1007.5"/>
<text text-anchor="start" x="1630" y="-1018.9" font-family="Arial" font-size="14.00" fill="#000000">work_data_id    </text>
<text text-anchor="start" x="1747.4474" y="-1018.9" font-family="Arial" font-size="14.00" fill="#666666">[int unsigned]</text>
<polygon fill="none" stroke="#000000" points="1623,-977.5 1623,-1007.5 1896,-1007.5 1896,-977.5 1623,-977.5"/>
<text text-anchor="start" x="1630" y="-988.9" font-family="Arial" font-size="14.00" fill="#000000">user_id    </text>
<text text-anchor="start" x="1710.1024" y="-988.9" font-family="Arial" font-size="14.00" fill="#666666">[int unsigned]</text>
<polygon fill="none" stroke="#000000" points="1623,-947.5 1623,-977.5 1896,-977.5 1896,-947.5 1623,-947.5"/>
<text text-anchor="start" x="1630" y="-958.9" font-family="Arial" font-size="14.00" fill="#000000">role_explanation    </text>
<text text-anchor="start" x="1766.9018" y="-958.9" font-family="Arial" font-size="14.00" fill="#666666">[varchar(50)]</text>
<polygon fill="none" stroke="#000000" points="1623,-917.5 1623,-947.5 1896,-947.5 1896,-917.5 1623,-917.5"/>
<text text-anchor="start" x="1630" y="-928.9" font-family="Arial" font-size="14.00" fill="#000000">created_at    </text>
<text text-anchor="start" x="1730.3422" y="-928.9" font-family="Arial" font-size="14.00" fill="#666666">[datetime]</text>
<polygon fill="none" stroke="#000000" points="1623,-887.5 1623,-917.5 1896,-917.5 1896,-887.5 1623,-887.5"/>
<text text-anchor="start" x="1630" y="-898.9" font-family="Arial" font-size="14.00" fill="#000000">updated_at    </text>
<text text-anchor="start" x="1734.2468" y="-898.9" font-family="Arial" font-size="14.00" fill="#666666">[datetime]</text>
</g>
<!-- Work_data_user&#45;&gt;Work_data -->
<g id="edge5" class="edge">
<title>Work_data_user:work_data_id&#45;&gt;Work_data:id</title>
<path fill="none" stroke="#000000" d="M1613.0179,-1021.86C1542.2231,-1011.9894 1630.7651,-890.4232 1571,-830 1494.6892,-752.849 1209.5155,-697.5 1101,-697.5"/>
<polygon fill="#000000" stroke="#000000" points="1613.0205,-1021.8601 1622.712,-1026.9908 1618.0102,-1022.18 1623,-1022.5 1623,-1022.5 1623,-1022.5 1618.0102,-1022.18 1623.288,-1018.0092 1613.0205,-1021.8601 1613.0205,-1021.8601"/>
<text text-anchor="start" x="1629.66" y="-1032.5" font-family="Arial" font-size="10.00" fill="#000000">FOREIGN KEY (work_data_id) REFERENCES Work_data (id)</text>
</g>
</g>
</svg>
