<?xml version="1.0" encoding="UTF-8" standalone="no"?>
<!DOCTYPE svg PUBLIC "-//W3C//DTD SVG 1.1//EN"
 "http://www.w3.org/Graphics/SVG/1.1/DTD/svg11.dtd">
<!-- Generated by graphviz version 2.40.1 (20161225.0304)
 -->
<!-- Title: Work_data_genre Pages: 1 -->
<svg width="831pt" height="802pt"
 viewBox="0.00 0.00 831.00 802.00" xmlns="http://www.w3.org/2000/svg" xmlns:xlink="http://www.w3.org/1999/xlink">
<g id="graph0" class="graph" transform="scale(1 1) rotate(0) translate(4 798)">
<title>Work_data_genre</title>
<polygon fill="#ffffff" stroke="transparent" points="-4,4 -4,-798 827,-798 827,4 -4,4"/>
<!-- Work_data_genre -->
<g id="node1" class="node">
<title>Work_data_genre</title>
<polygon fill="#efefef" stroke="transparent" points="290,-712.5 290,-747.5 574,-747.5 574,-712.5 290,-712.5"/>
<polygon fill="none" stroke="#000000" points="290,-712.5 290,-747.5 574,-747.5 574,-712.5 290,-712.5"/>
<text text-anchor="start" x="296.6966" y="-725.3" font-family="Arial Bold" font-size="18.00" fill="#000000">Work_data_genre</text>
<text text-anchor="start" x="439.7354" y="-725.3" font-family="Arial" font-size="14.00" fill="#000000">    </text>
<text text-anchor="start" x="473.9402" y="-725.3" font-family="Arial" font-size="14.00" fill="#666666">[BASE TABLE]</text>
<polygon fill="none" stroke="#000000" points="290,-682.5 290,-712.5 574,-712.5 574,-682.5 290,-682.5"/>
<text text-anchor="start" x="297" y="-693.9" font-family="Arial" font-size="14.00" fill="#000000">work_data_id </text>
<text text-anchor="start" x="384.1332" y="-693.9" font-family="Arial" font-size="14.00" fill="#666666">[int unsigned]</text>
<polygon fill="none" stroke="#000000" points="290,-652.5 290,-682.5 574,-682.5 574,-652.5 290,-652.5"/>
<text text-anchor="start" x="297" y="-663.9" font-family="Arial" font-size="14.00" fill="#000000">genre_id </text>
<text text-anchor="start" x="355.3534" y="-663.9" font-family="Arial" font-size="14.00" fill="#666666">[int unsigned]</text>
<polygon fill="none" stroke="#000000" points="290,-622.5 290,-652.5 574,-652.5 574,-622.5 290,-622.5"/>
<text text-anchor="start" x="297" y="-633.9" font-family="Arial" font-size="14.00" fill="#000000">created_at </text>
<text text-anchor="start" x="367.028" y="-633.9" font-family="Arial" font-size="14.00" fill="#666666">[datetime]</text>
<polygon fill="none" stroke="#000000" points="290,-592.5 290,-622.5 574,-622.5 574,-592.5 290,-592.5"/>
<text text-anchor="start" x="297" y="-603.9" font-family="Arial" font-size="14.00" fill="#000000">updated_at </text>
<text text-anchor="start" x="370.9326" y="-603.9" font-family="Arial" font-size="14.00" fill="#666666">[datetime]</text>
<polygon fill="none" stroke="#000000" stroke-width="3" points="288.5,-591.5 288.5,-749.5 575.5,-749.5 575.5,-591.5 288.5,-591.5"/>
</g>
<!-- Work_data -->
<g id="node2" class="node">
<title>Work_data</title>
<polygon fill="#efefef" stroke="transparent" points="136,-432.5 136,-467.5 397,-467.5 397,-432.5 136,-432.5"/>
<polygon fill="none" stroke="#000000" points="136,-432.5 136,-467.5 397,-467.5 397,-432.5 136,-432.5"/>
<text text-anchor="start" x="159.2082" y="-445.3" font-family="Arial Bold" font-size="18.00" fill="#000000">Work_data</text>
<text text-anchor="start" x="246.2238" y="-445.3" font-family="Arial" font-size="14.00" fill="#000000">    </text>
<text text-anchor="start" x="280.4286" y="-445.3" font-family="Arial" font-size="14.00" fill="#666666">[BASE TABLE]</text>
<polygon fill="none" stroke="#000000" points="136,-402.5 136,-432.5 397,-432.5 397,-402.5 136,-402.5"/>
<text text-anchor="start" x="143" y="-413.9" font-family="Arial" font-size="14.00" fill="#000000">id    </text>
<text text-anchor="start" x="188.094" y="-413.9" font-family="Arial" font-size="14.00" fill="#666666">[int unsigned]</text>
<polygon fill="none" stroke="#000000" points="136,-372.5 136,-402.5 397,-402.5 397,-372.5 136,-372.5"/>
<text text-anchor="start" x="143" y="-383.9" font-family="Arial" font-size="14.00" fill="#000000">work_id    </text>
<text text-anchor="start" x="225.4264" y="-383.9" font-family="Arial" font-size="14.00" fill="#666666">[int unsigned]</text>
<polygon fill="none" stroke="#000000" points="136,-342.5 136,-372.5 397,-372.5 397,-342.5 136,-342.5"/>
<text text-anchor="start" x="143" y="-353.9" font-family="Arial" font-size="14.00" fill="#000000">name    </text>
<text text-anchor="start" x="212.2132" y="-353.9" font-family="Arial" font-size="14.00" fill="#666666">[varchar(100)]</text>
<polygon fill="none" stroke="#000000" points="136,-312.5 136,-342.5 397,-342.5 397,-312.5 136,-312.5"/>
<text text-anchor="start" x="143" y="-323.9" font-family="Arial" font-size="14.00" fill="#000000">catch_copy    </text>
<text text-anchor="start" x="248.0084" y="-323.9" font-family="Arial" font-size="14.00" fill="#666666">[varchar(100)]</text>
<polygon fill="none" stroke="#000000" points="136,-282.5 136,-312.5 397,-312.5 397,-282.5 136,-282.5"/>
<text text-anchor="start" x="143" y="-293.9" font-family="Arial" font-size="14.00" fill="#000000">description    </text>
<text text-anchor="start" x="244.8822" y="-293.9" font-family="Arial" font-size="14.00" fill="#666666">[varchar(500)]</text>
<polygon fill="none" stroke="#000000" points="136,-252.5 136,-282.5 397,-282.5 397,-252.5 136,-252.5"/>
<text text-anchor="start" x="143" y="-263.9" font-family="Arial" font-size="14.00" fill="#000000">movie_url    </text>
<text text-anchor="start" x="237.8696" y="-263.9" font-family="Arial" font-size="14.00" fill="#666666">[varchar(255)]</text>
<polygon fill="none" stroke="#000000" points="136,-222.5 136,-252.5 397,-252.5 397,-222.5 136,-222.5"/>
<text text-anchor="start" x="142.8345" y="-233.9" font-family="Arial" font-size="14.00" fill="#000000">system_diagram_url    </text>
<text text-anchor="start" x="303.0463" y="-233.9" font-family="Arial" font-size="14.00" fill="#666666">[varchar(255)]</text>
<polygon fill="none" stroke="#000000" points="136,-192.5 136,-222.5 397,-222.5 397,-192.5 136,-192.5"/>
<text text-anchor="start" x="143" y="-203.9" font-family="Arial" font-size="14.00" fill="#000000">detail    </text>
<text text-anchor="start" x="210.6564" y="-203.9" font-family="Arial" font-size="14.00" fill="#666666">[text]</text>
<polygon fill="none" stroke="#000000" points="136,-162.5 136,-192.5 397,-192.5 397,-162.5 136,-162.5"/>
<text text-anchor="start" x="143" y="-173.9" font-family="Arial" font-size="14.00" fill="#000000">is_approved    </text>
<text text-anchor="start" x="253.4502" y="-173.9" font-family="Arial" font-size="14.00" fill="#666666">[tinyint(1)]</text>
<polygon fill="none" stroke="#000000" points="136,-132.5 136,-162.5 397,-162.5 397,-132.5 136,-132.5"/>
<text text-anchor="start" x="143" y="-143.9" font-family="Arial" font-size="14.00" fill="#000000">created_at    </text>
<text text-anchor="start" x="243.3422" y="-143.9" font-family="Arial" font-size="14.00" fill="#666666">[datetime]</text>
<polygon fill="none" stroke="#000000" points="136,-102.5 136,-132.5 397,-132.5 397,-102.5 136,-102.5"/>
<text text-anchor="start" x="143" y="-113.9" font-family="Arial" font-size="14.00" fill="#000000">updated_at    </text>
<text text-anchor="start" x="247.2468" y="-113.9" font-family="Arial" font-size="14.00" fill="#666666">[datetime]</text>
<polygon fill="none" stroke="#000000" points="136,-72.5 136,-102.5 397,-102.5 397,-72.5 136,-72.5"/>
<text text-anchor="start" x="143" y="-83.9" font-family="Arial" font-size="14.00" fill="#000000">work_url    </text>
<text text-anchor="start" x="230.087" y="-83.9" font-family="Arial" font-size="14.00" fill="#666666">[varchar(255)]</text>
<polygon fill="none" stroke="#000000" points="136,-42.5 136,-72.5 397,-72.5 397,-42.5 136,-42.5"/>
<text text-anchor="start" x="143" y="-53.9" font-family="Arial" font-size="14.00" fill="#000000">thumbnail_url    </text>
<text text-anchor="start" x="261.2146" y="-53.9" font-family="Arial" font-size="14.00" fill="#666666">[varchar(255)]</text>
</g>
<!-- Work_data_genre&#45;&gt;Work_data -->
<g id="edge1" class="edge">
<title>Work_data_genre:work_data_id&#45;&gt;Work_data:id</title>
<path fill="none" stroke="#000000" d="M279.8624,-696.6596C226.1911,-687.1053 253.1001,-598.3473 290,-547 319.2808,-506.2549 367.7192,-551.7451 397,-511 421.2507,-477.2544 438.5556,-417.5 397,-417.5"/>
<polygon fill="#000000" stroke="#000000" points="280.0342,-696.6738 289.6282,-701.9846 285.0171,-697.0869 290,-697.5 290,-697.5 290,-697.5 285.0171,-697.0869 290.3718,-693.0154 280.0342,-696.6738 280.0342,-696.6738"/>
<text text-anchor="start" x="6.66" y="-707.5" font-family="Arial" font-size="10.00" fill="#000000">FOREIGN KEY (work_data_id) REFERENCES Work_data (id)</text>
</g>
<!-- Genre -->
<g id="node3" class="node">
<title>Genre</title>
<polygon fill="#efefef" stroke="transparent" points="501,-297.5 501,-332.5 692,-332.5 692,-297.5 501,-297.5"/>
<polygon fill="none" stroke="#000000" points="501,-297.5 501,-332.5 692,-332.5 692,-297.5 501,-297.5"/>
<text text-anchor="start" x="507.7095" y="-310.3" font-family="Arial Bold" font-size="18.00" fill="#000000">Genre</text>
<text text-anchor="start" x="557.7225" y="-310.3" font-family="Arial" font-size="14.00" fill="#000000">    </text>
<text text-anchor="start" x="591.9273" y="-310.3" font-family="Arial" font-size="14.00" fill="#666666">[BASE TABLE]</text>
<polygon fill="none" stroke="#000000" points="501,-267.5 501,-297.5 692,-297.5 692,-267.5 501,-267.5"/>
<text text-anchor="start" x="508" y="-278.9" font-family="Arial" font-size="14.00" fill="#000000">id    </text>
<text text-anchor="start" x="553.094" y="-278.9" font-family="Arial" font-size="14.00" fill="#666666">[int unsigned]</text>
<polygon fill="none" stroke="#000000" points="501,-237.5 501,-267.5 692,-267.5 692,-237.5 501,-237.5"/>
<text text-anchor="start" x="508" y="-248.9" font-family="Arial" font-size="14.00" fill="#000000">name    </text>
<text text-anchor="start" x="577.2132" y="-248.9" font-family="Arial" font-size="14.00" fill="#666666">[varchar(30)]</text>
<polygon fill="none" stroke="#000000" points="501,-207.5 501,-237.5 692,-237.5 692,-207.5 501,-207.5"/>
<text text-anchor="start" x="508" y="-218.9" font-family="Arial" font-size="14.00" fill="#000000">created_at    </text>
<text text-anchor="start" x="608.3422" y="-218.9" font-family="Arial" font-size="14.00" fill="#666666">[datetime]</text>
<polygon fill="none" stroke="#000000" points="501,-177.5 501,-207.5 692,-207.5 692,-177.5 501,-177.5"/>
<text text-anchor="start" x="508" y="-188.9" font-family="Arial" font-size="14.00" fill="#000000">updated_at    </text>
<text text-anchor="start" x="612.2468" y="-188.9" font-family="Arial" font-size="14.00" fill="#666666">[datetime]</text>
</g>
<!-- Work_data_genre&#45;&gt;Genre -->
<g id="edge2" class="edge">
<title>Work_data_genre:genre_id&#45;&gt;Genre:id</title>
<path fill="none" stroke="#000000" d="M584.4124,-666.9745C730.3311,-651.1347 330.5819,-282.5 501,-282.5"/>
<polygon fill="#000000" stroke="#000000" points="583.9873,-666.9959 573.7731,-663.0057 578.9936,-667.2479 574,-667.5 574,-667.5 574,-667.5 578.9936,-667.2479 574.2269,-671.9943 583.9873,-666.9959 583.9873,-666.9959"/>
<text text-anchor="start" x="581.217" y="-677.5" font-family="Arial" font-size="10.00" fill="#000000">FOREIGN KEY (genre_id) REFERENCES Genre (id)</text>
</g>
</g>
</svg>
