<?xml version="1.0" encoding="UTF-8" standalone="no"?>
<!DOCTYPE svg PUBLIC "-//W3C//DTD SVG 1.1//EN"
 "http://www.w3.org/Graphics/SVG/1.1/DTD/svg11.dtd">
<!-- Generated by graphviz version 2.40.1 (20161225.0304)
 -->
<!-- Title: Work_data_user Pages: 1 -->
<svg width="815pt" height="862pt"
 viewBox="0.00 0.00 814.50 862.00" xmlns="http://www.w3.org/2000/svg" xmlns:xlink="http://www.w3.org/1999/xlink">
<g id="graph0" class="graph" transform="scale(1 1) rotate(0) translate(4 858)">
<title>Work_data_user</title>
<polygon fill="#ffffff" stroke="transparent" points="-4,4 -4,-858 810.5,-858 810.5,4 -4,4"/>
<!-- Work_data_user -->
<g id="node1" class="node">
<title>Work_data_user</title>
<polygon fill="#efefef" stroke="transparent" points="290,-772.5 290,-807.5 563,-807.5 563,-772.5 290,-772.5"/>
<polygon fill="none" stroke="#000000" points="290,-772.5 290,-807.5 563,-807.5 563,-772.5 290,-772.5"/>
<text text-anchor="start" x="296.7028" y="-785.3" font-family="Arial Bold" font-size="18.00" fill="#000000">Work_data_user</text>
<text text-anchor="start" x="428.7292" y="-785.3" font-family="Arial" font-size="14.00" fill="#000000">    </text>
<text text-anchor="start" x="462.934" y="-785.3" font-family="Arial" font-size="14.00" fill="#666666">[BASE TABLE]</text>
<polygon fill="none" stroke="#000000" points="290,-742.5 290,-772.5 563,-772.5 563,-742.5 290,-742.5"/>
<text text-anchor="start" x="297" y="-753.9" font-family="Arial" font-size="14.00" fill="#000000">work_data_id </text>
<text text-anchor="start" x="384.1332" y="-753.9" font-family="Arial" font-size="14.00" fill="#666666">[int unsigned]</text>
<polygon fill="none" stroke="#000000" points="290,-712.5 290,-742.5 563,-742.5 563,-712.5 290,-712.5"/>
<text text-anchor="start" x="297" y="-723.9" font-family="Arial" font-size="14.00" fill="#000000">user_id </text>
<text text-anchor="start" x="346.7882" y="-723.9" font-family="Arial" font-size="14.00" fill="#666666">[int unsigned]</text>
<polygon fill="none" stroke="#000000" points="290,-682.5 290,-712.5 563,-712.5 563,-682.5 290,-682.5"/>
<text text-anchor="start" x="297" y="-693.9" font-family="Arial" font-size="14.00" fill="#000000">role_explanation </text>
<text text-anchor="start" x="403.5876" y="-693.9" font-family="Arial" font-size="14.00" fill="#666666">[varchar(50)]</text>
<polygon fill="none" stroke="#000000" points="290,-652.5 290,-682.5 563,-682.5 563,-652.5 290,-652.5"/>
<text text-anchor="start" x="297" y="-663.9" font-family="Arial" font-size="14.00" fill="#000000">created_at </text>
<text text-anchor="start" x="367.028" y="-663.9" font-family="Arial" font-size="14.00" fill="#666666">[datetime]</text>
<polygon fill="none" stroke="#000000" points="290,-622.5 290,-652.5 563,-652.5 563,-622.5 290,-622.5"/>
<text text-anchor="start" x="297" y="-633.9" font-family="Arial" font-size="14.00" fill="#000000">updated_at </text>
<text text-anchor="start" x="370.9326" y="-633.9" font-family="Arial" font-size="14.00" fill="#666666">[datetime]</text>
<polygon fill="none" stroke="#000000" stroke-width="3" points="288,-621.5 288,-809.5 564,-809.5 564,-621.5 288,-621.5"/>
</g>
<!-- Work_data -->
<g id="node2" class="node">
<title>Work_data</title>
<polygon fill="#efefef" stroke="transparent" points="106,-447.5 106,-482.5 367,-482.5 367,-447.5 106,-447.5"/>
<polygon fill="none" stroke="#000000" points="106,-447.5 106,-482.5 367,-482.5 367,-447.5 106,-447.5"/>
<text text-anchor="start" x="129.2082" y="-460.3" font-family="Arial Bold" font-size="18.00" fill="#000000">Work_data</text>
<text text-anchor="start" x="216.2238" y="-460.3" font-family="Arial" font-size="14.00" fill="#000000">    </text>
<text text-anchor="start" x="250.4286" y="-460.3" font-family="Arial" font-size="14.00" fill="#666666">[BASE TABLE]</text>
<polygon fill="none" stroke="#000000" points="106,-417.5 106,-447.5 367,-447.5 367,-417.5 106,-417.5"/>
<text text-anchor="start" x="113" y="-428.9" font-family="Arial" font-size="14.00" fill="#000000">id    </text>
<text text-anchor="start" x="158.094" y="-428.9" font-family="Arial" font-size="14.00" fill="#666666">[int unsigned]</text>
<polygon fill="none" stroke="#000000" points="106,-387.5 106,-417.5 367,-417.5 367,-387.5 106,-387.5"/>
<text text-anchor="start" x="113" y="-398.9" font-family="Arial" font-size="14.00" fill="#000000">work_id    </text>
<text text-anchor="start" x="195.4264" y="-398.9" font-family="Arial" font-size="14.00" fill="#666666">[int unsigned]</text>
<polygon fill="none" stroke="#000000" points="106,-357.5 106,-387.5 367,-387.5 367,-357.5 106,-357.5"/>
<text text-anchor="start" x="113" y="-368.9" font-family="Arial" font-size="14.00" fill="#000000">name    </text>
<text text-anchor="start" x="182.2132" y="-368.9" font-family="Arial" font-size="14.00" fill="#666666">[varchar(100)]</text>
<polygon fill="none" stroke="#000000" points="106,-327.5 106,-357.5 367,-357.5 367,-327.5 106,-327.5"/>
<text text-anchor="start" x="113" y="-338.9" font-family="Arial" font-size="14.00" fill="#000000">catch_copy    </text>
<text text-anchor="start" x="218.0084" y="-338.9" font-family="Arial" font-size="14.00" fill="#666666">[varchar(100)]</text>
<polygon fill="none" stroke="#000000" points="106,-297.5 106,-327.5 367,-327.5 367,-297.5 106,-297.5"/>
<text text-anchor="start" x="113" y="-308.9" font-family="Arial" font-size="14.00" fill="#000000">description    </text>
<text text-anchor="start" x="214.8822" y="-308.9" font-family="Arial" font-size="14.00" fill="#666666">[varchar(500)]</text>
<polygon fill="none" stroke="#000000" points="106,-267.5 106,-297.5 367,-297.5 367,-267.5 106,-267.5"/>
<text text-anchor="start" x="113" y="-278.9" font-family="Arial" font-size="14.00" fill="#000000">movie_url    </text>
<text text-anchor="start" x="207.8696" y="-278.9" font-family="Arial" font-size="14.00" fill="#666666">[varchar(255)]</text>
<polygon fill="none" stroke="#000000" points="106,-237.5 106,-267.5 367,-267.5 367,-237.5 106,-237.5"/>
<text text-anchor="start" x="112.8345" y="-248.9" font-family="Arial" font-size="14.00" fill="#000000">system_diagram_url    </text>
<text text-anchor="start" x="273.0463" y="-248.9" font-family="Arial" font-size="14.00" fill="#666666">[varchar(255)]</text>
<polygon fill="none" stroke="#000000" points="106,-207.5 106,-237.5 367,-237.5 367,-207.5 106,-207.5"/>
<text text-anchor="start" x="113" y="-218.9" font-family="Arial" font-size="14.00" fill="#000000">detail    </text>
<text text-anchor="start" x="180.6564" y="-218.9" font-family="Arial" font-size="14.00" fill="#666666">[text]</text>
<polygon fill="none" stroke="#000000" points="106,-177.5 106,-207.5 367,-207.5 367,-177.5 106,-177.5"/>
<text text-anchor="start" x="113" y="-188.9" font-family="Arial" font-size="14.00" fill="#000000">is_approved    </text>
<text text-anchor="start" x="223.4502" y="-188.9" font-family="Arial" font-size="14.00" fill="#666666">[tinyint(1)]</text>
<polygon fill="none" stroke="#000000" points="106,-147.5 106,-177.5 367,-177.5 367,-147.5 106,-147.5"/>
<text text-anchor="start" x="113" y="-158.9" font-family="Arial" font-size="14.00" fill="#000000">created_at    </text>
<text text-anchor="start" x="213.3422" y="-158.9" font-family="Arial" font-size="14.00" fill="#666666">[datetime]</text>
<polygon fill="none" stroke="#000000" points="106,-117.5 106,-147.5 367,-147.5 367,-117.5 106,-117.5"/>
<text text-anchor="start" x="113" y="-128.9" font-family="Arial" font-size="14.00" fill="#000000">updated_at    </text>
<text text-anchor="start" x="217.2468" y="-128.9" font-family="Arial" font-size="14.00" fill="#666666">[datetime]</text>
<polygon fill="none" stroke="#000000" points="106,-87.5 106,-117.5 367,-117.5 367,-87.5 106,-87.5"/>
<text text-anchor="start" x="113" y="-98.9" font-family="Arial" font-size="14.00" fill="#000000">work_url    </text>
<text text-anchor="start" x="200.087" y="-98.9" font-family="Arial" font-size="14.00" fill="#666666">[varchar(255)]</text>
<polygon fill="none" stroke="#000000" points="106,-57.5 106,-87.5 367,-87.5 367,-57.5 106,-57.5"/>
<text text-anchor="start" x="113" y="-68.9" font-family="Arial" font-size="14.00" fill="#000000">thumbnail_url    </text>
<text text-anchor="start" x="231.2146" y="-68.9" font-family="Arial" font-size="14.00" fill="#666666">[varchar(255)]</text>
</g>
<!-- Work_data_user&#45;&gt;Work_data -->
<g id="edge1" class="edge">
<title>Work_data_user:work_data_id&#45;&gt;Work_data:id</title>
<path fill="none" stroke="#000000" d="M279.9188,-756.8486C213.5661,-747.7117 253.7456,-644.4982 290,-577 309.4231,-540.8381 347.5769,-562.1619 367,-526 386.6633,-489.391 408.5556,-432.5 367,-432.5"/>
<polygon fill="#000000" stroke="#000000" points="280.0208,-756.8551 289.7098,-761.9906 285.0104,-757.1776 290,-757.5 290,-757.5 290,-757.5 285.0104,-757.1776 290.2902,-753.0094 280.0208,-756.8551 280.0208,-756.8551"/>
<text text-anchor="start" x="6.66" y="-767.5" font-family="Arial" font-size="10.00" fill="#000000">FOREIGN KEY (work_data_id) REFERENCES Work_data (id)</text>
</g>
<!-- User -->
<g id="node3" class="node">
<title>User</title>
<polygon fill="#efefef" stroke="transparent" points="471,-462.5 471,-497.5 764,-497.5 764,-462.5 471,-462.5"/>
<polygon fill="none" stroke="#000000" points="471,-462.5 471,-497.5 764,-497.5 764,-462.5 471,-462.5"/>
<text text-anchor="start" x="534.7197" y="-475.3" font-family="Arial Bold" font-size="18.00" fill="#000000">User</text>
<text text-anchor="start" x="572.7123" y="-475.3" font-family="Arial" font-size="14.00" fill="#000000">    </text>
<text text-anchor="start" x="606.9171" y="-475.3" font-family="Arial" font-size="14.00" fill="#666666">[BASE TABLE]</text>
<polygon fill="none" stroke="#000000" points="471,-432.5 471,-462.5 764,-462.5 764,-432.5 471,-432.5"/>
<text text-anchor="start" x="478" y="-443.9" font-family="Arial" font-size="14.00" fill="#000000">id    </text>
<text text-anchor="start" x="523.094" y="-443.9" font-family="Arial" font-size="14.00" fill="#666666">[int unsigned]</text>
<polygon fill="none" stroke="#000000" points="471,-402.5 471,-432.5 764,-432.5 764,-402.5 471,-402.5"/>
<text text-anchor="start" x="478" y="-413.9" font-family="Arial" font-size="14.00" fill="#000000">email    </text>
<text text-anchor="start" x="545.6438" y="-413.9" font-family="Arial" font-size="14.00" fill="#666666">[varchar(255)]</text>
<polygon fill="none" stroke="#000000" points="471,-372.5 471,-402.5 764,-402.5 764,-372.5 471,-372.5"/>
<text text-anchor="start" x="478" y="-383.9" font-family="Arial" font-size="14.00" fill="#000000">password    </text>
<text text-anchor="start" x="572.1024" y="-383.9" font-family="Arial" font-size="14.00" fill="#666666">[varchar(255)]</text>
<polygon fill="none" stroke="#000000" points="471,-342.5 471,-372.5 764,-372.5 764,-342.5 471,-342.5"/>
<text text-anchor="start" x="478" y="-353.9" font-family="Arial" font-size="14.00" fill="#000000">username    </text>
<text text-anchor="start" x="574.439" y="-353.9" font-family="Arial" font-size="14.00" fill="#666666">[varchar(50)]</text>
<polygon fill="none" stroke="#000000" points="471,-312.5 471,-342.5 764,-342.5 764,-312.5 471,-312.5"/>
<text text-anchor="start" x="478" y="-323.9" font-family="Arial" font-size="14.00" fill="#000000">enrollment_year    </text>
<text text-anchor="start" x="612.5512" y="-323.9" font-family="Arial" font-size="14.00" fill="#666666">[int]</text>
<polygon fill="none" stroke="#000000" points="471,-282.5 471,-312.5 764,-312.5 764,-282.5 471,-282.5"/>
<text text-anchor="start" x="478" y="-293.9" font-family="Arial" font-size="14.00" fill="#000000">graduation_year    </text>
<text text-anchor="start" x="613.3492" y="-293.9" font-family="Arial" font-size="14.00" fill="#666666">[int]</text>
<polygon fill="none" stroke="#000000" points="471,-252.5 471,-282.5 764,-282.5 764,-252.5 471,-252.5"/>
<text text-anchor="start" x="478" y="-263.9" font-family="Arial" font-size="14.00" fill="#000000">is_job_hunt_completed    </text>
<text text-anchor="start" x="656.1402" y="-263.9" font-family="Arial" font-size="14.00" fill="#666666">[tinyint(1)]</text>
<polygon fill="none" stroke="#000000" points="471,-222.5 471,-252.5 764,-252.5 764,-222.5 471,-222.5"/>
<text text-anchor="start" x="478" y="-233.9" font-family="Arial" font-size="14.00" fill="#000000">self_introduction    </text>
<text text-anchor="start" x="614.1178" y="-233.9" font-family="Arial" font-size="14.00" fill="#666666">[text]</text>
<polygon fill="none" stroke="#000000" points="471,-192.5 471,-222.5 764,-222.5 764,-192.5 471,-192.5"/>
<text text-anchor="start" x="478" y="-203.9" font-family="Arial" font-size="14.00" fill="#000000">icon_url    </text>
<text text-anchor="start" x="561.209" y="-203.9" font-family="Arial" font-size="14.00" fill="#666666">[varchar(255)]</text>
<polygon fill="none" stroke="#000000" points="471,-162.5 471,-192.5 764,-192.5 764,-162.5 471,-162.5"/>
<text text-anchor="start" x="478" y="-173.9" font-family="Arial" font-size="14.00" fill="#000000">created_at    </text>
<text text-anchor="start" x="578.3422" y="-173.9" font-family="Arial" font-size="14.00" fill="#666666">[datetime]</text>
<polygon fill="none" stroke="#000000" points="471,-132.5 471,-162.5 764,-162.5 764,-132.5 471,-132.5"/>
<text text-anchor="start" x="478" y="-143.9" font-family="Arial" font-size="14.00" fill="#000000">updated_at    </text>
<text text-anchor="start" x="582.2468" y="-143.9" font-family="Arial" font-size="14.00" fill="#666666">[datetime]</text>
<polygon fill="none" stroke="#000000" points="471,-102.5 471,-132.5 764,-132.5 764,-102.5 471,-102.5"/>
<text text-anchor="start" x="477.8738" y="-113.9" font-family="Arial" font-size="14.00" fill="#000000">show_profile_in_public_event    </text>
<text text-anchor="start" x="695.6816" y="-113.9" font-family="Arial" font-size="14.00" fill="#666666">[tinyint(1)]</text>
<polygon fill="none" stroke="#000000" points="471,-72.5 471,-102.5 764,-102.5 764,-72.5 471,-72.5"/>
<text text-anchor="start" x="478" y="-83.9" font-family="Arial" font-size="14.00" fill="#000000">show_profile_in_shared_url    </text>
<text text-anchor="start" x="683.3492" y="-83.9" font-family="Arial" font-size="14.00" fill="#666666">[tinyint(1)]</text>
<polygon fill="none" stroke="#000000" points="471,-42.5 471,-72.5 764,-72.5 764,-42.5 471,-42.5"/>
<text text-anchor="start" x="478" y="-53.9" font-family="Arial" font-size="14.00" fill="#000000">affiliation_id    </text>
<text text-anchor="start" x="586.1052" y="-53.9" font-family="Arial" font-size="14.00" fill="#666666">[int unsigned]</text>
</g>
<!-- Work_data_user&#45;&gt;User -->
<g id="edge2" class="edge">
<title>Work_data_user:user_id&#45;&gt;User:id</title>
<path fill="none" stroke="#000000" d="M573.1263,-726.6675C626.6717,-717.2014 598.6457,-629.2258 563,-577 538.2475,-540.7341 495.7525,-577.2659 471,-541 447.5736,-506.677 429.4444,-447.5 471,-447.5"/>
<polygon fill="#000000" stroke="#000000" points="572.9664,-726.6806 562.6313,-723.0151 567.9832,-727.0903 563,-727.5 563,-727.5 563,-727.5 567.9832,-727.0903 563.3687,-731.9849 572.9664,-726.6806 572.9664,-726.6806"/>
<text text-anchor="start" x="569.615" y="-737.5" font-family="Arial" font-size="10.00" fill="#000000">FOREIGN KEY (user_id) REFERENCES User (id)</text>
</g>
</g>
</svg>
