<?xml version="1.0" encoding="UTF-8" standalone="no"?>
<!DOCTYPE svg PUBLIC "-//W3C//DTD SVG 1.1//EN"
 "http://www.w3.org/Graphics/SVG/1.1/DTD/svg11.dtd">
<!-- Generated by graphviz version 2.40.1 (20161225.0304)
 -->
<!-- Title: Work_data_tool Pages: 1 -->
<svg width="796pt" height="802pt"
 viewBox="0.00 0.00 796.00 802.00" xmlns="http://www.w3.org/2000/svg" xmlns:xlink="http://www.w3.org/1999/xlink">
<g id="graph0" class="graph" transform="scale(1 1) rotate(0) translate(4 798)">
<title>Work_data_tool</title>
<polygon fill="#ffffff" stroke="transparent" points="-4,4 -4,-798 792,-798 792,4 -4,4"/>
<!-- Work_data_tool -->
<g id="node1" class="node">
<title>Work_data_tool</title>
<polygon fill="#efefef" stroke="transparent" points="290,-712.5 290,-747.5 557,-747.5 557,-712.5 290,-712.5"/>
<polygon fill="none" stroke="#000000" points="290,-712.5 290,-747.5 557,-747.5 557,-712.5 290,-712.5"/>
<text text-anchor="start" x="296.7007" y="-725.3" font-family="Arial Bold" font-size="18.00" fill="#000000">Work_data_tool</text>
<text text-anchor="start" x="422.7313" y="-725.3" font-family="Arial" font-size="14.00" fill="#000000">    </text>
<text text-anchor="start" x="456.9361" y="-725.3" font-family="Arial" font-size="14.00" fill="#666666">[BASE TABLE]</text>
<polygon fill="none" stroke="#000000" points="290,-682.5 290,-712.5 557,-712.5 557,-682.5 290,-682.5"/>
<text text-anchor="start" x="297" y="-693.9" font-family="Arial" font-size="14.00" fill="#000000">work_data_id </text>
<text text-anchor="start" x="384.1332" y="-693.9" font-family="Arial" font-size="14.00" fill="#666666">[int unsigned]</text>
<polygon fill="none" stroke="#000000" points="290,-652.5 290,-682.5 557,-682.5 557,-652.5 290,-652.5"/>
<text text-anchor="start" x="297" y="-663.9" font-family="Arial" font-size="14.00" fill="#000000">tool_id </text>
<text text-anchor="start" x="342.1248" y="-663.9" font-family="Arial" font-size="14.00" fill="#666666">[int unsigned]</text>
<polygon fill="none" stroke="#000000" points="290,-622.5 290,-652.5 557,-652.5 557,-622.5 290,-622.5"/>
<text text-anchor="start" x="297" y="-633.9" font-family="Arial" font-size="14.00" fill="#000000">created_at </text>
<text text-anchor="start" x="367.028" y="-633.9" font-family="Arial" font-size="14.00" fill="#666666">[datetime]</text>
<polygon fill="none" stroke="#000000" points="290,-592.5 290,-622.5 557,-622.5 557,-592.5 290,-592.5"/>
<text text-anchor="start" x="297" y="-603.9" font-family="Arial" font-size="14.00" fill="#000000">updated_at </text>
<text text-anchor="start" x="370.9326" y="-603.9" font-family="Arial" font-size="14.00" fill="#666666">[datetime]</text>
<polygon fill="none" stroke="#000000" stroke-width="3" points="288,-591.5 288,-749.5 558,-749.5 558,-591.5 288,-591.5"/>
</g>
<!-- Work_data -->
<g id="node2" class="node">
<title>Work_data</title>
<polygon fill="#efefef" stroke="transparent" points="131,-432.5 131,-467.5 392,-467.5 392,-432.5 131,-432.5"/>
<polygon fill="none" stroke="#000000" points="131,-432.5 131,-467.5 392,-467.5 392,-432.5 131,-432.5"/>
<text text-anchor="start" x="154.2082" y="-445.3" font-family="Arial Bold" font-size="18.00" fill="#000000">Work_data</text>
<text text-anchor="start" x="241.2238" y="-445.3" font-family="Arial" font-size="14.00" fill="#000000">    </text>
<text text-anchor="start" x="275.4286" y="-445.3" font-family="Arial" font-size="14.00" fill="#666666">[BASE TABLE]</text>
<polygon fill="none" stroke="#000000" points="131,-402.5 131,-432.5 392,-432.5 392,-402.5 131,-402.5"/>
<text text-anchor="start" x="138" y="-413.9" font-family="Arial" font-size="14.00" fill="#000000">id    </text>
<text text-anchor="start" x="183.094" y="-413.9" font-family="Arial" font-size="14.00" fill="#666666">[int unsigned]</text>
<polygon fill="none" stroke="#000000" points="131,-372.5 131,-402.5 392,-402.5 392,-372.5 131,-372.5"/>
<text text-anchor="start" x="138" y="-383.9" font-family="Arial" font-size="14.00" fill="#000000">work_id    </text>
<text text-anchor="start" x="220.4264" y="-383.9" font-family="Arial" font-size="14.00" fill="#666666">[int unsigned]</text>
<polygon fill="none" stroke="#000000" points="131,-342.5 131,-372.5 392,-372.5 392,-342.5 131,-342.5"/>
<text text-anchor="start" x="138" y="-353.9" font-family="Arial" font-size="14.00" fill="#000000">name    </text>
<text text-anchor="start" x="207.2132" y="-353.9" font-family="Arial" font-size="14.00" fill="#666666">[varchar(100)]</text>
<polygon fill="none" stroke="#000000" points="131,-312.5 131,-342.5 392,-342.5 392,-312.5 131,-312.5"/>
<text text-anchor="start" x="138" y="-323.9" font-family="Arial" font-size="14.00" fill="#000000">catch_copy    </text>
<text text-anchor="start" x="243.0084" y="-323.9" font-family="Arial" font-size="14.00" fill="#666666">[varchar(100)]</text>
<polygon fill="none" stroke="#000000" points="131,-282.5 131,-312.5 392,-312.5 392,-282.5 131,-282.5"/>
<text text-anchor="start" x="138" y="-293.9" font-family="Arial" font-size="14.00" fill="#000000">description    </text>
<text text-anchor="start" x="239.8822" y="-293.9" font-family="Arial" font-size="14.00" fill="#666666">[varchar(500)]</text>
<polygon fill="none" stroke="#000000" points="131,-252.5 131,-282.5 392,-282.5 392,-252.5 131,-252.5"/>
<text text-anchor="start" x="138" y="-263.9" font-family="Arial" font-size="14.00" fill="#000000">movie_url    </text>
<text text-anchor="start" x="232.8696" y="-263.9" font-family="Arial" font-size="14.00" fill="#666666">[varchar(255)]</text>
<polygon fill="none" stroke="#000000" points="131,-222.5 131,-252.5 392,-252.5 392,-222.5 131,-222.5"/>
<text text-anchor="start" x="137.8345" y="-233.9" font-family="Arial" font-size="14.00" fill="#000000">system_diagram_url    </text>
<text text-anchor="start" x="298.0463" y="-233.9" font-family="Arial" font-size="14.00" fill="#666666">[varchar(255)]</text>
<polygon fill="none" stroke="#000000" points="131,-192.5 131,-222.5 392,-222.5 392,-192.5 131,-192.5"/>
<text text-anchor="start" x="138" y="-203.9" font-family="Arial" font-size="14.00" fill="#000000">detail    </text>
<text text-anchor="start" x="205.6564" y="-203.9" font-family="Arial" font-size="14.00" fill="#666666">[text]</text>
<polygon fill="none" stroke="#000000" points="131,-162.5 131,-192.5 392,-192.5 392,-162.5 131,-162.5"/>
<text text-anchor="start" x="138" y="-173.9" font-family="Arial" font-size="14.00" fill="#000000">is_approved    </text>
<text text-anchor="start" x="248.4502" y="-173.9" font-family="Arial" font-size="14.00" fill="#666666">[tinyint(1)]</text>
<polygon fill="none" stroke="#000000" points="131,-132.5 131,-162.5 392,-162.5 392,-132.5 131,-132.5"/>
<text text-anchor="start" x="138" y="-143.9" font-family="Arial" font-size="14.00" fill="#000000">created_at    </text>
<text text-anchor="start" x="238.3422" y="-143.9" font-family="Arial" font-size="14.00" fill="#666666">[datetime]</text>
<polygon fill="none" stroke="#000000" points="131,-102.5 131,-132.5 392,-132.5 392,-102.5 131,-102.5"/>
<text text-anchor="start" x="138" y="-113.9" font-family="Arial" font-size="14.00" fill="#000000">updated_at    </text>
<text text-anchor="start" x="242.2468" y="-113.9" font-family="Arial" font-size="14.00" fill="#666666">[datetime]</text>
<polygon fill="none" stroke="#000000" points="131,-72.5 131,-102.5 392,-102.5 392,-72.5 131,-72.5"/>
<text text-anchor="start" x="138" y="-83.9" font-family="Arial" font-size="14.00" fill="#000000">work_url    </text>
<text text-anchor="start" x="225.087" y="-83.9" font-family="Arial" font-size="14.00" fill="#666666">[varchar(255)]</text>
<polygon fill="none" stroke="#000000" points="131,-42.5 131,-72.5 392,-72.5 392,-42.5 131,-42.5"/>
<text text-anchor="start" x="138" y="-53.9" font-family="Arial" font-size="14.00" fill="#000000">thumbnail_url    </text>
<text text-anchor="start" x="256.2146" y="-53.9" font-family="Arial" font-size="14.00" fill="#666666">[varchar(255)]</text>
</g>
<!-- Work_data_tool&#45;&gt;Work_data -->
<g id="edge1" class="edge">
<title>Work_data_tool:work_data_id&#45;&gt;Work_data:id</title>
<path fill="none" stroke="#000000" d="M279.8658,-696.662C226.2326,-687.1349 253.4796,-598.6179 290,-547 317.7662,-507.7553 364.2338,-550.2447 392,-511 416.0013,-477.0766 433.5556,-417.5 392,-417.5"/>
<polygon fill="#000000" stroke="#000000" points="280.034,-696.6759 289.6291,-701.9847 285.017,-697.0879 290,-697.5 290,-697.5 290,-697.5 285.017,-697.0879 290.3709,-693.0153 280.034,-696.6759 280.034,-696.6759"/>
<text text-anchor="start" x="6.66" y="-707.5" font-family="Arial" font-size="10.00" fill="#000000">FOREIGN KEY (work_data_id) REFERENCES Work_data (id)</text>
</g>
<!-- Tool -->
<g id="node3" class="node">
<title>Tool</title>
<polygon fill="#efefef" stroke="transparent" points="496,-297.5 496,-332.5 675,-332.5 675,-297.5 496,-297.5"/>
<polygon fill="none" stroke="#000000" points="496,-297.5 496,-332.5 675,-332.5 675,-297.5 496,-297.5"/>
<text text-anchor="start" x="504.2146" y="-310.3" font-family="Arial Bold" font-size="18.00" fill="#000000">Tool</text>
<text text-anchor="start" x="539.2174" y="-310.3" font-family="Arial" font-size="14.00" fill="#000000">    </text>
<text text-anchor="start" x="573.4222" y="-310.3" font-family="Arial" font-size="14.00" fill="#666666">[BASE TABLE]</text>
<polygon fill="none" stroke="#000000" points="496,-267.5 496,-297.5 675,-297.5 675,-267.5 496,-267.5"/>
<text text-anchor="start" x="503" y="-278.9" font-family="Arial" font-size="14.00" fill="#000000">id    </text>
<text text-anchor="start" x="548.094" y="-278.9" font-family="Arial" font-size="14.00" fill="#666666">[int unsigned]</text>
<polygon fill="none" stroke="#000000" points="496,-237.5 496,-267.5 675,-267.5 675,-237.5 496,-237.5"/>
<text text-anchor="start" x="503" y="-248.9" font-family="Arial" font-size="14.00" fill="#000000">name    </text>
<text text-anchor="start" x="572.2132" y="-248.9" font-family="Arial" font-size="14.00" fill="#666666">[varchar(30)]</text>
<polygon fill="none" stroke="#000000" points="496,-207.5 496,-237.5 675,-237.5 675,-207.5 496,-207.5"/>
<text text-anchor="start" x="503" y="-218.9" font-family="Arial" font-size="14.00" fill="#000000">created_at    </text>
<text text-anchor="start" x="603.3422" y="-218.9" font-family="Arial" font-size="14.00" fill="#666666">[datetime]</text>
<polygon fill="none" stroke="#000000" points="496,-177.5 496,-207.5 675,-207.5 675,-177.5 496,-177.5"/>
<text text-anchor="start" x="502.6466" y="-188.9" font-family="Arial" font-size="14.00" fill="#000000">updated_at    </text>
<text text-anchor="start" x="606.8934" y="-188.9" font-family="Arial" font-size="14.00" fill="#666666">[datetime]</text>
</g>
<!-- Work_data_tool&#45;&gt;Tool -->
<g id="edge2" class="edge">
<title>Work_data_tool:tool_id&#45;&gt;Tool:id</title>
<path fill="none" stroke="#000000" d="M567.3736,-666.9745C713.0042,-651.1347 326.4765,-282.5 496,-282.5"/>
<polygon fill="#000000" stroke="#000000" points="566.9872,-666.994 556.7723,-663.0058 561.9936,-667.247 557,-667.5 557,-667.5 557,-667.5 561.9936,-667.247 557.2277,-671.9942 566.9872,-666.994 566.9872,-666.994"/>
<text text-anchor="start" x="564.111" y="-677.5" font-family="Arial" font-size="10.00" fill="#000000">FOREIGN KEY (tool_id) REFERENCES Tool (id)</text>
</g>
</g>
</svg>
